<svg width="63" height="58" viewBox="0 0 63 58" fill="none" xmlns="http://www.w3.org/2000/svg">
<path d="M62.3873 27.5264H54.1935V28.5212H57.3213V29.2674H60.7133V30.0135H60.6252V30.7596H61.9027V31.7544H57.101V32.0031H56.1759V32.3513C56.1759 32.5834 56.1318 32.799 56.0437 32.9979H59.1715C58.9659 33.4622 58.6281 33.6943 58.1583 33.6943H50.8456V33.744H51.2861V34.7389H51.3742V35.7337H51.1539V36.7285H50.5812V37.4746H52.7839V37.972H50.9337V38.7181H49.9645V39.713H51.6385V40.2104H51.3301V41.2052H51.0218V42.2H50.4931V43.1948H50.0086V43.9409H51.6385V44.687H50.9777V45.6819H51.242V45.9306H51.5504V46.428H53.753V47.1741H52.2552V48.1689H52.916V49.1637H51.0658V50.1586H51.8147V50.656H52.1231V51.4021H52.8279V52.3969H52.5636V53.143H51.4182V53.8891H51.2861V54.3865H51.242V55.1326H51.7266V55.8787H51.3301V56.4756C51.3301 56.6414 51.3154 56.7741 51.2861 56.8736H50.8456C50.7575 57.2052 50.5959 57.4539 50.361 57.6197H50.4491C50.3022 57.7523 50.0967 57.8187 49.8323 57.8187H41.0219C40.7869 57.8187 40.5667 57.7523 40.3611 57.6197H40.273C40.0674 57.4539 39.9059 57.2052 39.7884 56.8736H40.1849C40.1555 56.7741 40.1408 56.6414 40.1408 56.4756V55.8787H40.5373V55.1326H40.0527V54.3865H40.0968V53.8891H40.2289V53.143H41.3743V52.3969H41.6386V51.4021H40.9338V50.656H40.6254V50.1586H39.8765V49.1637H41.7267V48.1689H41.0659V47.1741H42.5637V46.428H40.3611V45.9306H40.0527V45.6819H39.7884V44.687H40.4492V43.9409H38.8193V43.1948H39.3038V42.2H39.8325V41.2052H40.1408V40.2104H40.4492V39.713H38.7752V38.7181H39.7443V37.972H41.5946V37.4746H39.3919V36.7285H39.9646V35.7337H40.1849V34.7389H40.0968V33.744H39.6562V33.6943H32.3435C31.903 33.6943 31.5506 33.4622 31.2863 32.9979H28.1586C28.1292 32.8984 28.0998 32.799 28.0705 32.6995C28.0117 32.6 27.9824 32.4839 27.9824 32.3513V32.0031H28.9075V31.7544H33.7092V30.7596H32.4317V30.0135H32.5198V29.2674H29.1277V28.5212H26V27.5264H34.1937V26.7803H29.6123V25.7855H30.4933V24.7907H31.6387V24.542H32.2995V24.343C32.2995 24.0114 32.3876 23.7461 32.5638 23.5471H31.5947C31.8296 23.1824 32.1527 23 32.5638 23H58.3785C58.7897 23 59.1127 23.1824 59.3477 23.5471H60.2728C60.4196 23.7793 60.493 24.0446 60.493 24.343V24.542H59.8322V24.7907H58.6869V25.7855H57.8058V26.7803H62.3873V27.5264Z" fill="white"/>
<path d="M32.171 14.5243L32.0389 15.2705H39.3075L39.2194 15.7679H32.5234L32.4794 16.0166H35.2547L35.1225 17.0114H36.0476L35.9595 17.7575H36.4882L36.356 18.5036H36.4001L36.3119 19.2497H36.4882V19.4984H36.4001L36.2679 20.4932H36.1357L36.0036 21.4881L35.9155 22.4829H36.7525L36.7084 22.7316H36.2238V22.9803H37.1049V23.229H35.6952L35.6512 23.4777H35.1666L35.0785 24.2238H36.5322L36.4001 25.2186H38.074L37.9859 25.9648H36.6644L36.6203 26.2135H35.9595L35.8274 27.2083H36.1798L36.1357 27.7057H36.5322L36.4441 28.4518H35.7833L35.6952 29.1979H34.2415L34.1974 29.6953H35.6952L35.5631 30.6901H34.5939L34.5058 31.685H35.3868L35.2987 32.4311H31.9067L31.8186 32.9285H33.0961L33.0521 33.2269V33.4259H34.2415C34.2121 33.4922 34.1827 33.5751 34.1534 33.6746C34.1534 33.7741 34.124 33.857 34.0653 33.9233H33.5807C33.4339 34.2217 33.243 34.4705 33.008 34.6694H33.4045C33.2283 34.8021 33.0961 34.885 33.008 34.9181H33.3604C33.1255 35.0508 32.8318 35.1171 32.4794 35.1171H26.1799C26.0037 35.1171 25.8422 35.1005 25.6953 35.0673C25.5778 35.001 25.4604 34.9513 25.3429 34.9181H24.9905C24.9024 34.885 24.829 34.8518 24.7702 34.8186C24.7115 34.7523 24.6527 34.7026 24.594 34.6694H24.2416C24.1241 34.5368 24.0213 34.4041 23.9332 34.2715C23.8451 34.1388 23.7717 34.0228 23.713 33.9233H24.1975C24.1682 33.8901 24.1535 33.8404 24.1535 33.7741L24.0213 33.4259H22.8319L22.6557 32.9285H21.3782L21.202 32.4311H24.594L24.3297 31.685H23.4046L23.0522 30.6901H24.0213L23.6689 29.6953H22.1711L21.9949 29.1979H23.4046L23.1403 28.4518H23.8011L23.5368 27.7057H23.1403L22.9641 27.2083H22.6117L22.2592 26.2135H22.92L22.8319 25.9648H24.1535L23.8892 25.2186H22.2152L21.8628 24.2238H20.409L20.1888 23.5772L19.9685 24.2238H19.7923L19.4399 25.2186H22.1711L21.9068 25.9648H19.7482L19.6601 26.2135H20.0566L19.7042 27.2083H20.4971L20.3209 27.7057H18.1183L17.854 28.4518H19.0434L18.7791 29.1979H17.3254L17.1492 29.6953H17.854L17.5016 30.6901H17.5456L17.1932 31.685H14.2857L14.0214 32.4311H18.6469L18.4707 32.9285H17.5016L17.3254 33.4259H17.2373L17.1051 33.7741L17.017 33.9233H15.6514C15.5926 34.0228 15.5192 34.1388 15.4311 34.2715C15.3724 34.4041 15.2696 34.5368 15.1227 34.6694H15.3871C15.299 34.7689 15.1815 34.8518 15.0346 34.9181H16.2241C16.1066 34.9513 15.9744 35.001 15.8276 35.0673C15.6807 35.1005 15.5192 35.1171 15.343 35.1171H9.04351C8.69109 35.1171 8.39741 35.0508 8.16246 34.9181H7.0171C6.92899 34.885 6.79684 34.8021 6.62063 34.6694H6.31226C6.04795 34.4373 5.85705 34.1886 5.73958 33.9233H7.14926C7.11989 33.857 7.09052 33.7741 7.06115 33.6746C7.03178 33.5751 7.00242 33.4922 6.97305 33.4259H7.1052L7.06115 33.2269L7.0171 32.9285H7.98625L7.89815 32.4311H3.3167L3.22859 31.685H6.092L6.00389 30.6901H5.95984L5.82769 29.6953H5.12285L5.07879 29.1979H6.48847L6.40037 28.4518H5.255L5.1669 27.7057H7.36952L7.28141 27.2083H6.48847L6.35631 26.2135H5.95984L5.91579 25.9648H8.07436L7.98625 25.2186H5.255L5.12285 24.2238H5.29906L5.1669 23.4777H5.65147V23.229H7.06115L7.0171 22.9803H6.092L6.04795 22.7316H6.53252V22.4829H5.65147L5.60742 21.9855H5.56337L5.51932 21.4881L5.38716 20.4932H5.51932L5.38716 19.4984H5.47527L5.43121 19.2497H5.255L5.1669 18.5036H5.12285L5.03474 17.7575H4.50611L4.41801 17.0114H3.49291L3.36075 16.0166H0.585449V15.7679H7.28141L7.23736 15.2705H4.59422L4.50611 14.5243H1.73081L1.68676 14.0269H5.69553L5.56337 13.0321H4.50611V12.7834H5.12285L5.07879 12.5347H6.00389L5.91579 11.7886H4.41801L4.37396 11.5399H0.937868L0.849764 10.5451H4.68232L4.55017 9.55025H3.58101L3.53696 9.05284H3.93343L3.84533 8.30672H3.97748L3.93343 8.05802H2.56781L2.52375 7.56061H3.44886L3.36075 6.81449H3.44886L3.36075 6.06838H4.10964L4.02154 5.57097H1.64271L1.59865 5.07356H3.49291L3.44886 4.57615H2.34755L2.30349 4.07874H3.66912L3.58101 3.33262H3.14049L3.00833 2.33781H3.49291L3.44886 2.08911L3.36075 1.54195V1.34299H2.69996C2.7587 0.646618 3.08175 0.298431 3.66912 0.298431H11.8629C12.7733 0.298431 13.2872 0.646618 13.4047 1.34299H14.0655C14.0949 1.40931 14.1095 1.50879 14.1095 1.64144L14.1536 2.08911L14.1976 2.33781H13.7571L13.8452 3.33262H14.2857L14.3739 4.07874H12.9642L13.0523 4.57615H14.1095L14.1536 5.07356H12.2593L12.3034 5.57097H14.6822L14.7703 6.06838H14.0214L14.0655 6.81449H14.0214L14.0655 7.56061H13.0963L13.1844 8.05802H14.506L14.5501 8.30672H14.4179L14.506 9.05284H14.1095L14.1536 9.55025H15.1227L15.2549 10.5451H11.3783L11.4664 11.5399H14.9025L14.9465 11.7886H16.4443L16.5324 12.5347H15.6073V12.7834H14.9906L15.0346 13.0321H15.9597L16.0478 12.7834H16.4884L16.5765 12.5347H18.4267L18.6469 11.7886H16.6205L16.6646 11.5399H20.0566L20.365 10.5451H16.7967L17.061 9.55025H16.6646V9.45076L16.7967 9.05284H17.6337C17.6925 8.92019 17.7512 8.78755 17.8099 8.65491C17.898 8.52226 18.0008 8.4062 18.1183 8.30672H17.854C18.0008 8.17408 18.1624 8.09118 18.3386 8.05802H18.735C18.8231 8.02486 18.9553 8.00828 19.1315 8.00828H23.6249C23.8011 8.00828 23.9185 8.02486 23.9773 8.05802H23.5808C23.6983 8.09118 23.7864 8.12434 23.8451 8.1575C23.9332 8.19066 24.0066 8.2404 24.0654 8.30672H24.3297C24.4765 8.4062 24.5793 8.52226 24.6381 8.65491C24.7262 8.78755 24.7849 8.92019 24.8143 9.05284H24.0213C24.1094 9.18548 24.1535 9.31812 24.1535 9.45076L24.1975 9.55025H24.6381L24.9024 10.5451H26.6204L26.7526 9.55025H26.4883L26.5323 9.05284H28.6028L28.6468 8.30672H26.7085L26.7526 8.05802H26.4002L26.4883 7.56061H27.2372L27.3253 6.81449H27.0609L27.149 6.06838H27.7658L27.8098 5.57097H25.1226L25.1667 5.07356H25.9596L26.0037 4.57615H27.5015L27.5455 4.07874H27.5015L27.5896 3.33262L27.6777 2.33781H26.7966L26.8407 2.08911H27.8979L27.986 1.64144V1.34299H28.823C28.9405 0.646618 29.4545 0.298431 30.3649 0.298431H38.5586C38.7936 0.298431 38.9991 0.397913 39.1754 0.596877C39.3809 0.795841 39.4984 1.04455 39.5278 1.34299H38.7348V1.54195L38.6467 2.08911H37.5454L37.5014 2.33781H38.4265L38.2943 3.33262L38.2062 4.07874H38.2502L38.1622 4.57615H36.6644L36.6203 5.07356H35.8274L35.7393 5.57097H38.4705L38.4265 6.06838H37.8097L37.7216 6.81449H37.9419L37.8538 7.56061H37.1049L37.0168 8.05802H37.3692L37.3252 8.30672H39.2635L39.1754 9.05284H37.1489L37.0608 9.55025H37.3252L37.193 10.5451H35.6071L35.4749 11.5399H37.4133L37.3692 11.7886H35.1225L35.0344 12.5347H37.1049V12.7834H36.9727L36.9287 13.0321H37.0608L36.9287 14.0269H37.6335L37.5454 14.5243H32.171ZM26.8847 11.5399H25.387L25.431 11.7886H26.8407L26.8847 11.5399ZM25.8275 12.5347L25.9156 12.7834H25.4751L25.5632 13.0321L25.8715 14.0269H21.1139L21.246 14.5243H27.105L27.149 14.0269H26.4442L26.5764 13.0321H26.4442L26.4883 12.7834H26.5764L26.6204 12.5347H25.8275ZM17.8099 15.2705H17.6778L17.7218 15.6684L17.8099 15.2705ZM28.823 15.6186L28.8671 15.2705H28.6909L28.823 15.6186Z" fill="white"/>
</svg>
