<svg width="265" height="89" viewBox="0 0 265 89" fill="none" xmlns="http://www.w3.org/2000/svg">
<path d="M65.6144 14.928C73.5115 18.1985 68.37 42.8305 68.37 42.8305C68.37 42.8305 75.2824 42.8846 77.4602 41.1881C86.4278 34.2024 81.4339 10.8544 68.5352 13.8525C67.6022 14.0693 66.6278 14.4225 65.6144 14.928Z" fill="#F47805"/>
<path d="M61.3369 14.928C54.0578 16.4597 58.5402 42.5407 58.5402 42.5407C61.9836 44.5601 64.2004 44.316 68.37 42.8305C68.37 42.8305 73.5115 18.1985 65.6144 14.928C63.9438 14.6193 63.0075 14.5342 61.3369 14.928Z" fill="#F47805"/>
<path d="M68.5352 13.8525C81.4339 10.8544 86.4278 34.2024 77.4602 41.1881C88.7774 39.9592 92.577 17.6078 80.8328 13.1447C77.8094 11.9958 73.7558 12.0131 68.5352 13.8525Z" fill="#F47805"/>
<path d="M69.7684 9.9602C68.3275 9.47264 67.0706 9.10474 65.8817 8.87944C66.6531 13.8518 68.5352 13.8525 68.5352 13.8525C73.7558 12.0131 77.8094 11.9958 80.8328 13.1447C78.1542 10.4854 76.4363 9.18095 69.7684 9.9602Z" fill="#F47805"/>
<path d="M58.5402 42.5407C58.5402 42.5407 54.0578 16.4597 61.3369 14.928C60.4504 14.2961 59.9373 14.0737 58.9898 13.8882C45.7058 10.9903 40.1562 33.3917 49.3684 41.3402C52.7227 43.4051 58.5402 42.5407 58.5402 42.5407Z" fill="#F47805"/>
<path d="M49.3684 41.3402C40.1562 33.3917 45.7058 10.9903 58.9898 13.8882L57.1007 13.4791C52.631 11.7426 48.9846 11.7507 46.1664 12.8933C35.6818 17.1443 36.6618 37.0985 49.3684 41.3402Z" fill="#F47805"/>
<path d="M57.1007 13.4791L58.9898 13.8882C59.2596 13.9435 60.2322 13.358 61.1731 12.2785C56.8554 8.10234 49.654 9.34804 46.1664 12.8933C48.9846 11.7507 52.631 11.7426 57.1007 13.4791Z" fill="#F47805"/>
<path d="M57.1007 9.9602C59.1208 10.7203 60.2922 11.2825 61.1731 12.2785C61.9486 11.388 62.2551 10.1224 62.5752 8.64331C60.9405 8.73692 59.2227 9.15469 57.1007 9.9602Z" fill="#F47805"/>
<path d="M61.3369 14.928C54.0578 16.4597 58.5402 42.5407 58.5402 42.5407M61.3369 14.928C60.4504 14.2961 59.9373 14.0737 58.9898 13.8882M61.3369 14.928C63.0075 14.5342 63.9438 14.6193 65.6144 14.928M58.5402 42.5407C61.9836 44.5601 64.2004 44.316 68.37 42.8305M58.5402 42.5407C58.5402 42.5407 52.7227 43.4051 49.3684 41.3402M68.37 42.8305C68.37 42.8305 73.5115 18.1985 65.6144 14.928M68.37 42.8305C68.37 42.8305 75.2824 42.8846 77.4602 41.1881M65.6144 14.928C66.6278 14.4225 67.6022 14.0693 68.5352 13.8525M58.9898 13.8882C45.7058 10.9903 40.1562 33.3917 49.3684 41.3402M58.9898 13.8882L57.1007 13.4791C52.631 11.7426 48.9846 11.7507 46.1664 12.8933M58.9898 13.8882C59.2596 13.9435 60.2322 13.358 61.1731 12.2785M49.3684 41.3402C36.6618 37.0985 35.6818 17.1443 46.1664 12.8933M46.1604 12.8995C46.1624 12.8974 46.1644 12.8954 46.1664 12.8933M69.7684 9.9602C68.2453 10.723 68.3685 10.7561 66.6433 11.8065M69.7684 9.9602C76.4363 9.18095 78.1542 10.4854 80.8328 13.1447M69.7684 9.9602C68.3275 9.47264 67.0706 9.10474 65.8817 8.87944M66.6433 11.8065C67.4942 13.8521 68.5352 13.8525 68.5352 13.8525M66.6433 11.8065C66.35 11.1016 66.0794 10.1538 65.8817 8.87944M68.5352 13.8525C81.4339 10.8544 86.4278 34.2024 77.4602 41.1881M68.5352 13.8525C73.7558 12.0131 77.8094 11.9958 80.8328 13.1447M68.5352 13.8525C68.5352 13.8525 66.6531 13.8518 65.8817 8.87944M77.4602 41.1881C88.7774 39.9592 92.577 17.6078 80.8328 13.1447M46.1664 12.8933C49.654 9.34804 56.8554 8.10234 61.1731 12.2785M61.1731 12.2785C61.1857 12.2907 60.7486 12.2663 60.7611 12.2785C60.7495 12.2652 61.1847 12.2916 61.1731 12.2785ZM61.1731 12.2785C60.2922 11.2825 59.1208 10.7203 57.1007 9.9602C59.2227 9.15469 60.9405 8.73692 62.5752 8.64331C62.2551 10.1224 61.9486 11.388 61.1731 12.2785ZM61.1731 12.2785C61.174 12.2775 61.1722 12.2795 61.1731 12.2785Z" stroke="#DE5609"/>
<path d="M56.0732 6.11018C58.1296 -1.01035 65.6563 -0.389369 65.6563 6.11018C65.6563 12.6097 68.4119 13.8517 68.4119 13.8517C67.3054 14.0646 66.6974 14.2604 65.6563 14.8866C63.7514 14.4548 62.8142 14.4895 61.2966 14.8866C60.6312 14.3297 60.2134 14.054 59.1168 13.8517C59.1168 13.8517 62.8184 11.8646 62.8184 7.43493C62.8184 3.0053 59.6103 3.04669 58.6232 7.43493L57.595 7.20724L56.5668 6.97955L56.0732 6.11018Z" fill="#779734"/>
<path d="M56.5668 6.97955L56.0732 6.11018C58.1296 -1.01035 65.6563 -0.389369 65.6563 6.11018C65.6563 12.6097 68.4119 13.8517 68.4119 13.8517C67.3054 14.0646 66.6974 14.2604 65.6563 14.8866M56.5668 6.97955L57.595 7.20724M56.5668 6.97955C58.6232 -0.554966 65.3273 0.190205 64.916 6.97955C64.5047 13.7689 65.6563 14.8866 65.6563 14.8866M65.6563 14.8866C63.7514 14.4548 62.8142 14.4895 61.2966 14.8866M61.2966 14.8866C60.6312 14.3297 60.2134 14.054 59.1168 13.8517C59.1168 13.8517 62.8184 11.8646 62.8184 7.43493C62.8184 3.0053 59.6103 3.04669 58.6232 7.43493L57.595 7.20724M61.2966 14.8866C61.2966 14.8866 63.5573 11.285 63.641 6.97955C63.7246 2.67411 60.1861 0.273001 57.595 7.20724" stroke="#5E7C1F"/>
<path d="M48.4639 30.2868C49.8867 32.9034 50.8441 34.2075 52.8647 36.2482L55.0445 35.3788L58.0469 38.2353L61.5429 35.089L64.463 38.4009L67.8356 35.089L70.4267 37.2004L72.8945 35.71L74.0872 36.538C76.0906 34.5352 76.8181 33.3353 77.7066 31.1148L74.7453 33.2261L72.8122 31.1976L69.9743 33.5159L66.8485 31.9842L64.134 34.1369L60.5558 31.86L58.2114 33.9299L55.5792 31.4874L52.7824 32.3153L48.4639 30.2868Z" fill="#5A2405"/>
<path d="M67.3009 23.1249C72.113 26.2298 73.2235 25.8986 76.1437 20.3512L67.3009 23.1249Z" fill="#5A2405"/>
<path d="M50.6848 20.3098C53.4767 26.3647 55.5474 25.9759 59.5276 23.1249L50.6848 20.3098Z" fill="#5A2405"/>
<path d="M63.3937 24.4497L61.584 28.5067C63.0289 28.7483 63.8401 28.7357 65.2856 28.5067L63.3937 24.4497Z" fill="#5A2405"/>
<path d="M50.8365 19.8334L49.7559 19.4894L50.2308 20.5192C50.9367 22.0502 51.6116 23.2071 52.3022 24.0271C52.9962 24.8511 53.7298 25.3623 54.5521 25.5451C55.3725 25.7275 56.2032 25.5655 57.0568 25.1986C57.906 24.8337 58.8176 24.2485 59.8187 23.5314L60.6291 22.9509L59.6792 22.6485L50.8365 19.8334ZM67.1513 22.6478L66.1339 22.9669L67.0299 23.545C68.2358 24.3231 69.2442 24.9092 70.1221 25.248C71.0066 25.5893 71.8109 25.7001 72.5807 25.46C73.3427 25.2223 73.9835 24.6673 74.6022 23.8675C75.2208 23.0679 75.8546 21.9737 76.5861 20.5841L77.1509 19.5113L75.994 19.8741L67.1513 22.6478ZM63.8468 24.2383L63.3836 23.2449L62.9371 24.246L61.1274 28.303L60.8641 28.8932L61.5015 28.9998C63.0043 29.2512 63.8699 29.2372 65.3638 29.0005L66.0192 28.8967L65.7388 28.2954L63.8468 24.2383ZM48.6764 29.8343L47.296 29.1858L48.0246 30.5257C49.4688 33.1814 50.4538 34.524 52.5094 36.6L52.7423 36.8353L53.0499 36.7126L54.932 35.962L57.7023 38.5976L58.0375 38.9165L58.3814 38.607L61.5019 35.7986L64.088 38.7316L64.4369 39.1273L64.8134 38.7577L67.8667 35.7593L70.1109 37.588L70.3838 37.8104L70.6852 37.6284L72.8756 36.3055L73.8021 36.9487L74.1453 37.1869L74.4407 36.8916C76.4931 34.8399 77.2578 33.5825 78.1708 31.3005L78.8038 29.7184L77.4163 30.7077L74.8081 32.5673L73.1742 30.8527L72.8546 30.5173L72.4959 30.8104L69.9064 32.9258L67.0685 31.5352L66.7851 31.3963L66.5378 31.5924L64.1022 33.524L60.8242 31.4381L60.5068 31.2362L60.2249 31.4852L58.2198 33.2555L55.9193 31.1209L55.7104 30.9271L55.4372 31.0079L52.8228 31.7819L48.6764 29.8343Z" stroke="#DE5609"/>
<path d="M35.1548 19.7233L35.0226 20.4694H42.2913L42.2032 20.9668H35.5072L35.4632 21.2155H38.2385L38.1063 22.2104H39.0314L38.9433 22.9565H39.4719L39.3398 23.7026H39.3838L39.2957 24.4487H39.4719V24.6974H39.3838L39.2517 25.6922H39.1195L38.9874 26.687L38.8992 27.6819H39.7362L39.6922 27.9306H39.2076V28.1793H40.0887V28.428H38.679L38.6349 28.6767H38.1504L38.0623 29.4228H39.516L39.3838 30.4176H41.0578L40.9697 31.1637H39.6481L39.6041 31.4124H38.9433L38.8111 32.4073H39.1636L39.1195 32.9047H39.516L39.4279 33.6508H38.7671L38.679 34.3969H37.2253L37.1812 34.8943H38.679L38.5468 35.8891H37.5777L37.4896 36.8839H38.3706L38.2825 37.6301H34.8905L34.8024 38.1275H36.0799L36.0358 38.4259V38.6249H37.2253C37.1959 38.6912 37.1665 38.7741 37.1372 38.8736C37.1372 38.9731 37.1078 39.056 37.049 39.1223H36.5645C36.4176 39.4207 36.2267 39.6694 35.9918 39.8684H36.3883C36.2121 40.001 36.0799 40.0839 35.9918 40.1171H36.3442C36.1093 40.2497 35.8156 40.3161 35.4632 40.3161H29.1637C28.9875 40.3161 28.8259 40.2995 28.6791 40.2663C28.5616 40.2 28.4441 40.1503 28.3267 40.1171H27.9743C27.8861 40.0839 27.8127 40.0508 27.754 40.0176C27.6953 39.9513 27.6365 39.9016 27.5778 39.8684H27.2254C27.1079 39.7358 27.0051 39.6031 26.917 39.4705C26.8289 39.3378 26.7555 39.2218 26.6967 39.1223H27.1813C27.1519 39.0891 27.1373 39.0394 27.1373 38.9731L27.0051 38.6249H25.8157L25.6395 38.1275H24.362L24.1857 37.6301H27.5778L27.3135 36.8839H26.3884L26.0359 35.8891H27.0051L26.6527 34.8943H25.1549L24.9787 34.3969H26.3884L26.1241 33.6508H26.7848L26.5205 32.9047H26.1241L25.9478 32.4073H25.5954L25.243 31.4124H25.9038L25.8157 31.1637H27.1373L26.8729 30.4176H25.199L24.8465 29.4228H23.3928L23.1725 28.7762L22.9523 29.4228H22.7761L22.4237 30.4176H25.1549L24.8906 31.1637H22.732L22.6439 31.4124H23.0404L22.688 32.4073H23.4809L23.3047 32.9047H21.1021L20.8378 33.6508H22.0272L21.7629 34.3969H20.3091L20.1329 34.8943H20.8378L20.4853 35.8891H20.5294L20.177 36.8839H17.2695L17.0052 37.6301H21.6307L21.4545 38.1275H20.4853L20.3091 38.6249H20.221L20.0889 38.9731L20.0008 39.1223H18.6351C18.5764 39.2218 18.503 39.3378 18.4149 39.4705C18.3561 39.6031 18.2534 39.7358 18.1065 39.8684H18.3708C18.2827 39.9679 18.1653 40.0508 18.0184 40.1171H19.2078C19.0904 40.1503 18.9582 40.2 18.8114 40.2663C18.6645 40.2995 18.503 40.3161 18.3268 40.3161H12.0273C11.6749 40.3161 11.3812 40.2497 11.1462 40.1171H10.0009C9.91277 40.0839 9.78061 40.001 9.6044 39.8684H9.29603C9.03172 39.6363 8.84083 39.3876 8.72335 39.1223H10.133C10.1037 39.056 10.0743 38.9731 10.0449 38.8736C10.0156 38.7741 9.98619 38.6912 9.95682 38.6249H10.089L10.0449 38.4259L10.0009 38.1275H10.97L10.8819 37.6301H6.30047L6.21237 36.8839H9.07577L8.98767 35.8891H8.94361L8.81146 34.8943H8.10662L8.06257 34.3969H9.47224L9.38414 33.6508H8.23878L8.15067 32.9047H10.3533L10.2652 32.4073H9.47224L9.34009 31.4124H8.94361L8.89956 31.1637H11.0581L10.97 30.4176H8.23878L8.10662 29.4228H8.28283L8.15067 28.6767H8.63525V28.428H10.0449L10.0009 28.1793H9.07577L9.03172 27.9306H9.5163V27.6819H8.63525L8.5912 27.1845H8.54714L8.50309 26.687L8.37093 25.6922H8.50309L8.37093 24.6974H8.45904L8.41499 24.4487H8.23878L8.15067 23.7026H8.10662L8.01851 22.9565H7.48988L7.40178 22.2104H6.47668L6.34452 21.2155H3.56922V20.9668H10.2652L10.2211 20.4694H7.57799L7.48988 19.7233H4.71458L4.67053 19.2259H8.6793L8.54714 18.2311H7.48988V17.9824H8.10662L8.06257 17.7337H8.98767L8.89956 16.9876H7.40178L7.35773 16.7389H3.92164L3.83354 15.744H7.66609L7.53394 14.7492H6.56479L6.52073 14.2518H6.9172L6.8291 13.5057H6.96126L6.9172 13.257H5.55158L5.50753 12.7596H6.43263L6.34452 12.0135H6.43263L6.34452 11.2674H7.09341L7.00531 10.77H4.62648L4.58243 10.2725H6.47668L6.43263 9.77513H5.33132L5.28727 9.27772H6.65289L6.56479 8.5316H6.12426L5.9921 7.53679H6.47668L6.43263 7.28808L6.34452 6.74093V6.54197H5.68374C5.74247 5.8456 6.06552 5.49741 6.65289 5.49741H14.8466C15.7571 5.49741 16.271 5.8456 16.3885 6.54197H17.0493C17.0786 6.60829 17.0933 6.70777 17.0933 6.84042L17.1374 7.28808L17.1814 7.53679H16.7409L16.829 8.5316H17.2695L17.3576 9.27772H15.9479L16.0361 9.77513H17.0933L17.1374 10.2725H15.2431L15.2872 10.77H17.666L17.7541 11.2674H17.0052L17.0493 12.0135H17.0052L17.0493 12.7596H16.0801L16.1682 13.257H17.4898L17.5338 13.5057H17.4017L17.4898 14.2518H17.0933L17.1374 14.7492H18.1065L18.2387 15.744H14.3621L14.4502 16.7389H17.8863L17.9303 16.9876H19.4281L19.5162 17.7337H18.5911V17.9824H17.9744L18.0184 18.2311H18.9435L19.0316 17.9824H19.4721L19.5602 17.7337H21.4104L21.6307 16.9876H19.6043L19.6483 16.7389H23.0404L23.3488 15.744H19.7805L20.0448 14.7492H19.6483V14.6497L19.7805 14.2518H20.6175C20.6762 14.1192 20.735 13.9865 20.7937 13.8539C20.8818 13.7212 20.9846 13.6052 21.1021 13.5057H20.8378C20.9846 13.3731 21.1461 13.2902 21.3223 13.257H21.7188C21.8069 13.2238 21.9391 13.2073 22.1153 13.2073H26.6086C26.7848 13.2073 26.9023 13.2238 26.961 13.257H26.5646C26.682 13.2902 26.7702 13.3233 26.8289 13.3565C26.917 13.3896 26.9904 13.4394 27.0492 13.5057H27.3135C27.4603 13.6052 27.5631 13.7212 27.6218 13.8539C27.7099 13.9865 27.7687 14.1192 27.798 14.2518H27.0051C27.0932 14.3845 27.1373 14.5171 27.1373 14.6497L27.1813 14.7492H27.6218L27.8861 15.744H29.6042L29.7363 14.7492H29.472L29.5161 14.2518H31.5865L31.6306 13.5057H29.6923L29.7363 13.257H29.3839L29.472 12.7596H30.2209L30.309 12.0135H30.0447L30.1328 11.2674H30.7496L30.7936 10.77H28.1064L28.1505 10.2725H28.9434L28.9875 9.77513H30.4852L30.5293 9.27772H30.4852L30.5733 8.5316L30.6614 7.53679H29.7804L29.8245 7.28808H30.8817L30.9698 6.84042V6.54197H31.8068C31.9243 5.8456 32.4382 5.49741 33.3486 5.49741H41.5424C41.7773 5.49741 41.9829 5.59689 42.1591 5.79586C42.3647 5.99482 42.4822 6.24353 42.5115 6.54197H41.7186V6.74093L41.6305 7.28808H40.5292L40.4851 7.53679H41.4102L41.2781 8.5316L41.19 9.27772H41.234L41.1459 9.77513H39.6481L39.6041 10.2725H38.8111L38.723 10.77H41.4543L41.4102 11.2674H40.7935L40.7054 12.0135H40.9257L40.8376 12.7596H40.0887L40.0006 13.257H40.353L40.3089 13.5057H42.2472L42.1591 14.2518H40.1327L40.0446 14.7492H40.3089L40.1768 15.744H38.5909L38.4587 16.7389H40.397L40.353 16.9876H38.1063L38.0182 17.7337H40.0887V17.9824H39.9565L39.9125 18.2311H40.0446L39.9125 19.2259H40.6173L40.5292 19.7233H35.1548ZM29.8685 16.7389H28.3707L28.4148 16.9876H29.8245L29.8685 16.7389ZM28.8112 17.7337L28.8994 17.9824H28.4588L28.5469 18.2311L28.8553 19.2259H24.0976L24.2298 19.7233H30.0888L30.1328 19.2259H29.428L29.5601 18.2311H29.428L29.472 17.9824H29.5601L29.6042 17.7337H28.8112ZM20.7937 20.4694H20.6616L20.7056 20.8674L20.7937 20.4694ZM31.8068 20.8176L31.8509 20.4694H31.6747L31.8068 20.8176ZM113.556 10.0238H105.362V11.0187H108.49V11.7648H111.882V12.5109H111.794V13.257H113.071V14.2518H108.269V14.5005H107.344V14.8487C107.344 15.0808 107.3 15.2964 107.212 15.4953H110.34C110.134 15.9596 109.797 16.1917 109.327 16.1917H102.014V16.2415H102.454V17.2363H102.543V18.2311H102.322V19.2259H101.75V19.972H103.952V20.4694H102.102V21.2155H101.133V22.2104H102.807V22.7078H102.499V23.7026H102.19V24.6974H101.662V25.6922H101.177V26.4383H102.807V27.1845H102.146V28.1793H102.41V28.428H102.719V28.9254H104.921V29.6715H103.424V30.6663H104.084V31.6611H102.234V32.656H102.983V33.1534H103.291V33.8995H103.996V34.8943H103.732V35.6404H102.587V36.3865H102.454V36.8839H102.41V37.6301H102.895V38.3762H102.499V38.9731C102.499 39.1389 102.484 39.2715 102.454 39.371H102.014C101.926 39.7026 101.764 39.9513 101.529 40.1171H101.617C101.471 40.2497 101.265 40.3161 101.001 40.3161H92.1903C91.9553 40.3161 91.7351 40.2497 91.5295 40.1171H91.4414C91.2358 39.9513 91.0743 39.7026 90.9568 39.371H91.3533C91.3239 39.2715 91.3092 39.1389 91.3092 38.9731V38.3762H91.7057V37.6301H91.2211V36.8839H91.2652V36.3865H91.3973V35.6404H92.5427V34.8943H92.807V33.8995H92.1022V33.1534H91.7938V32.656H91.0449V31.6611H92.8951V30.6663H92.2343V29.6715H93.7321V28.9254H91.5295V28.428H91.2211V28.1793H90.9568V27.1845H91.6176V26.4383H89.9877V25.6922H90.4722V24.6974H91.0009V23.7026H91.3092V22.7078H91.6176V22.2104H89.9436V21.2155H90.9128V20.4694H92.7629V19.972H90.5603V19.2259H91.133V18.2311H91.3533V17.2363H91.2652V16.2415H90.8246V16.1917H83.5119C83.0714 16.1917 82.719 15.9596 82.4547 15.4953H79.327C79.2976 15.3959 79.2682 15.2964 79.2389 15.1969C79.1801 15.0974 79.1508 14.9813 79.1508 14.8487V14.5005H80.0759V14.2518H84.8776V13.257H83.6001V12.5109H83.6882V11.7648H80.2961V11.0187H77.1684V10.0238H85.3622V9.27772H80.7807V8.2829H81.6617V7.28808H82.8071V7.03938H83.4679V6.84042C83.4679 6.50881 83.556 6.24353 83.7322 6.04456H82.7631C82.998 5.67979 83.3211 5.49741 83.7322 5.49741H109.547C109.958 5.49741 110.281 5.67979 110.516 6.04456H111.441C111.588 6.27669 111.661 6.54197 111.661 6.84042V7.03938H111.001V7.28808H109.855V8.2829H108.974V9.27772H113.556V10.0238ZM153.951 16.4902V16.7389H152.894C152.923 16.9047 152.938 17.0705 152.938 17.2363C152.938 17.4021 152.938 17.5679 152.938 17.7337H145.229C145.229 18.1648 145.038 18.4964 144.656 18.7285C144.48 18.7948 144.348 18.828 144.26 18.828H135.273C135.156 18.828 135.038 18.828 134.921 18.828C134.803 18.7948 134.686 18.7617 134.568 18.7285H127.388V18.9772H131.264C131.235 19.143 131.22 19.3088 131.22 19.4746C131.22 19.6404 131.22 19.8062 131.22 19.972H129.678C129.649 20.0383 129.634 20.1212 129.634 20.2207C129.634 20.3202 129.634 20.4031 129.634 20.4694H129.767V20.9668H129.106V21.9617H131.22V22.2104H124.084V22.7078H126.33V23.7026H130.868V23.9513H129.018V24.2H127.828V25.1948H131.22C131.25 25.3275 131.264 25.4601 131.264 25.5927C131.264 25.6922 131.264 25.8083 131.264 25.9409H132.498V26.1896H126.815V26.687H125.537V26.9358H131.264V26.9855H140.075C140.633 26.9855 140.956 27.3005 141.044 27.9306H147.564V28.6767H147.255L147.167 29.6715H146.683L146.639 30.1689H147.784C147.784 30.2684 147.769 30.3513 147.74 30.4176H147.476C147.446 30.4839 147.432 30.5668 147.432 30.6663H148.885L148.753 31.4124H147.387C147.387 31.4456 147.373 31.4788 147.343 31.5119C147.343 31.5451 147.343 31.5948 147.343 31.6611H146.991C146.962 31.7938 146.918 31.9264 146.859 32.0591C146.829 32.1586 146.8 32.2746 146.771 32.4073H147.299C147.299 32.4404 147.27 32.5233 147.211 32.656H146.33C146.271 32.8218 146.198 32.9876 146.11 33.1534C146.051 33.3192 145.978 33.485 145.89 33.6508H146.771L146.374 34.3969H146.771L146.33 35.143H146.066C145.948 35.3088 145.816 35.4746 145.669 35.6404C145.552 35.8062 145.42 35.972 145.273 36.1378H144.921C144.891 36.171 144.862 36.2041 144.832 36.2373C144.803 36.2705 144.759 36.3202 144.7 36.3865H142.806L142.586 36.6352H151.44C151.264 36.801 151.088 36.9668 150.912 37.1326C150.735 37.2985 150.545 37.4643 150.339 37.6301H149.854C149.561 37.8622 149.208 38.1109 148.797 38.3762H139.502C139.208 38.5751 138.9 38.7575 138.577 38.9233C138.254 39.056 137.931 39.2052 137.608 39.371H144.876C144.788 39.4042 144.686 39.4373 144.568 39.4705C144.48 39.5036 144.377 39.5534 144.26 39.6197H142.498C142.38 39.6529 142.263 39.686 142.145 39.7192C142.028 39.7523 141.91 39.8021 141.793 39.8684H138.621C137.564 40.2 136.477 40.4487 135.361 40.6145H136.066C135.596 40.6808 135.112 40.7306 134.612 40.7637C134.113 40.7969 133.614 40.8135 133.115 40.8135C132.557 40.8135 132.013 40.7969 131.485 40.7637C130.985 40.7306 130.486 40.6808 129.987 40.6145H129.282C128.107 40.4487 127.021 40.2 126.022 39.8684H129.194C129.076 39.8021 128.959 39.7523 128.841 39.7192C128.753 39.686 128.651 39.6529 128.533 39.6197H130.339L129.722 39.371H122.454C122.16 39.2052 121.852 39.056 121.529 38.9233C121.235 38.7575 120.941 38.5751 120.648 38.3762H129.987C129.811 38.2435 129.634 38.1275 129.458 38.028C129.282 37.8953 129.12 37.7627 128.974 37.6301H129.458C129.106 37.3316 128.768 37 128.445 36.6352H119.546C119.517 36.5689 119.488 36.5192 119.458 36.486C119.429 36.4529 119.385 36.4197 119.326 36.3865H121.264C121.235 36.3202 121.191 36.2705 121.132 36.2373C121.103 36.2041 121.073 36.171 121.044 36.1378H121.397C121.132 35.8062 120.883 35.4746 120.648 35.143H120.912L120.516 34.3969H120.119L119.723 33.6508H118.842L118.445 32.656H119.37L119.282 32.4073H118.709C118.68 32.2746 118.651 32.1586 118.621 32.0591C118.592 31.9264 118.548 31.7938 118.489 31.6611H118.842L118.753 31.4124H120.119C120.09 31.2798 120.06 31.1637 120.031 31.0642C120.002 30.9316 119.972 30.799 119.943 30.6663H119.238C119.209 30.6 119.194 30.5171 119.194 30.4176H118.445C118.416 30.3513 118.401 30.2684 118.401 30.1689H118.445C118.445 30.0363 118.416 29.8705 118.357 29.6715H115.846L115.714 28.6767H119.106C119.076 28.544 119.062 28.428 119.062 28.3285C119.062 28.1959 119.047 28.0632 119.018 27.9306H119.855C119.855 27.8311 119.855 27.7316 119.855 27.6321C119.855 27.5326 119.84 27.4332 119.811 27.3337V26.9358H114.084V26.687H115.361V26.1896H121.044V25.9409H119.811C119.811 25.8083 119.796 25.6922 119.767 25.5927C119.767 25.4601 119.767 25.3275 119.767 25.1948H116.375V24.2H117.564V23.9513H119.414V23.7026H114.877V22.7078H112.63V22.2104H119.767V21.9617H117.652V20.9668H118.313V20.4694H118.181V19.972H119.767V18.9772H115.934V18.7285H124.392V18.4798C124.421 18.3472 124.436 18.2311 124.436 18.1316C124.436 17.999 124.436 17.8663 124.436 17.7337H122.101C122.101 17.5679 122.101 17.4021 122.101 17.2363C122.131 17.0705 122.16 16.9047 122.189 16.7389H123.599C123.629 16.6725 123.643 16.5896 123.643 16.4902H114.524C114.554 16.4238 114.568 16.3409 114.568 16.2415C114.568 16.142 114.583 16.0591 114.612 15.9927H122.63L122.85 14.9979H121.044L121.176 14.5005H118.225L118.313 14.2518H119.282C119.311 14.1855 119.341 14.1026 119.37 14.0031C119.4 13.9036 119.429 13.8207 119.458 13.7544H118.974L119.15 13.257H119.37C119.429 13.1244 119.488 13.0083 119.546 12.9088C119.605 12.7762 119.649 12.6435 119.679 12.5109H119.723L120.119 11.7648H119.987C120.046 11.6321 120.104 11.5161 120.163 11.4166C120.251 11.2839 120.339 11.1513 120.427 11.0187H120.075C120.192 10.8529 120.31 10.687 120.427 10.5212C120.545 10.3223 120.662 10.1565 120.78 10.0238H120.383C120.413 9.95752 120.442 9.90777 120.471 9.87461C120.501 9.84145 120.53 9.80829 120.56 9.77513H120.119L120.339 9.52643H120.251C120.31 9.46011 120.354 9.41037 120.383 9.3772C120.413 9.34404 120.442 9.31088 120.471 9.27772H119.679C119.737 9.2114 119.811 9.1285 119.899 9.02902C119.987 8.92954 120.075 8.84663 120.163 8.78031H121.22C121.367 8.64767 121.514 8.53161 121.661 8.43213C121.808 8.29948 121.955 8.16684 122.101 8.0342H121.617L121.969 7.78549H121.22C121.279 7.71917 121.338 7.66943 121.397 7.63627C121.455 7.60311 121.514 7.56995 121.573 7.53679H123.863C124.069 7.40415 124.275 7.28808 124.48 7.1886C124.686 7.05596 124.891 6.92332 125.097 6.79068H124.965C125.141 6.69119 125.317 6.60829 125.493 6.54197C125.67 6.44249 125.846 6.35959 126.022 6.29327H126.859C126.947 6.22694 127.035 6.1772 127.123 6.14404C127.241 6.11088 127.358 6.07772 127.476 6.04456H126.154C127.035 5.67979 127.975 5.43109 128.974 5.29844H130.163C131.308 5.09948 132.512 5 133.775 5C135.009 5 136.198 5.09948 137.344 5.29844H136.198C137.167 5.43109 138.136 5.67979 139.106 6.04456H140.427C140.545 6.07772 140.647 6.11088 140.736 6.14404C140.853 6.1772 140.97 6.22694 141.088 6.29327H140.251C140.692 6.45907 141.059 6.62487 141.352 6.79068H141.484C141.719 6.92332 141.94 7.05596 142.145 7.1886C142.351 7.28808 142.556 7.40415 142.762 7.53679H140.515C140.574 7.56995 140.633 7.60311 140.692 7.63627C140.75 7.66943 140.809 7.71917 140.868 7.78549H141.617C141.675 7.81865 141.734 7.85182 141.793 7.88498C141.852 7.91814 141.896 7.96788 141.925 8.0342H142.41L143.291 8.78031H142.189L142.718 9.27772H143.511L143.775 9.52643H143.819L144.039 9.77513H144.48L144.7 10.0238H145.097C145.214 10.1565 145.332 10.3223 145.449 10.5212C145.567 10.687 145.684 10.8529 145.802 11.0187H146.11C146.198 11.1513 146.271 11.2839 146.33 11.4166C146.418 11.5161 146.492 11.6321 146.55 11.7648H146.683C146.741 11.8974 146.8 12.0301 146.859 12.1627C146.918 12.2622 146.976 12.3782 147.035 12.5109H146.947C147.006 12.6435 147.064 12.7762 147.123 12.9088C147.182 13.0083 147.226 13.1244 147.255 13.257H147.035L147.167 13.7544H147.652L147.784 14.2518H146.815C146.815 14.285 146.815 14.3181 146.815 14.3513C146.844 14.3845 146.859 14.4342 146.859 14.5005H149.81C149.81 14.6332 149.84 14.799 149.898 14.9979H145.89L146.022 15.9927H148.577L148.621 16.4902H153.951ZM133.731 14.9979H136.859C136.389 14.799 135.86 14.6995 135.273 14.6995C134.686 14.6995 134.172 14.799 133.731 14.9979ZM141.352 17.3855C141.323 17.2529 141.294 17.1368 141.264 17.0373C141.235 16.9378 141.191 16.8383 141.132 16.7389H142.189L142.057 16.4902H136.771C136.741 16.3907 136.697 16.3078 136.639 16.2415C136.58 16.142 136.521 16.0591 136.462 15.9927H126.463C126.433 16.0591 126.389 16.142 126.33 16.2415C126.301 16.3078 126.257 16.3907 126.198 16.4902H135.317L135.229 16.7389H133.819C133.761 16.8715 133.717 17.0373 133.687 17.2363C133.658 17.4021 133.628 17.5679 133.599 17.7337H141.484L141.352 17.3855ZM136.154 27.9306H130.515L130.648 28.6767H127.256C127.314 28.8756 127.373 29.058 127.432 29.2238C127.49 29.3565 127.564 29.5057 127.652 29.6715H130.163C130.222 29.771 130.28 29.8705 130.339 29.9699C130.398 30.0363 130.457 30.1026 130.515 30.1689H130.427L130.648 30.4176H131.396C131.455 30.4508 131.514 30.5005 131.573 30.5668C131.631 30.6 131.69 30.6332 131.749 30.6663H132.454C132.953 30.9648 133.555 31.114 134.26 31.114C134.965 31.114 135.552 30.9648 136.022 30.6663H134.568L134.921 30.4176H135.185L135.449 30.1689H134.304C134.363 30.1026 134.421 30.0363 134.48 29.9699C134.568 29.8705 134.627 29.771 134.656 29.6715H135.141C135.317 29.3731 135.464 29.0415 135.581 28.6767H135.89L135.978 28.428C136.037 28.229 136.095 28.0632 136.154 27.9306ZM187.845 28.6767V28.9254H191.282V29.4228H191.105V30.1689H181.987V30.4176H183.572V31.1637H188.418V31.6611H185.907V32.656H185.775V32.9047H182.868V33.6508H187.185V33.8995H187.361V34.6456H187.801V35.6404H179.299V36.3865H188.286V36.8839H185.29V37.6301H184.894V38.1275H185.907V38.6249H185.246V39.1223H186.788L186.656 39.6197H188.727C188.668 39.7192 188.594 39.8187 188.506 39.9181C188.448 39.9845 188.374 40.0508 188.286 40.1171H189.299C189.152 40.2497 188.947 40.3161 188.682 40.3161H180.048C179.784 40.3161 179.578 40.2497 179.431 40.1171H178.418C178.213 40.0176 178.066 39.8518 177.978 39.6197H175.907L175.775 39.1223H174.233V38.6249H174.894V38.1275H173.881V37.6301H174.277V36.8839H177.273V36.3865H169.299V36.8839H165.643V37.6301H168.154V38.1275H167.537V38.6249H169.828V39.1223H167.361L167.229 39.6197H168.198C168.081 39.8518 167.948 40.0176 167.802 40.1171H166.744C166.598 40.2497 166.392 40.3161 166.128 40.3161H157.493C157.2 40.3161 156.979 40.2497 156.833 40.1171H157.89C157.743 40.0176 157.611 39.8518 157.493 39.6197H156.48C156.392 39.4539 156.348 39.2881 156.348 39.1223H158.815V38.6249H156.524V38.1275H157.141V37.6301H154.63V36.8839H158.286V36.3865H160.401V35.6404H153.617V34.6456H156.128V33.8995H157.89V33.6508H156.656V32.9047H154.586V32.656H155.026V31.6611H156.436V31.1637H157.097V30.4176H153.925V30.1689H162.075V29.4228H152.119V28.9254H161.502V28.6767H156.921V27.9306H159.564V27.6819H160.092V27.4332H159.872V26.4383H155.511V25.6922H156.965V25.4435H156.568V24.6974H156.744V24.4487H156.789V23.9513H156.833V23.7026H156.26V23.4539H154.542V22.7078H155.115V21.9617H154.233V21.2155H156.436V20.2207H155.952V19.7233H152.736V19.4746H157.89V18.9772H159.123V18.7285H147.229V18.4798H154.233V18.2311H156.744V17.485H152.251V16.4902H151.018V15.744H156.304V14.7492H156.744V14.0031H159.564V13.7544H157.141V12.7596H159.123V12.2622H156.744V12.0135H155.907V11.5161H154.63V11.0187H153.088V10.0238H155.863V9.27772H157.537V8.5316H156.744V8.0342H155.643V7.78549H156.26V7.28808H156.128V6.84042C156.128 6.60829 156.172 6.42591 156.26 6.29327H159.079C159.109 6.19378 159.153 6.11088 159.211 6.04456C159.27 5.94508 159.329 5.86218 159.388 5.79586H166.172C166.348 5.59689 166.598 5.49741 166.921 5.49741H183.837C184.13 5.49741 184.38 5.59689 184.586 5.79586H191.37C191.428 5.86218 191.487 5.94508 191.546 6.04456C191.634 6.11088 191.693 6.19378 191.722 6.29327H186.039C186.098 6.49223 186.127 6.67461 186.127 6.84042V7.28808H186.348V7.78549H186.964V8.0342H185.775V8.5316H185.246V9.27772H186.964V10.0238H182.824V11.0187H187.581V11.5161H184.145V12.0135H185.555V12.2622H184.85V12.7596H188.154V13.7544H183.308V14.0031H187.053V14.7492H186.392V15.744H182.868V16.4902H181.414V17.485H185.907V18.2311H183.396V18.4798H176.392V18.7285H188.286V18.9772H187.053V19.4746H181.898V19.7233H185.114V20.2207H185.599V21.2155H183.396V21.9617H184.277V22.7078H183.705V23.4539H185.423V23.7026H185.995V23.9513H185.951V24.4487H185.907V24.6974H185.731V25.4435H186.127V25.6922H184.674V26.4383H189.035V27.4332H189.255V27.6819H188.727V27.9306H186.083V28.6767H187.845ZM162.031 15.744V16.4902H163.264V17.286H170.401V16.4902H171.854V15.744H175.379V14.7492H176.039V14.0031H172.295V13.7544H177.141V12.7596H173.837V12.2622H174.542V12.0135H173.132V11.5161H176.568V11.0187H171.81V10.0238H175.951V9.27772H174.233V8.5316H174.762V8.0342H175.951V7.78549H175.335V7.28808H175.114V6.84042C175.114 6.67461 175.144 6.49223 175.202 6.29327H180.885C180.944 6.19378 181.003 6.11088 181.061 6.04456C181.12 5.94508 181.179 5.86218 181.238 5.79586H169.52C169.667 5.9285 169.784 6.0943 169.872 6.29327H167.053C167.111 6.39275 167.141 6.57513 167.141 6.84042V7.28808H167.273V7.78549H166.656V8.0342H167.758V8.5316H168.551V9.27772H166.877V10.0238H164.101V11.0187H165.643V11.5161H166.921V12.0135H167.758V12.2622H170.136V12.7596H168.154V13.7544H170.577V14.0031H167.758V14.7492H167.317V15.744H162.031ZM180.268 29.4228V28.9254H176.832V28.6767H175.07V28.229H167.934V28.6767H172.515V28.9254H163.132V29.4228H173.088V30.1689H180.092V29.4228H180.268ZM177.405 31.1637H172.559V30.4176H170.973V30.1689H164.938V30.4176H168.11V31.1637H167.449V31.6611H166.04V32.656H165.599V32.9047H167.669V33.6508H168.903V33.8995H167.141V34.6456H164.63V35.6404H176.788V34.6456H176.348V33.8995H176.172V33.6508H171.854V32.9047H174.762V32.656H174.894V31.6611H177.405V31.1637ZM223.901 31.6611H227.381V32.4073H220.685V33.4021H225.002V34.3969H221.213V35.3917H221.698V36.1378H221.39V36.6352H220.464V37.1326H220.42V37.6301H221.345V38.6249H222.623V38.9731C222.623 39.0394 222.608 39.0891 222.579 39.1223H214.738C214.708 39.1886 214.694 39.2715 214.694 39.371H217.733C217.645 39.7026 217.484 39.9513 217.249 40.1171H216.412C216.265 40.2497 216.059 40.3161 215.795 40.3161H192.844C192.609 40.3161 192.388 40.2497 192.183 40.1171H193.02C192.814 39.9513 192.653 39.7026 192.535 39.371H189.452C189.422 39.3047 189.408 39.2218 189.408 39.1223H197.293V38.6249H196.015V37.6301H195.09V37.1326H195.134V36.6352H196.059V36.1378H196.368V35.3917H195.883V34.3969H199.672V33.4021H195.355V32.4073H202.051V31.6611H198.57V31.1637H199.584V30.6663H200.024V30.1689H195.134V29.6715H193.989V28.9254H198.086V28.6767H194.826V28.1793H195.795V27.6819H196.5V26.9358H196.412V25.9409H195.971V24.9461H195.311V24.4487H195.839V23.4539H195.355V22.9565H196.059V22.2104H196.236V21.4643H197.029V21.2155H196.28V20.2207H195.619V19.4746H195.795V18.7285H195.883V17.7337H196.544V16.7389H195.575V15.744H195.707V14.7492H196.94V14.0031H196.28V13.257H195.927V13.0083H197.777V12.2622H201.037V11.7648H199.716V11.2674H195.443V11.0187H195.927V10.2725H195.971V9.52643H196.103V8.5316H196.059V7.28808H195.971V6.84042C195.971 6.70777 195.986 6.60829 196.015 6.54197H195.575C195.692 5.8456 196.074 5.49741 196.72 5.49741H219.319C219.995 5.49741 220.376 5.8456 220.464 6.54197H220.905C220.934 6.60829 220.949 6.70777 220.949 6.84042V7.28808H221.037V8.5316H221.081V9.52643H220.949V10.2725H220.905V11.0187H220.42V11.2674H224.693V11.7648H226.015V12.2622H222.755V13.0083H220.905V13.257H221.257V14.0031H221.918C221.859 14.3347 221.757 14.5834 221.61 14.7492H220.376C220.171 15.0477 219.877 15.1969 219.495 15.1969H206.28V15.744H206.147V16.7389H207.117V17.7337H206.456V18.3306H218.702C219.025 18.3306 219.304 18.4632 219.539 18.7285H219.451C219.598 18.8943 219.701 19.143 219.76 19.4746H219.627V20.2207H220.288V21.2155H221.037V21.4643H220.244V22.2104H220.068V22.9565H219.363V23.4539H219.848V24.4487H219.319V24.9461H219.98V25.9409H220.42V26.1399C220.42 26.5047 220.347 26.7699 220.2 26.9358H220.288C220.053 27.3005 219.73 27.4829 219.319 27.4829H207.073V27.6819H206.368V28.1793H205.399V28.6767H208.658V28.9254H204.562V29.6715H205.707V30.1689H210.597V30.6166H224.165C224.312 30.6166 224.429 30.6332 224.517 30.6663H224.033C224.326 30.7658 224.547 30.9316 224.693 31.1637H223.68C223.798 31.3627 223.871 31.5285 223.901 31.6611ZM264.296 13.257C264.355 13.3896 264.414 13.5223 264.472 13.6549C264.531 13.7544 264.575 13.8705 264.604 14.0031H262.975C263.033 14.1358 263.092 14.3016 263.151 14.5005C263.21 14.6663 263.268 14.8321 263.327 14.9979H256.411L256.675 15.9927H260.243L260.375 16.7389H259.891C259.92 16.8052 259.935 16.8881 259.935 16.9876C259.935 17.087 259.95 17.17 259.979 17.2363H258.79L258.834 17.7337H259.759C259.759 17.8663 259.759 17.999 259.759 18.1316C259.788 18.2311 259.803 18.3472 259.803 18.4798H261.433C261.462 18.6124 261.477 18.7285 261.477 18.828C261.477 18.9275 261.477 19.0435 261.477 19.1762V19.2259H257.336C257.336 19.3917 257.336 19.5575 257.336 19.7233C257.365 19.8891 257.38 20.0549 257.38 20.2207H258.305C258.305 20.3865 258.305 20.5523 258.305 20.7181C258.334 20.8839 258.349 21.0497 258.349 21.2155H259.935V21.4643H259.318V22.4591H259.494V23.2052H262.094V24.2H259.627V24.6974H259.362C259.362 24.7637 259.362 24.8466 259.362 24.9461C259.362 25.0456 259.348 25.1285 259.318 25.1948H258.525V26.1896H258.613C258.584 26.2891 258.569 26.4218 258.569 26.5876V26.687H260.199C260.199 26.8197 260.185 26.9523 260.155 27.085C260.155 27.1845 260.155 27.3005 260.155 27.4332H260.816C260.816 27.599 260.801 27.7648 260.772 27.9306C260.772 28.0964 260.757 28.2622 260.728 28.428H259.759C259.729 28.4943 259.715 28.5772 259.715 28.6767C259.715 28.7762 259.7 28.8591 259.671 28.9254H254.384C254.384 29.058 254.355 29.2238 254.296 29.4228H258.922C258.863 29.6218 258.834 29.7876 258.834 29.9202H259.494C259.465 30.0529 259.436 30.1855 259.406 30.3181C259.406 30.4176 259.377 30.5337 259.318 30.6663L259.186 31.1637H257.909L257.82 31.4124H259.891C259.832 31.5451 259.803 31.628 259.803 31.6611H258.481L258.393 31.9098H258.349C258.29 32.0757 258.232 32.2415 258.173 32.4073C258.114 32.5731 258.041 32.7389 257.953 32.9047H257.292L256.807 33.8995H257.556L257.292 34.3969H257.336C257.277 34.4632 257.218 34.5461 257.16 34.6456C257.101 34.7451 257.042 34.828 256.983 34.8943H256.675C256.587 34.9938 256.528 35.0767 256.499 35.143C256.411 35.2756 256.323 35.4083 256.235 35.5409C256.146 35.6404 256.044 35.7565 255.926 35.8891H255.794C255.647 36.0549 255.486 36.2207 255.309 36.3865C255.163 36.5523 255.001 36.7181 254.825 36.8839H255.221L254.296 37.6301H254.34C254.105 37.7959 253.856 37.9617 253.591 38.1275C253.327 38.2933 253.048 38.4591 252.754 38.6249H252.71C252.417 38.7907 252.05 38.9565 251.609 39.1223H251.653C251.066 39.3544 250.449 39.5534 249.803 39.7192C249.157 39.885 248.496 40.0176 247.821 40.1171H248.746C248.276 40.1834 247.791 40.2332 247.292 40.2663C246.793 40.2995 246.279 40.3161 245.75 40.3161H232.843C232.578 40.3161 232.373 40.2497 232.226 40.1171H231.301C231.007 39.9181 230.831 39.5865 230.772 39.1223H230.728V38.6249H230.816V37.6301H230.728V36.8839H230.376V35.8891H230.508V35.143H230.464V34.8943H230.816V34.3969H230.772V33.8995H229.979V32.9047H230.684V31.9098H230.728V31.6611H232.05V31.4124H230.023V31.1637H231.301V29.9202H230.684V29.4228H230.64V28.9254H231.785V28.428H226.719V27.4332H226.543V26.687H227.116V26.1896H228.922V25.1948H230.067V24.6974H230.728V24.2H231.433V23.2052H232.446V22.4591H233.415V21.4643H230.464V21.2155H229.495V20.2207H227.556V19.2259H232.578V18.4798H228.702V17.7337H230.816V17.2363H230.728V16.7389H230.376V15.9927H228.482V14.9979H235.354V14.0031H236.984V13.257H229.054V12.2622H234.252V12.0135H230.156V11.7648H238.481V10.77H237.424V10.5212H226.94V9.52643H228.217V8.78031H230.948V8.5316H232.402V8.0342H231.609V7.78549H230.684V7.28808H230.772V6.84042C230.772 6.7741 230.772 6.72435 230.772 6.69119C230.802 6.62487 230.816 6.57513 230.816 6.54197H230.993C231.139 5.8456 231.536 5.49741 232.182 5.49741H244.869C247.13 5.49741 249.186 5.8456 251.036 6.54197H250.86C251.389 6.74093 251.932 6.98964 252.49 7.28808H252.402C252.549 7.35441 252.696 7.4373 252.842 7.53679C253.019 7.60311 253.166 7.68601 253.283 7.78549H254.208L254.605 8.0342H255.354C255.5 8.10052 255.618 8.18342 255.706 8.2829C255.823 8.38239 255.941 8.46529 256.058 8.5316H254.605C254.663 8.56477 254.722 8.59793 254.781 8.63109C254.84 8.66425 254.884 8.71399 254.913 8.78031H252.182L253.019 9.52643H251.697C252.02 9.82487 252.314 10.1565 252.578 10.5212H263.063C263.092 10.5544 263.121 10.5876 263.151 10.6207C263.18 10.6539 263.209 10.7036 263.239 10.77H264.34C264.458 10.9026 264.575 11.0684 264.693 11.2674C264.81 11.4332 264.913 11.599 265.001 11.7648H256.675C256.704 11.7979 256.734 11.8311 256.763 11.8643C256.793 11.8974 256.822 11.9472 256.851 12.0135H260.948L261.08 12.2622H255.882C256.088 12.5938 256.249 12.9254 256.367 13.257H264.296ZM248.746 16.7389C248.569 16.4404 248.349 16.1917 248.085 15.9927H244.517C243.87 15.4622 243.078 15.1969 242.138 15.1969H239.495V15.9927H241.389V16.7389H241.741V17.2363H241.829V17.7337H239.715V18.4798H243.592V19.2259H238.57V20.2207H240.508V21.2155H241.477V21.4643H244.428V22.4591H243.459V23.2052H242.446V24.2H241.741V24.6974H241.081V25.1948H239.935V26.1896H238.129V26.687H237.556V27.4332H237.733V28.428H242.799V28.9254H241.653V29.4228H241.697V29.9202H242.314V30.6166H245.177C246.029 30.6166 246.749 30.3845 247.336 29.9202H246.631C246.719 29.8539 246.807 29.7876 246.895 29.7212C246.984 29.6218 247.057 29.5223 247.116 29.4228H242.534C242.593 29.3565 242.652 29.2902 242.71 29.2238C242.769 29.1244 242.813 29.0249 242.843 28.9254H248.129C248.188 28.8591 248.232 28.7927 248.261 28.7264C248.29 28.6269 248.32 28.5275 248.349 28.428H249.362C249.421 28.2622 249.465 28.0964 249.495 27.9306C249.524 27.7648 249.553 27.599 249.583 27.4332H248.922C248.951 27.3005 248.966 27.1845 248.966 27.085C248.966 26.9523 248.981 26.8197 249.01 26.687H247.38V26.5876C247.38 26.5212 247.38 26.4549 247.38 26.3886C247.409 26.3223 247.424 26.256 247.424 26.1896H247.336C247.336 26.0238 247.336 25.858 247.336 25.6922C247.336 25.4933 247.351 25.3275 247.38 25.1948H248.173V24.6974H248.437L248.481 24.2H250.948V23.2052H248.349V22.4591H248.173V21.4643H248.79V21.2155H247.16V20.2207H246.191C246.191 20.0549 246.191 19.8891 246.191 19.7233C246.191 19.5575 246.176 19.3917 246.147 19.2259H250.287V19.1762C250.287 19.0435 250.273 18.9275 250.243 18.828C250.243 18.6953 250.243 18.5793 250.243 18.4798H248.613C248.584 18.3472 248.555 18.2311 248.525 18.1316C248.496 17.999 248.467 17.8663 248.437 17.7337H247.512C247.483 17.6342 247.453 17.5513 247.424 17.485C247.395 17.3855 247.365 17.3026 247.336 17.2363H248.525C248.496 17.1368 248.452 17.0539 248.393 16.9876C248.364 16.8881 248.32 16.8052 248.261 16.7389H248.746ZM36.3883 58.2104H28.1945V59.2052H31.3222V59.9513H34.7143V60.6974H34.6262V61.4435H35.9037V62.4383H31.102V62.6871H30.1769V63.0352C30.1769 63.2674 30.1328 63.4829 30.0447 63.6819H33.1724C32.9669 64.1461 32.6291 64.3782 32.1592 64.3782H24.8465V64.428H25.2871V65.4228H25.3752V66.4176H25.1549V67.4124H24.5822V68.1585H26.7848V68.656H24.9346V69.4021H23.9655V70.3969H25.6395V70.8943H25.3311V71.8891H25.0227V72.8839H24.4941V73.8788H24.0095V74.6249H25.6395V75.371H24.9787V76.3658H25.243V76.6145H25.5514V77.1119H27.754V77.858H26.2562V78.8528H26.917V79.8477H25.0668V80.8425H25.8157V81.3399H26.1241V82.086H26.8289V83.0808H26.5646V83.8269H25.4192V84.5731H25.2871V85.0705H25.243V85.8166H25.7276V86.5627H25.3311V87.1596C25.3311 87.3254 25.3164 87.458 25.2871 87.5575H24.8465C24.7584 87.8891 24.5969 88.1378 24.362 88.3036H24.4501C24.3032 88.4363 24.0976 88.5026 23.8333 88.5026H15.0228C14.7879 88.5026 14.5676 88.4363 14.3621 88.3036H14.274C14.0684 88.1378 13.9069 87.8891 13.7894 87.5575H14.1859C14.1565 87.458 14.1418 87.3254 14.1418 87.1596V86.5627H14.5383V85.8166H14.0537V85.0705H14.0977V84.5731H14.2299V83.8269H15.3753V83.0808H15.6396V82.086H14.9347V81.3399H14.6264V80.8425H13.8775V79.8477H15.7277V78.8528H15.0669V77.858H16.5647V77.1119H14.3621V76.6145H14.0537V76.3658H13.7894V75.371H14.4502V74.6249H12.8202V73.8788H13.3048V72.8839H13.8334V71.8891H14.1418V70.8943H14.4502V70.3969H12.7762V69.4021H13.7453V68.656H15.5955V68.1585H13.3929V67.4124H13.9656V66.4176H14.1859V65.4228H14.0977V64.428H13.6572V64.3782H6.34452C5.904 64.3782 5.55158 64.1461 5.28727 63.6819H2.15954C2.13018 63.5824 2.10081 63.4829 2.07144 63.3834C2.0127 63.2839 1.98334 63.1679 1.98334 63.0352V62.6871H2.90844V62.4383H7.71015V61.4435H6.43263V60.6974H6.52073V59.9513H3.1287V59.2052H0.000976562V58.2104H8.19472V57.4643H3.61327V56.4694H4.49432V55.4746H5.63968V55.2259H6.30047V55.0269C6.30047 54.6953 6.38858 54.4301 6.56479 54.2311H5.59563C5.83058 53.8663 6.15363 53.6839 6.56479 53.6839H32.3795C32.7906 53.6839 33.1137 53.8663 33.3486 54.2311H34.2737C34.4206 54.4632 34.494 54.7285 34.494 55.0269V55.2259H33.8332V55.4746H32.6879V56.4694H31.8068V57.4643H36.3883V58.2104ZM73.3849 76.8632V77.1119H76.821V77.6093H76.6448V78.3554H67.526V78.6041H69.1119V79.3503H73.9576V79.8477H71.4466V80.8425H71.3145V81.0912H68.407V81.8373H72.7242V82.086H72.9004V82.8321H73.3409V83.8269H64.8388V84.5731H73.8255V85.0705H70.8299V85.8166H70.4334V86.314H71.4466V86.8114H70.7859V87.3088H72.3277L72.1955 87.8062H74.266C74.2073 87.9057 74.1338 88.0052 74.0457 88.1047C73.987 88.171 73.9136 88.2373 73.8255 88.3036H74.8387C74.6918 88.4363 74.4863 88.5026 74.2219 88.5026H65.5877C65.3234 88.5026 65.1178 88.4363 64.9709 88.3036H63.9577C63.7522 88.2041 63.6053 88.0383 63.5172 87.8062H61.4467L61.3146 87.3088H59.7728V86.8114H60.4335V86.314H59.4203V85.8166H59.8168V85.0705H62.8124V84.5731H54.8389V85.0705H51.1825V85.8166H53.6935V86.314H53.0768V86.8114H55.3675V87.3088H52.9006L52.7684 87.8062H53.7376C53.6201 88.0383 53.4879 88.2041 53.3411 88.3036H52.2838C52.137 88.4363 51.9314 88.5026 51.6671 88.5026H43.0326C42.7389 88.5026 42.5187 88.4363 42.3718 88.3036H43.4291C43.2822 88.2041 43.1501 88.0383 43.0326 87.8062H42.0194C41.9313 87.6404 41.8872 87.4746 41.8872 87.3088H44.3542V86.8114H42.0634V86.314H42.6802V85.8166H40.1692V85.0705H43.8255V84.5731H45.9403V83.8269H39.156V82.8321H41.667V82.086H43.4291V81.8373H42.1956V81.0912H40.1251V80.8425H40.5657V79.8477H41.9753V79.3503H42.6361V78.6041H39.4644V78.3554H47.6143V77.6093H37.6582V77.1119H47.0416V76.8632H42.4599V76.1171H45.1031V75.8684H45.6317V75.6197H45.4114V74.6249H41.0502V73.8788H42.504V73.6301H42.1075V72.8839H42.2837V72.6352H42.3278V72.1378H42.3718V71.8891H41.7991V71.6404H40.0811V70.8943H40.6538V70.1482H39.7727V69.4021H41.9753V68.4073H41.4908V67.9098H38.2749V67.6611H43.4291V67.1637H44.6625V66.915H32.7684V66.6663H39.7727V66.4176H42.2837V65.6715H37.7904V64.6767H36.5569V63.9306H41.8432V62.9358H42.2837V62.1896H45.1031V61.9409H42.6802V60.9461H44.6625V60.4487H42.2837V60.2H41.4467V59.7026H40.1692V59.2052H38.6274V58.2104H41.4027V57.4643H43.0767V56.7181H42.2837V56.2207H41.1824V55.972H41.7991V55.4746H41.667V55.0269C41.667 54.7948 41.711 54.6124 41.7991 54.4798H44.6185C44.6479 54.3803 44.6919 54.2974 44.7506 54.2311C44.8094 54.1316 44.8681 54.0487 44.9269 53.9824H51.7112C51.8874 53.7834 52.137 53.6839 52.46 53.6839H69.3762C69.6699 53.6839 69.9195 53.7834 70.1251 53.9824H76.9091C76.9679 54.0487 77.0266 54.1316 77.0853 54.2311C77.1734 54.2974 77.2322 54.3803 77.2616 54.4798H71.5788C71.6375 54.6788 71.6669 54.8611 71.6669 55.0269V55.4746H71.8872V55.972H72.5039V56.2207H71.3145V56.7181H70.7859V57.4643H72.5039V58.2104H68.363V59.2052H73.1206V59.7026H69.6845V60.2H71.0942V60.4487H70.3894V60.9461H73.6933V61.9409H68.8475V62.1896H72.592V62.9358H71.9312V63.9306H68.407V64.6767H66.9533V65.6715H71.4466V66.4176H68.9356V66.6663H61.9313V66.915H73.8255V67.1637H72.592V67.6611H67.4379V67.9098H70.6537V68.4073H71.1383V69.4021H68.9356V70.1482H69.8167V70.8943H69.244V71.6404H70.9621V71.8891H71.5347V72.1378H71.4907V72.6352H71.4466V72.8839H71.2704V73.6301H71.6669V73.8788H70.2132V74.6249H74.5744V75.6197H74.7946V75.8684H74.266V76.1171H71.6228V76.8632H73.3849ZM47.5702 63.9306V64.6767H48.8037V65.4725H55.9402V64.6767H57.3939V63.9306H60.9181V62.9358H61.5789V62.1896H57.8344V61.9409H62.6802V60.9461H59.3763V60.4487H60.0811V60.2H58.6714V59.7026H62.1075V59.2052H57.3499V58.2104H61.4908V57.4643H59.7728V56.7181H60.3014V56.2207H61.4908V55.972H60.8741V55.4746H60.6538V55.0269C60.6538 54.8611 60.6832 54.6788 60.7419 54.4798H66.4247C66.4834 54.3803 66.5421 54.2974 66.6009 54.2311C66.6596 54.1316 66.7183 54.0487 66.7771 53.9824H55.0591C55.206 54.115 55.3235 54.2808 55.4116 54.4798H52.5922C52.6509 54.5793 52.6803 54.7617 52.6803 55.0269V55.4746H52.8125V55.972H52.1957V56.2207H53.297V56.7181H54.09V57.4643H52.416V58.2104H49.6407V59.2052H51.1825V59.7026H52.46V60.2H53.297V60.4487H55.6759V60.9461H53.6935V61.9409H56.1164V62.1896H53.297V62.9358H52.8565V63.9306H47.5702ZM65.8079 77.6093V77.1119H62.3718V76.8632H60.6097V76.4155H53.4733V76.8632H58.0547V77.1119H48.6715V77.6093H58.6274V78.3554H65.6317V77.6093H65.8079ZM62.9445 79.3503H58.0988V78.6041H56.5129V78.3554H50.4777V78.6041H53.6495V79.3503H52.9887V79.8477H51.579V80.8425H51.1385V81.0912H53.2089V81.8373H54.4424V82.086H52.6803V82.8321H50.1693V83.8269H62.3278V82.8321H61.8873V82.086H61.7111V81.8373H57.3939V81.0912H60.3014V80.8425H60.4335V79.8477H62.9445V79.3503ZM98.4269 62.1896H91.2464V63.1845H94.1098V64.1793H97.8983V64.9254H93.6252V65.1741H94.1538V66.1689H93.0525V66.4176H92.9644V66.6663H91.8631V67.6611H93.9336V67.9098H94.0217V68.1585H93.5371V68.9047H93.2287V69.1534H94.6824V70.1482H91.1582V71.143H92.4358V71.8891H93.1406V72.8839H93.2287V73.8788H92.8763V75.1223H93.2728V75.6197H93.0085V76.3658H92.9644V76.6145H92.612V77.6093H93.0085V78.1067H92.9644V81.0912H93.0085V82.086H93.7573V83.0808H93.1406V83.5782H92.9644V84.0756H93.493V85.0705H92.7441V85.3192H93.8455V85.8166H94.2419V86.0653H93.8895V86.8114H93.7133V87.1596C93.7133 87.2259 93.6986 87.2922 93.6692 87.3585C93.6692 87.4249 93.6546 87.4912 93.6252 87.5575H92.5239C92.4945 87.7233 92.4064 87.8891 92.2596 88.0549H93.493C93.3756 88.1876 93.2875 88.2705 93.2287 88.3036H90.7177C90.5709 88.4363 90.3653 88.5026 90.101 88.5026H81.1143C80.85 88.5026 80.6444 88.4363 80.4976 88.3036H83.0086C82.8911 88.2705 82.803 88.1876 82.7442 88.0549H81.5108C81.3639 87.8891 81.2758 87.7233 81.2465 87.5575H82.3918C82.3625 87.458 82.3478 87.3254 82.3478 87.1596V86.8114H82.524V86.0653H82.8764V85.8166H82.4799V85.3192H81.3786V85.0705H82.1275V84.0756H81.5989V83.5782H81.7751V83.0808H82.3918V82.086H81.6429V81.0912H81.5989V78.1067H81.6429V77.6093H81.2465V76.6145H81.5989V76.3658H81.6429V75.6197H81.9072V75.1223H81.5108V73.8788H81.8632V72.8839H81.7751V71.8891H81.0702V71.143H79.7927V70.1482H83.3169V69.1534H81.8632V68.9047H82.1716V68.1585H82.6561V67.9098H82.568V67.6611H80.4976V66.6663H81.5989V66.4176H81.687V66.1689H82.7883V65.1741H82.2597V64.9254H86.5327V64.1793H82.7442V63.1845H79.8808V62.1896H87.0614V61.9409H82.568V61.1948H82.524V60.4487H81.731V60.2H84.4182V59.7026H82.3918V58.7078H82.568V57.9617H81.3346V56.9668H81.5548V56.4694H81.4227V55.972H81.7751V55.7233H81.3786V55.0269C81.3786 54.8611 81.408 54.6788 81.4667 54.4798H81.687C81.8926 53.9492 82.2597 53.6839 82.7883 53.6839H91.775C92.3036 53.6839 92.6707 53.9492 92.8763 54.4798H92.656C92.7148 54.6788 92.7441 54.8611 92.7441 55.0269V55.7233H93.1406V55.972H92.7882V56.4694H92.9203V56.9668H92.7001V57.9617H93.9336V58.7078H93.7573V59.7026H95.7838V60.2H93.0966V60.4487H93.8895V61.1948H93.9336V61.9409H98.4269V62.1896ZM130.284 83.5782H128.478L128.081 84.0756H134.822C134.792 84.1088 134.763 84.142 134.733 84.1751C134.704 84.2083 134.66 84.258 134.601 84.3243H124.205C124.058 84.4902 123.897 84.656 123.72 84.8218C123.573 84.9876 123.411 85.1534 123.235 85.3192H126.452L125.879 85.8166H131.87L131.518 86.0653H128.919C128.889 86.0984 128.83 86.1316 128.742 86.1648C128.684 86.1979 128.625 86.2477 128.566 86.314H125.615L124.381 87.0601H126.099C125.717 87.2591 125.335 87.4414 124.953 87.6072C124.572 87.7399 124.176 87.8891 123.764 88.0549H122.178C121.18 88.3865 120.093 88.6352 118.919 88.801H119.139C118.669 88.8674 118.184 88.9171 117.685 88.9502C117.185 88.9834 116.686 89 116.187 89C115.629 89 115.071 88.9834 114.513 88.9502C113.984 88.9171 113.47 88.8674 112.971 88.801H112.795C111.532 88.6352 110.401 88.3865 109.403 88.0549H110.989C110.548 87.8891 110.137 87.7399 109.755 87.6072C109.373 87.4414 108.992 87.2591 108.61 87.0601H106.892C106.686 86.9275 106.481 86.8114 106.275 86.7119C106.07 86.5793 105.864 86.4466 105.658 86.314H108.654L108.302 86.0653H110.901C110.871 85.999 110.827 85.9492 110.768 85.9161C110.71 85.8829 110.651 85.8497 110.592 85.8166H104.601C104.484 85.7502 104.381 85.6673 104.293 85.5679C104.205 85.4684 104.117 85.3855 104.028 85.3192H100.769C100.622 85.1534 100.475 84.9876 100.328 84.8218C100.152 84.656 99.9903 84.4902 99.8435 84.3243H110.24C110.21 84.258 110.181 84.2083 110.152 84.1751C110.122 84.142 110.093 84.1088 110.064 84.0756H103.324C103.206 83.943 103.089 83.7772 102.971 83.5782H104.777C104.748 83.5119 104.719 83.4622 104.689 83.429C104.66 83.3958 104.63 83.3627 104.601 83.3295H110.108L109.711 82.5834H106.98L106.848 82.3347H100.636C100.607 82.2021 100.563 82.086 100.504 81.9865C100.446 81.8539 100.387 81.7212 100.328 81.5886H103.28L103.015 80.8425H101.958L101.87 80.5938H102.354C102.325 80.4611 102.296 80.3451 102.266 80.2456C102.237 80.1129 102.208 79.9803 102.178 79.8477H101.826C101.826 79.715 101.811 79.599 101.782 79.4995C101.782 79.3668 101.767 79.2342 101.738 79.1015H101.385C101.385 78.9689 101.371 78.8528 101.341 78.7534C101.341 78.6539 101.341 78.5378 101.341 78.4052V78.3554H101.297C101.297 78.2891 101.297 78.2394 101.297 78.2062C101.327 78.1731 101.341 78.1399 101.341 78.1067H102.354C102.501 77.5762 102.81 77.3109 103.28 77.3109H111.65C112.119 77.3109 112.472 77.3772 112.707 77.5098C112.942 77.6425 113.206 77.8414 113.5 78.1067H112.487L112.531 78.1565C112.59 78.1896 112.633 78.2228 112.663 78.256C112.721 78.2891 112.766 78.3223 112.795 78.3554H112.839C113.221 78.687 113.691 78.9357 114.249 79.1015H114.645C115.027 79.2342 115.541 79.3005 116.187 79.3005C116.569 79.3005 116.921 79.2839 117.244 79.2508C117.567 79.2176 117.846 79.1679 118.081 79.1015H117.949C118.624 78.9357 119.051 78.687 119.227 78.3554H119.139C119.198 78.2228 119.227 78.1399 119.227 78.1067H119.667L119.711 77.9078C119.711 77.6093 119.608 77.344 119.403 77.1119H119.051C118.786 76.8135 118.316 76.5648 117.641 76.3658H117.509C117.245 76.2663 116.936 76.1834 116.584 76.1171C116.231 76.0176 115.82 75.9347 115.35 75.8684H115.086L113.279 75.5699C113.074 75.5368 112.868 75.5036 112.663 75.4705C112.486 75.4373 112.296 75.4041 112.09 75.371C110.886 75.1389 109.726 74.8072 108.61 74.3762H107.817C107.406 74.2103 107.024 74.0446 106.672 73.8788H106.055C105.908 73.8124 105.761 73.7461 105.614 73.6798C105.467 73.5803 105.321 73.4808 105.174 73.3813H101.341C101.136 73.2487 100.945 73.1326 100.769 73.0331C100.592 72.9005 100.416 72.7679 100.24 72.6352H108.434C108.287 72.5026 108.14 72.3865 107.993 72.287C107.876 72.1544 107.744 72.0218 107.597 71.8891H98.8303C98.7421 71.8228 98.6687 71.7399 98.61 71.6404C98.5219 71.5409 98.4485 71.458 98.3897 71.3917H100.68C100.416 71.0601 100.167 70.7285 99.9316 70.3969H100.592L100.328 69.8995H96.099C96.0696 69.8332 96.0403 69.7834 96.0109 69.7503C95.9815 69.7171 95.9669 69.6839 95.9669 69.6508H106.011C105.952 69.5181 105.893 69.4021 105.835 69.3026C105.776 69.1699 105.717 69.0373 105.658 68.9047H97.9492L97.6849 68.1585H103.896L103.808 67.9098H101.958L101.87 67.6611H102.751C102.751 67.5948 102.736 67.5451 102.707 67.5119C102.707 67.4788 102.707 67.4456 102.707 67.4124H102.531L102.398 66.915H102.134L102.09 66.4176H102.002V66.1689H100.592C100.563 66.1026 100.548 66.0197 100.548 65.9202C100.548 65.8207 100.548 65.7378 100.548 65.6715H99.2708L99.2267 65.1741H104.249C104.219 65.1078 104.205 65.0249 104.205 64.9254C104.205 64.8259 104.205 64.743 104.205 64.6767H104.909V64.6269C104.909 64.4611 104.909 64.2953 104.909 64.1295C104.909 63.9637 104.924 63.8145 104.954 63.6819H103.059C103.089 63.5492 103.103 63.4332 103.103 63.3337C103.103 63.201 103.118 63.0684 103.147 62.9358H106.231C106.231 62.8694 106.231 62.8197 106.231 62.7865C106.26 62.7534 106.275 62.7202 106.275 62.6871H103.147C103.206 62.4881 103.235 62.3223 103.235 62.1896H102.751L102.883 61.6922H102.134C102.222 61.3275 102.325 60.9959 102.443 60.6974H102.795L102.971 60.2H103.456L103.852 59.4539H103.412C103.5 59.3212 103.573 59.2052 103.632 59.1057C103.72 58.9731 103.793 58.8404 103.852 58.7078H103.5L104.028 57.9617H104.954C104.983 57.8953 105.012 57.8456 105.042 57.8124C105.071 57.7793 105.1 57.7461 105.13 57.713H103.896C104.014 57.5803 104.131 57.4643 104.249 57.3648C104.366 57.2321 104.484 57.0995 104.601 56.9668H105.306C105.482 56.801 105.658 56.6352 105.835 56.4694C106.011 56.2705 106.202 56.1047 106.407 55.972H107.2C107.376 55.8394 107.553 55.7233 107.729 55.6238C107.905 55.4912 108.096 55.3586 108.302 55.2259H108.169C108.228 55.1596 108.302 55.1098 108.39 55.0767C108.478 55.0435 108.551 55.0104 108.61 54.9772H107.993C108.052 54.9109 108.125 54.8611 108.213 54.828C108.302 54.7948 108.39 54.7617 108.478 54.7285H108.037C108.448 54.5295 108.874 54.3472 109.315 54.1814C109.785 54.0155 110.255 53.8663 110.724 53.7337H111.385C112.061 53.5679 112.765 53.4352 113.5 53.3358C114.263 53.2363 115.056 53.1865 115.879 53.1865C117.436 53.1865 118.904 53.3689 120.284 53.7337H119.667C120.607 53.9658 121.518 54.2974 122.399 54.7285H122.795C122.883 54.7617 122.971 54.7948 123.059 54.828C123.148 54.8611 123.235 54.9109 123.323 54.9772H123.94C123.999 55.0104 124.073 55.0435 124.161 55.0767C124.249 55.1098 124.322 55.1596 124.381 55.2259H124.513C124.719 55.3586 124.91 55.4912 125.085 55.6238C125.292 55.7233 125.482 55.8394 125.659 55.972H124.909C125.144 56.1047 125.35 56.2705 125.526 56.4694C125.732 56.6352 125.923 56.801 126.099 56.9668H125.438L126.143 57.713H127.376L127.596 57.9617H126.672C126.789 58.0943 126.892 58.2269 126.98 58.3596C127.097 58.4591 127.2 58.5751 127.289 58.7078H127.641L128.169 59.4539H128.566L128.962 60.2H128.478C128.566 60.3658 128.639 60.5316 128.698 60.6974H128.345C128.434 60.8632 128.507 61.029 128.566 61.1948C128.625 61.3606 128.684 61.5264 128.742 61.6922H129.491C129.55 61.8912 129.579 62.057 129.579 62.1896H130.108C130.137 62.256 130.152 62.3389 130.152 62.4383C130.152 62.5378 130.166 62.6207 130.196 62.6871H133.324V62.9358H130.504C130.534 63.0684 130.548 63.2508 130.548 63.4829V63.6819H128.919C128.801 64.2788 128.507 64.5772 128.037 64.5772H119.227C118.815 64.5772 118.478 64.5109 118.214 64.3782C117.978 64.2456 117.729 64.0466 117.464 63.7814L117.332 63.6819H118.962C118.815 63.5492 118.61 63.4166 118.345 63.2839C118.081 63.1181 117.743 63.0021 117.332 62.9358H115.746C115.13 63.0352 114.704 63.2839 114.469 63.6819H116.363C116.275 63.8808 116.231 64.0798 116.231 64.2788C116.231 64.4446 116.246 64.5772 116.275 64.6767H115.614C115.644 64.8425 115.761 65.0083 115.967 65.1741H110.989C111.165 65.3399 111.473 65.5057 111.914 65.6715H113.191C113.426 65.771 113.705 65.8705 114.028 65.97C114.381 66.0363 114.748 66.1026 115.13 66.1689H116.539C116.774 66.2021 117.024 66.2352 117.288 66.2684C117.553 66.3016 117.832 66.3513 118.126 66.4176H118.169C118.669 66.4839 119.153 66.5668 119.623 66.6663C120.093 66.7326 120.533 66.8155 120.945 66.915H121.209C121.561 66.9814 121.884 67.0643 122.178 67.1637C122.501 67.2301 122.809 67.313 123.103 67.4124H123.279C123.426 67.4456 123.558 67.4788 123.676 67.5119C123.793 67.5451 123.911 67.5948 124.029 67.6611H123.192C123.309 67.6943 123.412 67.7275 123.5 67.7606C123.617 67.7938 123.735 67.8435 123.852 67.9098H125.702C125.791 67.943 125.879 67.9762 125.967 68.0093C126.084 68.0425 126.187 68.0922 126.275 68.1585H120.064C120.651 68.4238 121.121 68.6725 121.474 68.9047H129.182C129.359 69.0373 129.535 69.1699 129.711 69.3026C129.888 69.4021 130.049 69.5181 130.196 69.6508H120.152C120.211 69.6839 120.27 69.7171 120.328 69.7503C120.387 69.7834 120.431 69.8332 120.46 69.8995H124.689C124.778 69.9658 124.865 70.0487 124.953 70.1482C125.041 70.2477 125.115 70.3306 125.174 70.3969H124.513C124.806 70.6953 125.056 71.0269 125.262 71.3917H122.971C123.03 71.458 123.089 71.5409 123.148 71.6404C123.206 71.7399 123.25 71.8228 123.279 71.8891H132.002L132.399 72.6352H124.205C124.263 72.7679 124.322 72.9005 124.381 73.0331C124.44 73.1326 124.483 73.2487 124.513 73.3813H128.302L128.434 73.8788H129.051L129.182 74.3762H129.975C130.035 74.5088 130.064 74.6746 130.064 74.8736C130.093 75.0394 130.123 75.2052 130.152 75.371L130.196 75.8684H130.46C130.49 75.9347 130.504 76.0176 130.504 76.1171C130.504 76.2166 130.504 76.2995 130.504 76.3658H130.636V77.1119H131.033V77.2611C131.033 77.3938 131.018 77.5264 130.989 77.6591C130.989 77.7917 130.989 77.9409 130.989 78.1067H130.548V78.3554H130.636C130.636 78.4881 130.621 78.6207 130.592 78.7534C130.592 78.8528 130.577 78.9689 130.548 79.1015H130.681L130.548 79.8477H130.901C130.871 79.9803 130.842 80.1129 130.812 80.2456C130.783 80.3451 130.739 80.4611 130.681 80.5938H130.196C130.196 80.6269 130.181 80.6601 130.152 80.6933C130.152 80.7264 130.152 80.7762 130.152 80.8425H131.209L130.945 81.5886H127.993C127.964 81.7212 127.905 81.8539 127.817 81.9865C127.758 82.086 127.7 82.2021 127.641 82.3347H133.852L133.72 82.5834H136.407C136.349 82.7161 136.275 82.8487 136.187 82.9813C136.128 83.0808 136.055 83.1969 135.967 83.3295H130.46C130.431 83.3627 130.401 83.3958 130.372 83.429C130.343 83.4622 130.314 83.5119 130.284 83.5782ZM118.83 62.9358H120.152C120.064 62.9026 119.961 62.886 119.844 62.886C119.755 62.886 119.652 62.886 119.535 62.886C119.418 62.886 119.3 62.886 119.182 62.886C119.065 62.886 118.948 62.9026 118.83 62.9358Z" fill="#DE5609"/>
</svg>
