<svg width="265" height="84" viewBox="0 0 265 84" fill="none" xmlns="http://www.w3.org/2000/svg">
<path d="M35.1543 14.7233L35.0221 15.4694H42.2908L42.2027 15.9668H35.5067L35.4627 16.2155H38.238L38.1058 17.2104H39.0309L38.9428 17.9565H39.4714L39.3393 18.7026H39.3833L39.2952 19.4487H39.4714V19.6974H39.3833L39.2512 20.6922H39.119L38.9869 21.687L38.8988 22.6819H39.7358L39.6917 22.9306H39.2071V23.1793H40.0882V23.428H38.6785L38.6344 23.6767H38.1499L38.0618 24.4228H39.5155L39.3833 25.4176H41.0573L40.9692 26.1637H39.6477L39.6036 26.4124H38.9428L38.8107 27.4073H39.1631L39.119 27.9047H39.5155L39.4274 28.6508H38.7666L38.6785 29.3969H37.2248L37.1807 29.8943H38.6785L38.5463 30.8891H37.5772L37.4891 31.8839H38.3701L38.282 32.6301H34.89L34.8019 33.1275H36.0794L36.0354 33.4259V33.6249H37.2248C37.1954 33.6912 37.166 33.7741 37.1367 33.8736C37.1367 33.9731 37.1073 34.056 37.0486 34.1223H36.564C36.4171 34.4207 36.2262 34.6694 35.9913 34.8684H36.3878C36.2116 35.001 36.0794 35.0839 35.9913 35.1171H36.3437C36.1088 35.2497 35.8151 35.3161 35.4627 35.3161H29.1632C28.987 35.3161 28.8254 35.2995 28.6786 35.2663C28.5611 35.2 28.4437 35.1503 28.3262 35.1171H27.9738C27.8857 35.0839 27.8122 35.0508 27.7535 35.0176C27.6948 34.9513 27.636 34.9016 27.5773 34.8684H27.2249C27.1074 34.7357 27.0046 34.6031 26.9165 34.4705C26.8284 34.3378 26.755 34.2218 26.6962 34.1223H27.1808C27.1515 34.0891 27.1368 34.0394 27.1368 33.9731L27.0046 33.6249H25.8152L25.639 33.1275H24.3615L24.1853 32.6301H27.5773L27.313 31.8839H26.3879L26.0355 30.8891H27.0046L26.6522 29.8943H25.1544L24.9782 29.3969H26.3879L26.1236 28.6508H26.7844L26.52 27.9047H26.1236L25.9474 27.4073H25.5949L25.2425 26.4124H25.9033L25.8152 26.1637H27.1368L26.8725 25.4176H25.1985L24.846 24.4228H23.3923L23.1721 23.7762L22.9518 24.4228H22.7756L22.4232 25.4176H25.1544L24.8901 26.1637H22.7315L22.6434 26.4124H23.0399L22.6875 27.4073H23.4804L23.3042 27.9047H21.1016L20.8373 28.6508H22.0267L21.7624 29.3969H20.3086L20.1324 29.8943H20.8373L20.4849 30.8891H20.5289L20.1765 31.8839H17.269L17.0047 32.6301H21.6302L21.454 33.1275H20.4849L20.3086 33.6249H20.2205L20.0884 33.9731L20.0003 34.1223H18.6347C18.5759 34.2218 18.5025 34.3378 18.4144 34.4705C18.3557 34.6031 18.2529 34.7357 18.106 34.8684H18.3703C18.2822 34.9679 18.1648 35.0508 18.0179 35.1171H19.2073C19.0899 35.1503 18.9577 35.2 18.8109 35.2663C18.664 35.2995 18.5025 35.3161 18.3263 35.3161H12.0268C11.6744 35.3161 11.3807 35.2497 11.1457 35.1171H10.0004C9.91228 35.0839 9.78012 35.001 9.60391 34.8684H9.29555C9.03123 34.6363 8.84034 34.3876 8.72286 34.1223H10.1325C10.1032 34.056 10.0738 33.9731 10.0444 33.8736C10.0151 33.7741 9.9857 33.6912 9.95633 33.6249H10.0885L10.0444 33.4259L10.0004 33.1275H10.9695L10.8814 32.6301H6.29998L6.21188 31.8839H9.07528L8.98718 30.8891H8.94313L8.81097 29.8943H8.10613L8.06208 29.3969H9.47176L9.38365 28.6508H8.23829L8.15018 27.9047H10.3528L10.2647 27.4073H9.47176L9.3396 26.4124H8.94313L8.89907 26.1637H11.0576L10.9695 25.4176H8.23829L8.10613 24.4228H8.28234L8.15018 23.6767H8.63476V23.428H10.0444L10.0004 23.1793H9.07528L9.03123 22.9306H9.51581V22.6819H8.63476L8.59071 22.1845H8.54665L8.5026 21.687L8.37045 20.6922H8.5026L8.37045 19.6974H8.45855L8.4145 19.4487H8.23829L8.15018 18.7026H8.10613L8.01803 17.9565H7.4894L7.40129 17.2104H6.47619L6.34404 16.2155H3.56873V15.9668H10.2647L10.2206 15.4694H7.5775L7.4894 14.7233H4.7141L4.67004 14.2259H8.67881L8.54665 13.2311H7.4894V12.9824H8.10613L8.06208 12.7337H8.98718L8.89907 11.9876H7.40129L7.35724 11.7389H3.92115L3.83305 10.744H7.66561L7.53345 9.74922H6.5643L6.52024 9.25181H6.91672L6.82861 8.5057H6.96077L6.91672 8.257H5.55109L5.50704 7.75959H6.43214L6.34404 7.01347H6.43214L6.34404 6.26736H7.09293L7.00482 5.76995H4.62599L4.58194 5.27254H6.47619L6.43214 4.77513H5.33083L5.28678 4.27772H6.6524L6.5643 3.5316H6.12377L5.99162 2.53679H6.47619L6.43214 2.28808L6.34404 1.74093V1.54197H5.68325C5.74199 0.845598 6.06504 0.497411 6.6524 0.497411H14.8461C15.7566 0.497411 16.2705 0.845598 16.388 1.54197H17.0488C17.0781 1.60829 17.0928 1.70777 17.0928 1.84042L17.1369 2.28808L17.1809 2.53679H16.7404L16.8285 3.5316H17.269L17.3571 4.27772H15.9475L16.0356 4.77513H17.0928L17.1369 5.27254H15.2426L15.2867 5.76995H17.6655L17.7536 6.26736H17.0047L17.0488 7.01347H17.0047L17.0488 7.75959H16.0796L16.1677 8.257H17.4893L17.5333 8.5057H17.4012L17.4893 9.25181H17.0928L17.1369 9.74922H18.106L18.2382 10.744H14.3616L14.4497 11.7389H17.8858L17.9298 11.9876H19.4276L19.5157 12.7337H18.5906V12.9824H17.9739L18.0179 13.2311H18.943L19.0311 12.9824H19.4717L19.5598 12.7337H21.41L21.6302 11.9876H19.6038L19.6479 11.7389H23.0399L23.3483 10.744H19.78L20.0443 9.74922H19.6479V9.64974L19.78 9.25181H20.617C20.6758 9.11917 20.7345 8.98653 20.7932 8.85389C20.8813 8.72124 20.9841 8.60518 21.1016 8.5057H20.8373C20.9841 8.37306 21.1456 8.29016 21.3219 8.257H21.7183C21.8064 8.22383 21.9386 8.20726 22.1148 8.20726H26.6081C26.7843 8.20726 26.9018 8.22383 26.9606 8.257H26.5641C26.6816 8.29016 26.7697 8.32332 26.8284 8.35648C26.9165 8.38964 26.9899 8.43938 27.0487 8.5057H27.313C27.4598 8.60518 27.5626 8.72124 27.6213 8.85389C27.7094 8.98653 27.7682 9.11917 27.7976 9.25181H27.0046C27.0927 9.38446 27.1368 9.5171 27.1368 9.64974L27.1808 9.74922H27.6213L27.8857 10.744H29.6037L29.7359 9.74922H29.4715L29.5156 9.25181H31.5861L31.6301 8.5057H29.6918L29.7359 8.257H29.3834L29.4715 7.75959H30.2204L30.3085 7.01347H30.0442L30.1323 6.26736H30.7491L30.7931 5.76995H28.1059L28.15 5.27254H28.9429L28.987 4.77513H30.4848L30.5288 4.27772H30.4848L30.5729 3.5316L30.661 2.53679H29.7799L29.824 2.28808H30.8812L30.9693 1.84042V1.54197H31.8063C31.9238 0.845598 32.4377 0.497411 33.3482 0.497411H41.5419C41.7769 0.497411 41.9824 0.596893 42.1586 0.795857C42.3642 0.994821 42.4817 1.24353 42.5111 1.54197H41.7181V1.74093L41.63 2.28808H40.5287L40.4846 2.53679H41.4097L41.2776 3.5316L41.1895 4.27772H41.2335L41.1454 4.77513H39.6477L39.6036 5.27254H38.8107L38.7225 5.76995H41.4538L41.4097 6.26736H40.793L40.7049 7.01347H40.9252L40.8371 7.75959H40.0882L40.0001 8.257H40.3525L40.3084 8.5057H42.2467L42.1586 9.25181H40.1322L40.0441 9.74922H40.3084L40.1763 10.744H38.5904L38.4582 11.7389H40.3965L40.3525 11.9876H38.1058L38.0177 12.7337H40.0882V12.9824H39.956L39.912 13.2311H40.0441L39.912 14.2259H40.6168L40.5287 14.7233H35.1543ZM29.868 11.7389H28.3702L28.4143 11.9876H29.824L29.868 11.7389ZM28.8108 12.7337L28.8989 12.9824H28.4583L28.5464 13.2311L28.8548 14.2259H24.0972L24.2293 14.7233H30.0883L30.1323 14.2259H29.4275L29.5597 13.2311H29.4275L29.4715 12.9824H29.5597L29.6037 12.7337H28.8108ZM20.7932 15.4694H20.6611L20.7051 15.8674L20.7932 15.4694ZM31.8063 15.8176L31.8504 15.4694H31.6742L31.8063 15.8176ZM80.3599 32.6301L80.6682 33.6249H79.9194L80.0075 33.8736C80.0075 33.9067 80.0075 33.9565 80.0075 34.0228C80.0368 34.056 80.0515 34.0891 80.0515 34.1223H79.7872V34.2218C79.7872 34.6197 79.655 34.9181 79.3907 35.1171H79.4348C79.2879 35.2497 79.097 35.3161 78.8621 35.3161H70.7124C70.5068 35.3161 70.3306 35.2995 70.1838 35.2663C70.0663 35.2 69.9341 35.1503 69.7873 35.1171C69.5524 34.9845 69.3761 34.8352 69.2587 34.6694C69.1412 34.4705 69.0531 34.2881 68.9944 34.1223H69.2146V34.0725L69.1265 33.8736L69.0384 33.6249H69.7873L69.4789 32.6301H68.6419L68.5098 32.1326H70.3159L70.0076 31.1378H69.4789L69.3468 30.7896H59.8755L59.7874 31.1378H59.2588L58.9504 32.1326H58.4658L58.2896 32.6301H58.0253L57.7169 33.6249H57.761L57.6729 33.8736L57.6288 34.0725L57.5848 34.1223H57.3645C57.3058 34.2881 57.2177 34.4705 57.1002 34.6694C56.9827 34.8352 56.8065 34.9845 56.5716 35.1171H57.8931C57.7757 35.1503 57.6435 35.2 57.4967 35.2663C57.3498 35.2995 57.1736 35.3161 56.968 35.3161H48.8183C48.5834 35.3161 48.4072 35.2497 48.2897 35.1171H46.9682C46.6745 34.885 46.5276 34.5865 46.5276 34.2218V34.1223H46.7919C46.7919 34.0228 46.8066 33.9399 46.836 33.8736L46.88 33.6249H46.836L47.1444 32.6301H47.4087L47.5849 32.1326H48.0695L48.3778 31.1378H48.8624L49.1708 30.143H47.4527L47.6289 29.6456H47.4968L47.717 28.8995H48.1576L48.2457 28.6508H47.2765L47.5849 27.656H49.0827L49.2148 27.1585H47.8492L47.9373 26.9098H48.1576L48.4659 25.915H48.3338L48.554 25.1689H48.7302L49.0386 24.1741H49.6113L49.8316 23.428L49.9197 23.1793H52.1223L52.2104 22.9306H52.0782L52.2985 22.1845H49.8316L50.1399 21.1896H50.9329L51.021 20.9409H50.5364L50.6245 20.6922H52.0342L52.3425 19.6974H50.6245L50.8007 19.2H51.4615L51.7699 18.2052H51.3734L51.5937 17.4591H52.0782L52.3866 16.4642H52.2544L52.3425 16.2155H51.3293L51.5055 15.7181H52.4747L52.695 14.972H52.2544L52.2985 14.7233H53.0914L53.3998 13.7285H52.4306L52.6509 12.9824H52.1663L52.2985 12.485H49.2589L49.391 11.9876H48.8183L49.1267 10.9927H48.554L48.8183 10.2466H50.5364L50.8448 9.25181H55.25L55.4703 8.5057H53.3557L53.532 8.00829H55.1619L55.4703 7.01347H54.0165L54.2368 6.26736H55.1619L55.4703 5.27254H55.3381L55.6465 4.27772H54.413L54.4571 4.02902H58.6861L58.9945 3.0342H58.8623L58.9504 2.78549H57.4086L57.5848 2.13886L57.7169 1.79068H58.1575L58.4218 1.29327H58.2896C58.4365 1.06114 58.642 0.878758 58.9064 0.746111C59.1707 0.580313 59.4937 0.497411 59.8755 0.497411H69.4349C69.8167 0.497411 70.1397 0.580313 70.404 0.746111C70.6683 0.878758 70.8739 1.06114 71.0208 1.29327H71.197L71.4613 1.79068H71.0208C71.0795 1.92332 71.1089 2.03938 71.1089 2.13886L71.3291 2.78549H72.871L72.915 3.0342H73.0472L73.3555 4.02902H69.1706L69.2587 4.27772H70.4921L70.8005 5.27254H70.9327L71.241 6.26736H70.3159L70.5362 7.01347H71.9899L72.2983 8.00829H70.6684L70.8446 8.5057H72.9591L73.1793 9.25181H68.7741L69.0825 10.2466H67.3644L67.5847 10.9927H68.1133L68.4217 11.9876H66.7036L66.8798 12.485H73.8842L74.0163 12.9824H73.6639L73.8842 13.7285H73.0031L73.3115 14.7233H72.2542L72.2983 14.972H73.8842L74.1044 15.7181H74.1485L74.3247 16.2155H72.871L72.9591 16.4642H74.3687L74.6771 17.4591H75.1617L75.382 18.2052H75.2498L75.5582 19.2H76.263L76.4392 19.6974H75.1617L75.4701 20.6922H76.3511L76.3952 20.9409H76.1749L76.263 21.1896H75.4701L75.7344 22.1845H78.2454L78.4656 22.9306H78.5978L78.6859 23.1793H76.4392L76.5273 23.428H76.5714L76.7916 24.1741H76.2189L76.5273 25.1689H76.3071L76.5714 25.915H76.7035L77.0119 26.9098H76.7916L76.8797 27.1585H78.2454L78.4216 27.656H76.8797L77.1881 28.6508H78.1572L78.2454 28.8995H77.8048L78.0692 29.6456H78.1572L78.3335 30.143H80.0515L80.3599 31.1378H80.8885L81.1969 32.1326H79.3907L79.5229 32.6301H80.3599ZM61.946 12.9824H62.4746L62.2543 13.7285H64.0605L63.8402 12.9824H64.1926L64.0605 12.485H62.0781L61.946 12.9824ZM63.3997 14.7233L63.1794 13.8777L62.9592 14.7233H63.3997ZM60.7566 20.6922L60.6684 20.9409H61.153L61.109 21.0902H66.0869L66.0428 20.9409H66.2631L66.2191 20.6922H65.338L65.0737 19.6974H66.3512L66.2191 19.2H65.4702L65.2058 18.2052H65.338L65.1618 17.4591H64.6772L64.4129 16.4642H63.0032L62.9151 16.2155H64.3689L64.2367 15.7181H64.1926L63.9724 14.972H62.5627L62.3865 15.7181H61.4173L61.2852 16.2155H62.2543L62.2103 16.4642H62.3424L62.0781 17.4591H61.5936L61.3733 18.2052H61.7698L61.5054 19.2H60.8447L60.7125 19.6974H62.4305L62.1662 20.6922H60.7566ZM113.555 5.02384H105.361V6.01865H108.489V6.76477H111.881V7.51088H111.793V8.257H113.071V9.25181H108.269V9.50052H107.344V9.84871C107.344 10.0808 107.3 10.2964 107.212 10.4953H110.339C110.134 10.9596 109.796 11.1917 109.326 11.1917H102.013V11.2415H102.454V12.2363H102.542V13.2311H102.322V14.2259H101.749V14.972H103.952V15.4694H102.102V16.2155H101.132V17.2104H102.806V17.7078H102.498V18.7026H102.19V19.6974H101.661V20.6922H101.176V21.4383H102.806V22.1845H102.146V23.1793H102.41V23.428H102.718V23.9254H104.921V24.6715H103.423V25.6663H104.084V26.6611H102.234V27.656H102.983V28.1534H103.291V28.8995H103.996V29.8943H103.732V30.6404H102.586V31.3865H102.454V31.8839H102.41V32.6301H102.895V33.3762H102.498V33.9731C102.498 34.1389 102.483 34.2715 102.454 34.371H102.013C101.925 34.7026 101.764 34.9513 101.529 35.1171H101.617C101.47 35.2497 101.265 35.3161 101 35.3161H92.1898C91.9548 35.3161 91.7346 35.2497 91.529 35.1171H91.4409C91.2353 34.9513 91.0738 34.7026 90.9563 34.371H91.3528C91.3234 34.2715 91.3087 34.1389 91.3087 33.9731V33.3762H91.7052V32.6301H91.2206V31.8839H91.2647V31.3865H91.3968V30.6404H92.5422V29.8943H92.8065V28.8995H92.1017V28.1534H91.7933V27.656H91.0444V26.6611H92.8946V25.6663H92.2338V24.6715H93.7316V23.9254H91.529V23.428H91.2206V23.1793H90.9563V22.1845H91.6171V21.4383H89.9872V20.6922H90.4717V19.6974H91.0004V18.7026H91.3087V17.7078H91.6171V17.2104H89.9431V16.2155H90.9123V15.4694H92.7625V14.972H90.5598V14.2259H91.1325V13.2311H91.3528V12.2363H91.2647V11.2415H90.8242V11.1917H83.5115C83.0709 11.1917 82.7185 10.9596 82.4542 10.4953H79.3265C79.2971 10.3959 79.2677 10.2964 79.2384 10.1969C79.1796 10.0974 79.1503 9.98135 79.1503 9.84871V9.50052H80.0754V9.25181H84.8771V8.257H83.5996V7.51088H83.6877V6.76477H80.2956V6.01865H77.1679V5.02384H85.3617V4.27772H80.7802V3.2829H81.6613V2.28808H82.8066V2.03938H83.4674V1.84042C83.4674 1.50881 83.5555 1.24353 83.7317 1.04456H82.7626C82.9975 0.679795 83.3206 0.497411 83.7317 0.497411H109.546C109.958 0.497411 110.281 0.679795 110.516 1.04456H111.441C111.588 1.27669 111.661 1.54197 111.661 1.84042V2.03938H111V2.28808H109.855V3.2829H108.974V4.27772H113.555V5.02384ZM153.951 11.4902V11.7389H152.894C152.923 11.9047 152.938 12.0705 152.938 12.2363C152.938 12.4021 152.938 12.5679 152.938 12.7337H145.228C145.228 13.1648 145.038 13.4964 144.656 13.7285C144.48 13.7948 144.347 13.828 144.259 13.828H135.273C135.155 13.828 135.038 13.828 134.92 13.828C134.803 13.7948 134.685 13.7617 134.568 13.7285H127.387V13.9772H131.264C131.234 14.143 131.22 14.3088 131.22 14.4746C131.22 14.6404 131.22 14.8062 131.22 14.972H129.678C129.649 15.0383 129.634 15.1212 129.634 15.2207C129.634 15.3202 129.634 15.4031 129.634 15.4694H129.766V15.9668H129.105V16.9617H131.22V17.2104H124.083V17.7078H126.33V18.7026H130.867V18.9513H129.017V19.2H127.828V20.1948H131.22C131.249 20.3275 131.264 20.4601 131.264 20.5927C131.264 20.6922 131.264 20.8083 131.264 20.9409H132.497V21.1896H126.815V21.687H125.537V21.9357H131.264V21.9855H140.074C140.632 21.9855 140.955 22.3005 141.043 22.9306H147.563V23.6767H147.255L147.167 24.6715H146.682L146.638 25.1689H147.783C147.783 25.2684 147.769 25.3513 147.739 25.4176H147.475C147.446 25.4839 147.431 25.5668 147.431 25.6663H148.885L148.753 26.4124H147.387C147.387 26.4456 147.372 26.4788 147.343 26.5119C147.343 26.5451 147.343 26.5948 147.343 26.6611H146.991C146.961 26.7938 146.917 26.9264 146.858 27.0591C146.829 27.1585 146.8 27.2746 146.77 27.4073H147.299C147.299 27.4404 147.27 27.5233 147.211 27.656H146.33C146.271 27.8218 146.198 27.9876 146.109 28.1534C146.051 28.3192 145.977 28.485 145.889 28.6508H146.77L146.374 29.3969H146.77L146.33 30.143H146.065C145.948 30.3088 145.816 30.4746 145.669 30.6404C145.551 30.8062 145.419 30.972 145.272 31.1378H144.92C144.891 31.171 144.861 31.2041 144.832 31.2373C144.803 31.2705 144.759 31.3202 144.7 31.3865H142.806L142.585 31.6352H151.44C151.264 31.801 151.087 31.9668 150.911 32.1326C150.735 32.2984 150.544 32.4642 150.338 32.6301H149.854C149.56 32.8622 149.208 33.1109 148.797 33.3762H139.502C139.208 33.5751 138.9 33.7575 138.577 33.9233C138.253 34.056 137.93 34.2052 137.607 34.371H144.876C144.788 34.4041 144.685 34.4373 144.568 34.4705C144.48 34.5036 144.377 34.5534 144.259 34.6197H142.497C142.38 34.6528 142.262 34.686 142.145 34.7192C142.027 34.7523 141.91 34.8021 141.792 34.8684H138.621C137.563 35.2 136.477 35.4487 135.361 35.6145H136.066C135.596 35.6808 135.111 35.7306 134.612 35.7637C134.113 35.7969 133.613 35.8135 133.114 35.8135C132.556 35.8135 132.013 35.7969 131.484 35.7637C130.985 35.7306 130.486 35.6808 129.986 35.6145H129.281C128.107 35.4487 127.02 35.2 126.022 34.8684H129.193C129.076 34.8021 128.958 34.7523 128.841 34.7192C128.753 34.686 128.65 34.6528 128.533 34.6197H130.339L129.722 34.371H122.453C122.16 34.2052 121.851 34.056 121.528 33.9233C121.235 33.7575 120.941 33.5751 120.647 33.3762H129.986C129.81 33.2435 129.634 33.1275 129.458 33.028C129.281 32.8953 129.12 32.7627 128.973 32.6301H129.458C129.105 32.3316 128.768 32 128.444 31.6352H119.546C119.516 31.5689 119.487 31.5192 119.458 31.486C119.428 31.4528 119.384 31.4197 119.326 31.3865H121.264C121.235 31.3202 121.19 31.2705 121.132 31.2373C121.102 31.2041 121.073 31.171 121.044 31.1378H121.396C121.132 30.8062 120.882 30.4746 120.647 30.143H120.911L120.515 29.3969H120.119L119.722 28.6508H118.841L118.445 27.656H119.37L119.282 27.4073H118.709C118.68 27.2746 118.65 27.1585 118.621 27.0591C118.591 26.9264 118.547 26.7938 118.489 26.6611H118.841L118.753 26.4124H120.119C120.089 26.2798 120.06 26.1637 120.03 26.0642C120.001 25.9316 119.972 25.799 119.942 25.6663H119.237C119.208 25.6 119.193 25.5171 119.193 25.4176H118.445C118.415 25.3513 118.401 25.2684 118.401 25.1689H118.445C118.445 25.0363 118.415 24.8705 118.356 24.6715H115.845L115.713 23.6767H119.105C119.076 23.544 119.061 23.428 119.061 23.3285C119.061 23.1959 119.047 23.0632 119.017 22.9306H119.854C119.854 22.8311 119.854 22.7316 119.854 22.6321C119.854 22.5326 119.84 22.4332 119.81 22.3337V21.9357H114.083V21.687H115.361V21.1896H121.044V20.9409H119.81C119.81 20.8083 119.795 20.6922 119.766 20.5927C119.766 20.4601 119.766 20.3275 119.766 20.1948H116.374V19.2H117.564V18.9513H119.414V18.7026H114.876V17.7078H112.63V17.2104H119.766V16.9617H117.652V15.9668H118.312V15.4694H118.18V14.972H119.766V13.9772H115.934V13.7285H124.392V13.4798C124.421 13.3472 124.436 13.2311 124.436 13.1316C124.436 12.999 124.436 12.8663 124.436 12.7337H122.101C122.101 12.5679 122.101 12.4021 122.101 12.2363C122.13 12.0705 122.16 11.9047 122.189 11.7389H123.599C123.628 11.6725 123.643 11.5896 123.643 11.4902H114.524C114.553 11.4238 114.568 11.3409 114.568 11.2415C114.568 11.142 114.583 11.0591 114.612 10.9927H122.63L122.85 9.99793H121.044L121.176 9.50052H118.224L118.312 9.25181H119.282C119.311 9.18549 119.34 9.10259 119.37 9.00311C119.399 8.90363 119.428 8.82073 119.458 8.75441H118.973L119.149 8.257H119.37C119.428 8.12435 119.487 8.00829 119.546 7.90881C119.605 7.77617 119.649 7.64352 119.678 7.51088H119.722L120.119 6.76477H119.986C120.045 6.63213 120.104 6.51606 120.163 6.41658C120.251 6.28394 120.339 6.1513 120.427 6.01865H120.074C120.192 5.85285 120.309 5.68705 120.427 5.52125C120.544 5.32228 120.662 5.15648 120.779 5.02384H120.383C120.412 4.95751 120.442 4.90777 120.471 4.87461C120.5 4.84145 120.53 4.80829 120.559 4.77513H120.119L120.339 4.52643H120.251C120.309 4.4601 120.353 4.41036 120.383 4.3772C120.412 4.34404 120.442 4.31088 120.471 4.27772H119.678C119.737 4.2114 119.81 4.1285 119.898 4.02902C119.986 3.92954 120.075 3.84663 120.163 3.78031H121.22C121.367 3.64767 121.514 3.53161 121.66 3.43213C121.807 3.29948 121.954 3.16684 122.101 3.0342H121.616L121.969 2.78549H121.22C121.279 2.71917 121.337 2.66943 121.396 2.63627C121.455 2.60311 121.514 2.56995 121.572 2.53679H123.863C124.069 2.40415 124.274 2.28808 124.48 2.1886C124.685 2.05596 124.891 1.92332 125.096 1.79068H124.964C125.141 1.69119 125.317 1.60829 125.493 1.54197C125.669 1.44249 125.845 1.35959 126.022 1.29327H126.859C126.947 1.22695 127.035 1.1772 127.123 1.14404C127.24 1.11088 127.358 1.07772 127.475 1.04456H126.154C127.035 0.679795 127.975 0.43109 128.973 0.298442H130.162C131.308 0.0994839 132.512 0 133.775 0C135.008 0 136.198 0.0994839 137.343 0.298442H136.198C137.167 0.43109 138.136 0.679795 139.105 1.04456H140.427C140.544 1.07772 140.647 1.11088 140.735 1.14404C140.853 1.1772 140.97 1.22695 141.087 1.29327H140.251C140.691 1.45907 141.058 1.62487 141.352 1.79068H141.484C141.719 1.92332 141.939 2.05596 142.145 2.1886C142.35 2.28808 142.556 2.40415 142.761 2.53679H140.515C140.574 2.56995 140.632 2.60311 140.691 2.63627C140.75 2.66943 140.808 2.71917 140.867 2.78549H141.616C141.675 2.81865 141.734 2.85182 141.792 2.88498C141.851 2.91814 141.895 2.96788 141.924 3.0342H142.409L143.29 3.78031H142.189L142.717 4.27772H143.51L143.775 4.52643H143.819L144.039 4.77513H144.48L144.7 5.02384H145.096C145.214 5.15648 145.331 5.32228 145.449 5.52125C145.566 5.68705 145.684 5.85285 145.801 6.01865H146.109C146.198 6.1513 146.271 6.28394 146.33 6.41658C146.418 6.51606 146.491 6.63213 146.55 6.76477H146.682C146.741 6.89741 146.8 7.03005 146.858 7.16269C146.917 7.26218 146.976 7.37824 147.035 7.51088H146.946C147.005 7.64352 147.064 7.77617 147.123 7.90881C147.181 8.00829 147.225 8.12435 147.255 8.257H147.035L147.167 8.75441H147.651L147.783 9.25181H146.814C146.814 9.28497 146.814 9.31814 146.814 9.3513C146.844 9.38446 146.858 9.4342 146.858 9.50052H149.81C149.81 9.63316 149.839 9.79896 149.898 9.99793H145.889L146.021 10.9927H148.576L148.62 11.4902H153.951ZM133.731 9.99793H136.858C136.389 9.79896 135.86 9.69948 135.273 9.69948C134.685 9.69948 134.171 9.79896 133.731 9.99793ZM141.352 12.3855C141.322 12.2528 141.293 12.1368 141.264 12.0373C141.234 11.9378 141.19 11.8383 141.132 11.7389H142.189L142.057 11.4902H136.77C136.741 11.3907 136.697 11.3078 136.638 11.2415C136.579 11.142 136.521 11.0591 136.462 10.9927H126.462C126.433 11.0591 126.389 11.142 126.33 11.2415C126.301 11.3078 126.257 11.3907 126.198 11.4902H135.317L135.229 11.7389H133.819C133.76 11.8715 133.716 12.0373 133.687 12.2363C133.657 12.4021 133.628 12.5679 133.599 12.7337H141.484L141.352 12.3855ZM136.154 22.9306H130.515L130.647 23.6767H127.255C127.314 23.8756 127.373 24.058 127.431 24.2238C127.49 24.3565 127.563 24.5057 127.652 24.6715H130.162C130.221 24.771 130.28 24.8705 130.339 24.9699C130.397 25.0363 130.456 25.1026 130.515 25.1689H130.427L130.647 25.4176H131.396C131.455 25.4508 131.513 25.5005 131.572 25.5668C131.631 25.6 131.69 25.6332 131.748 25.6663H132.453C132.952 25.9648 133.555 26.114 134.259 26.114C134.964 26.114 135.552 25.9648 136.021 25.6663H134.568L134.92 25.4176H135.184L135.449 25.1689H134.303C134.362 25.1026 134.421 25.0363 134.48 24.9699C134.568 24.8705 134.626 24.771 134.656 24.6715H135.14C135.317 24.3731 135.463 24.0414 135.581 23.6767H135.889L135.977 23.428C136.036 23.229 136.095 23.0632 136.154 22.9306ZM187.845 23.6767V23.9254H191.281V24.4228H191.105V25.1689H181.986V25.4176H183.572V26.1637H188.418V26.6611H185.907V27.656H185.775V27.9047H182.867V28.6508H187.184V28.8995H187.36V29.6456H187.801V30.6404H179.299V31.3865H188.286V31.8839H185.29V32.6301H184.893V33.1275H185.907V33.6249H185.246V34.1223H186.788L186.656 34.6197H188.726C188.667 34.7192 188.594 34.8187 188.506 34.9181C188.447 34.9845 188.374 35.0508 188.286 35.1171H189.299C189.152 35.2497 188.946 35.3161 188.682 35.3161H180.048C179.783 35.3161 179.578 35.2497 179.431 35.1171H178.418C178.212 35.0176 178.065 34.8518 177.977 34.6197H175.907L175.775 34.1223H174.233V33.6249H174.894V33.1275H173.88V32.6301H174.277V31.8839H177.272V31.3865H169.299V31.8839H165.643V32.6301H168.154V33.1275H167.537V33.6249H169.828V34.1223H167.361L167.228 34.6197H168.198C168.08 34.8518 167.948 35.0176 167.801 35.1171H166.744C166.597 35.2497 166.391 35.3161 166.127 35.3161H157.493C157.199 35.3161 156.979 35.2497 156.832 35.1171H157.889C157.743 35.0176 157.61 34.8518 157.493 34.6197H156.48C156.392 34.4539 156.348 34.2881 156.348 34.1223H158.814V33.6249H156.524V33.1275H157.14V32.6301H154.629V31.8839H158.286V31.3865H160.4V30.6404H153.616V29.6456H156.127V28.8995H157.889V28.6508H156.656V27.9047H154.585V27.656H155.026V26.6611H156.436V26.1637H157.096V25.4176H153.925V25.1689H162.074V24.4228H152.118V23.9254H161.502V23.6767H156.92V22.9306H159.563V22.6819H160.092V22.4332H159.872V21.4383H155.511V20.6922H156.964V20.4435H156.568V19.6974H156.744V19.4487H156.788V18.9513H156.832V18.7026H156.259V18.4539H154.541V17.7078H155.114V16.9617H154.233V16.2155H156.436V15.2207H155.951V14.7233H152.735V14.4746H157.889V13.9772H159.123V13.7285H147.229V13.4798H154.233V13.2311H156.744V12.485H152.251V11.4902H151.017V10.744H156.303V9.74922H156.744V9.00311H159.563V8.75441H157.14V7.75959H159.123V7.26218H156.744V7.01347H155.907V6.51606H154.629V6.01865H153.088V5.02384H155.863V4.27772H157.537V3.5316H156.744V3.0342H155.643V2.78549H156.259V2.28808H156.127V1.84042C156.127 1.60829 156.171 1.42591 156.259 1.29327H159.079C159.108 1.19378 159.152 1.11088 159.211 1.04456C159.27 0.94508 159.328 0.862178 159.387 0.795857H166.171C166.347 0.596893 166.597 0.497411 166.92 0.497411H183.836C184.13 0.497411 184.38 0.596893 184.585 0.795857H191.369C191.428 0.862178 191.487 0.94508 191.545 1.04456C191.633 1.11088 191.692 1.19378 191.722 1.29327H186.039C186.098 1.49223 186.127 1.67461 186.127 1.84042V2.28808H186.347V2.78549H186.964V3.0342H185.775V3.5316H185.246V4.27772H186.964V5.02384H182.823V6.01865H187.581V6.51606H184.145V7.01347H185.554V7.26218H184.849V7.75959H188.153V8.75441H183.308V9.00311H187.052V9.74922H186.391V10.744H182.867V11.4902H181.413V12.485H185.907V13.2311H183.396V13.4798H176.391V13.7285H188.286V13.9772H187.052V14.4746H181.898V14.7233H185.114V15.2207H185.598V16.2155H183.396V16.9617H184.277V17.7078H183.704V18.4539H185.422V18.7026H185.995V18.9513H185.951V19.4487H185.907V19.6974H185.73V20.4435H186.127V20.6922H184.673V21.4383H189.034V22.4332H189.255V22.6819H188.726V22.9306H186.083V23.6767H187.845ZM162.03 10.744V11.4902H163.264V12.286H170.4V11.4902H171.854V10.744H175.378V9.74922H176.039V9.00311H172.294V8.75441H177.14V7.75959H173.836V7.26218H174.541V7.01347H173.131V6.51606H176.568V6.01865H171.81V5.02384H175.951V4.27772H174.233V3.5316H174.761V3.0342H175.951V2.78549H175.334V2.28808H175.114V1.84042C175.114 1.67461 175.143 1.49223 175.202 1.29327H180.885C180.943 1.19378 181.002 1.11088 181.061 1.04456C181.12 0.94508 181.178 0.862178 181.237 0.795857H169.519C169.666 0.928499 169.784 1.0943 169.872 1.29327H167.052C167.111 1.39275 167.14 1.57513 167.14 1.84042V2.28808H167.273V2.78549H166.656V3.0342H167.757V3.5316H168.55V4.27772H166.876V5.02384H164.101V6.01865H165.643V6.51606H166.92V7.01347H167.757V7.26218H170.136V7.75959H168.154V8.75441H170.576V9.00311H167.757V9.74922H167.317V10.744H162.03ZM180.268 24.4228V23.9254H176.832V23.6767H175.07V23.229H167.933V23.6767H172.515V23.9254H163.132V24.4228H173.087V25.1689H180.092V24.4228H180.268ZM177.405 26.1637H172.559V25.4176H170.973V25.1689H164.938V25.4176H168.11V26.1637H167.449V26.6611H166.039V27.656H165.599V27.9047H167.669V28.6508H168.902V28.8995H167.14V29.6456H164.629V30.6404H176.788V29.6456H176.347V28.8995H176.171V28.6508H171.854V27.9047H174.761V27.656H174.894V26.6611H177.405V26.1637ZM223.9 26.6611H227.38V27.4073H220.684V28.4021H225.001V29.3969H221.213V30.3917H221.697V31.1378H221.389V31.6352H220.464V32.1326H220.42V32.6301H221.345V33.6249H222.623V33.9731C222.623 34.0394 222.608 34.0891 222.578 34.1223H214.737C214.708 34.1886 214.693 34.2715 214.693 34.371H217.733C217.645 34.7026 217.483 34.9513 217.248 35.1171H216.411C216.264 35.2497 216.059 35.3161 215.794 35.3161H192.843C192.608 35.3161 192.388 35.2497 192.182 35.1171H193.019C192.814 34.9513 192.652 34.7026 192.535 34.371H189.451C189.422 34.3047 189.407 34.2218 189.407 34.1223H197.292V33.6249H196.015V32.6301H195.09V32.1326H195.134V31.6352H196.059V31.1378H196.367V30.3917H195.883V29.3969H199.671V28.4021H195.354V27.4073H202.05V26.6611H198.57V26.1637H199.583V25.6663H200.024V25.1689H195.134V24.6715H193.988V23.9254H198.085V23.6767H194.825V23.1793H195.795V22.6819H196.499V21.9357H196.411V20.9409H195.971V19.9461H195.31V19.4487H195.839V18.4539H195.354V17.9565H196.059V17.2104H196.235V16.4642H197.028V16.2155H196.279V15.2207H195.618V14.4746H195.795V13.7285H195.883V12.7337H196.544V11.7389H195.574V10.744H195.706V9.74922H196.94V9.00311H196.279V8.257H195.927V8.00829H197.777V7.26218H201.037V6.76477H199.715V6.26736H195.442V6.01865H195.927V5.27254H195.971V4.52643H196.103V3.5316H196.059V2.28808H195.971V1.84042C195.971 1.70777 195.986 1.60829 196.015 1.54197H195.574C195.692 0.845598 196.074 0.497411 196.72 0.497411H219.319C219.994 0.497411 220.376 0.845598 220.464 1.54197H220.904C220.934 1.60829 220.949 1.70777 220.949 1.84042V2.28808H221.037V3.5316H221.081V4.52643H220.949V5.27254H220.904V6.01865H220.42V6.26736H224.693V6.76477H226.015V7.26218H222.755V8.00829H220.904V8.257H221.257V9.00311H221.918C221.859 9.33472 221.756 9.58342 221.609 9.74922H220.376C220.17 10.0477 219.877 10.1969 219.495 10.1969H206.279V10.744H206.147V11.7389H207.116V12.7337H206.455V13.3306H218.702C219.025 13.3306 219.304 13.4632 219.539 13.7285H219.451C219.598 13.8943 219.7 14.143 219.759 14.4746H219.627V15.2207H220.288V16.2155H221.037V16.4642H220.244V17.2104H220.067V17.9565H219.363V18.4539H219.847V19.4487H219.319V19.9461H219.979V20.9409H220.42V21.1399C220.42 21.5047 220.346 21.7699 220.2 21.9357H220.288C220.053 22.3005 219.73 22.4829 219.319 22.4829H207.072V22.6819H206.367V23.1793H205.398V23.6767H208.658V23.9254H204.561V24.6715H205.706V25.1689H210.596V25.6166H224.164C224.311 25.6166 224.429 25.6332 224.517 25.6663H224.032C224.326 25.7658 224.546 25.9316 224.693 26.1637H223.68C223.797 26.3627 223.871 26.5285 223.9 26.6611ZM264.296 8.257C264.354 8.38964 264.413 8.52228 264.472 8.65492C264.531 8.75441 264.575 8.87047 264.604 9.00311H262.974C263.033 9.13575 263.092 9.30156 263.15 9.50052C263.209 9.66632 263.268 9.83212 263.326 9.99793H256.41L256.675 10.9927H260.243L260.375 11.7389H259.89C259.92 11.8052 259.934 11.8881 259.934 11.9876C259.934 12.087 259.949 12.1699 259.978 12.2363H258.789L258.833 12.7337H259.758C259.758 12.8663 259.758 12.999 259.758 13.1316C259.788 13.2311 259.802 13.3472 259.802 13.4798H261.432C261.462 13.6124 261.476 13.7285 261.476 13.828C261.476 13.9275 261.476 14.0435 261.476 14.1762V14.2259H257.335C257.335 14.3917 257.335 14.5575 257.335 14.7233C257.365 14.8891 257.379 15.0549 257.379 15.2207H258.305C258.305 15.3865 258.305 15.5523 258.305 15.7181C258.334 15.8839 258.349 16.0497 258.349 16.2155H259.934V16.4642H259.318V17.4591H259.494V18.2052H262.093V19.2H259.626V19.6974H259.362C259.362 19.7637 259.362 19.8466 259.362 19.9461C259.362 20.0456 259.347 20.1285 259.318 20.1948H258.525V21.1896H258.613C258.584 21.2891 258.569 21.4218 258.569 21.5876V21.687H260.199C260.199 21.8197 260.184 21.9523 260.155 22.085C260.155 22.1845 260.155 22.3005 260.155 22.4332H260.816C260.816 22.599 260.801 22.7648 260.771 22.9306C260.771 23.0964 260.757 23.2622 260.727 23.428H259.758C259.729 23.4943 259.714 23.5772 259.714 23.6767C259.714 23.7762 259.699 23.8591 259.67 23.9254H254.384C254.384 24.058 254.354 24.2238 254.296 24.4228H258.921C258.863 24.6218 258.833 24.7876 258.833 24.9202H259.494C259.465 25.0528 259.435 25.1855 259.406 25.3181C259.406 25.4176 259.376 25.5337 259.318 25.6663L259.186 26.1637H257.908L257.82 26.4124H259.89C259.832 26.5451 259.802 26.628 259.802 26.6611H258.481L258.393 26.9098H258.349C258.29 27.0756 258.231 27.2414 258.172 27.4073C258.114 27.5731 258.04 27.7389 257.952 27.9047H257.291L256.807 28.8995H257.556L257.291 29.3969H257.335C257.277 29.4632 257.218 29.5461 257.159 29.6456C257.1 29.7451 257.042 29.828 256.983 29.8943H256.675C256.586 29.9938 256.528 30.0767 256.498 30.143C256.41 30.2756 256.322 30.4083 256.234 30.5409C256.146 30.6404 256.043 30.7565 255.926 30.8891H255.794C255.647 31.0549 255.485 31.2207 255.309 31.3865C255.162 31.5523 255.001 31.7181 254.824 31.8839H255.221L254.296 32.6301H254.34C254.105 32.7959 253.855 32.9617 253.591 33.1275C253.327 33.2933 253.048 33.4591 252.754 33.6249H252.71C252.416 33.7907 252.049 33.9565 251.609 34.1223H251.653C251.065 34.3544 250.449 34.5534 249.802 34.7192C249.156 34.885 248.496 35.0176 247.82 35.1171H248.745C248.275 35.1834 247.791 35.2332 247.291 35.2663C246.792 35.2995 246.278 35.3161 245.75 35.3161H232.842C232.578 35.3161 232.372 35.2497 232.225 35.1171H231.3C231.007 34.9181 230.83 34.5865 230.772 34.1223H230.728V33.6249H230.816V32.6301H230.728V31.8839H230.375V30.8891H230.507V30.143H230.463V29.8943H230.816V29.3969H230.772V28.8995H229.979V27.9047H230.684V26.9098H230.728V26.6611H232.049V26.4124H230.023V26.1637H231.3V24.9202H230.684V24.4228H230.64V23.9254H231.785V23.428H226.719V22.4332H226.543V21.687H227.115V21.1896H228.922V20.1948H230.067V19.6974H230.728V19.2H231.433V18.2052H232.446V17.4591H233.415V16.4642H230.463V16.2155H229.494V15.2207H227.556V14.2259H232.578V13.4798H228.701V12.7337H230.816V12.2363H230.728V11.7389H230.375V10.9927H228.481V9.99793H235.353V9.00311H236.983V8.257H229.054V7.26218H234.252V7.01347H230.155V6.76477H238.481V5.76995H237.424V5.52125H226.939V4.52643H228.217V3.78031H230.948V3.5316H232.402V3.0342H231.609V2.78549H230.684V2.28808H230.772V1.84042C230.772 1.7741 230.772 1.72435 230.772 1.69119C230.801 1.62487 230.816 1.57513 230.816 1.54197H230.992C231.139 0.845598 231.535 0.497411 232.181 0.497411H244.869C247.13 0.497411 249.186 0.845598 251.036 1.54197H250.86C251.388 1.74093 251.932 1.98964 252.49 2.28808H252.402C252.548 2.35441 252.695 2.4373 252.842 2.53679C253.018 2.60311 253.165 2.68601 253.283 2.78549H254.208L254.604 3.0342H255.353C255.5 3.10052 255.617 3.18342 255.705 3.2829C255.823 3.38239 255.94 3.46529 256.058 3.5316H254.604C254.663 3.56477 254.722 3.59793 254.78 3.63109C254.839 3.66425 254.883 3.71399 254.912 3.78031H252.181L253.018 4.52643H251.697C252.02 4.82487 252.313 5.15648 252.578 5.52125H263.062C263.092 5.55441 263.121 5.58757 263.15 5.62073C263.18 5.65389 263.209 5.70363 263.238 5.76995H264.34C264.457 5.90259 264.575 6.06839 264.692 6.26736C264.81 6.43316 264.912 6.59896 265 6.76477H256.675C256.704 6.79793 256.733 6.83109 256.763 6.86425C256.792 6.89741 256.821 6.94715 256.851 7.01347H260.948L261.08 7.26218H255.882C256.087 7.59378 256.249 7.92539 256.366 8.257H264.296ZM248.745 11.7389C248.569 11.4404 248.349 11.1917 248.084 10.9927H244.516C243.87 10.4622 243.077 10.1969 242.137 10.1969H239.494V10.9927H241.388V11.7389H241.741V12.2363H241.829V12.7337H239.714V13.4798H243.591V14.2259H238.569V15.2207H240.507V16.2155H241.476V16.4642H244.428V17.4591H243.459V18.2052H242.446V19.2H241.741V19.6974H241.08V20.1948H239.935V21.1896H238.129V21.687H237.556V22.4332H237.732V23.428H242.798V23.9254H241.653V24.4228H241.697V24.9202H242.313V25.6166H245.177C246.029 25.6166 246.748 25.3845 247.335 24.9202H246.631C246.719 24.8539 246.807 24.7876 246.895 24.7212C246.983 24.6218 247.056 24.5223 247.115 24.4228H242.534C242.592 24.3565 242.651 24.2902 242.71 24.2238C242.769 24.1244 242.813 24.0249 242.842 23.9254H248.128C248.187 23.8591 248.231 23.7927 248.261 23.7264C248.29 23.6269 248.319 23.5275 248.349 23.428H249.362C249.421 23.2622 249.465 23.0964 249.494 22.9306C249.523 22.7648 249.553 22.599 249.582 22.4332H248.921C248.951 22.3005 248.965 22.1845 248.965 22.085C248.965 21.9523 248.98 21.8197 249.009 21.687H247.38V21.5876C247.38 21.5212 247.38 21.4549 247.38 21.3886C247.409 21.3223 247.424 21.256 247.424 21.1896H247.335C247.335 21.0238 247.335 20.858 247.335 20.6922C247.335 20.4933 247.35 20.3275 247.38 20.1948H248.172V19.6974H248.437L248.481 19.2H250.948V18.2052H248.349V17.4591H248.172V16.4642H248.789V16.2155H247.159V15.2207H246.19C246.19 15.0549 246.19 14.8891 246.19 14.7233C246.19 14.5575 246.175 14.3917 246.146 14.2259H250.287V14.1762C250.287 14.0435 250.272 13.9275 250.243 13.828C250.243 13.6953 250.243 13.5793 250.243 13.4798H248.613C248.584 13.3472 248.554 13.2311 248.525 13.1316C248.496 12.999 248.466 12.8663 248.437 12.7337H247.512C247.482 12.6342 247.453 12.5513 247.424 12.485C247.394 12.3855 247.365 12.3026 247.335 12.2363H248.525C248.496 12.1368 248.451 12.0539 248.393 11.9876C248.363 11.8881 248.319 11.8052 248.261 11.7389H248.745ZM36.3878 53.2104H28.194V54.2052H31.3217V54.9513H34.7138V55.6974H34.6257V56.4435H35.9032V57.4383H31.1015V57.687H30.1764V58.0352C30.1764 58.2674 30.1323 58.4829 30.0442 58.6819H33.1719C32.9664 59.1461 32.6286 59.3782 32.1587 59.3782H24.846V59.428H25.2866V60.4228H25.3747V61.4176H25.1544V62.4124H24.5817V63.1585H26.7844V63.656H24.9341V64.4021H23.965V65.3969H25.639V65.8943H25.3306V66.8891H25.0223V67.8839H24.4936V68.8788H24.0091V69.6249H25.639V70.371H24.9782V71.3658H25.2425V71.6145H25.5509V72.1119H27.7535V72.858H26.2557V73.8528H26.9165V74.8477H25.0663V75.8425H25.8152V76.3399H26.1236V77.086H26.8284V78.0808H26.5641V78.8269H25.4187V79.5731H25.2866V80.0705H25.2425V80.8166H25.7271V81.5627H25.3306V82.1596C25.3306 82.3254 25.3159 82.458 25.2866 82.5575H24.846C24.7579 82.8891 24.5964 83.1378 24.3615 83.3036H24.4496C24.3027 83.4363 24.0972 83.5026 23.8328 83.5026H15.0224C14.7874 83.5026 14.5671 83.4363 14.3616 83.3036H14.2735C14.0679 83.1378 13.9064 82.8891 13.7889 82.5575H14.1854C14.156 82.458 14.1413 82.3254 14.1413 82.1596V81.5627H14.5378V80.8166H14.0532V80.0705H14.0973V79.5731H14.2294V78.8269H15.3748V78.0808H15.6391V77.086H14.9343V76.3399H14.6259V75.8425H13.877V74.8477H15.7272V73.8528H15.0664V72.858H16.5642V72.1119H14.3616V71.6145H14.0532V71.3658H13.7889V70.371H14.4497V69.6249H12.8197V68.8788H13.3043V67.8839H13.8329V66.8891H14.1413V65.8943H14.4497V65.3969H12.7757V64.4021H13.7448V63.656H15.595V63.1585H13.3924V62.4124H13.9651V61.4176H14.1854V60.4228H14.0973V59.428H13.6567V59.3782H6.34404C5.90351 59.3782 5.55109 59.1461 5.28678 58.6819H2.15906C2.12969 58.5824 2.10032 58.4829 2.07095 58.3834C2.01222 58.2839 1.98285 58.1679 1.98285 58.0352V57.687H2.90795V57.4383H7.70966V56.4435H6.43214V55.6974H6.52024V54.9513H3.12821V54.2052H0.000488281V53.2104H8.19424V52.4642H3.61279V51.4694H4.49383V50.4746H5.6392V50.2259H6.29998V50.0269C6.29998 49.6953 6.38809 49.43 6.5643 49.2311H5.59514C5.83009 48.8663 6.15314 48.6839 6.5643 48.6839H32.379C32.7902 48.6839 33.1132 48.8663 33.3482 49.2311H34.2733C34.4201 49.4632 34.4935 49.7285 34.4935 50.0269V50.2259H33.8327V50.4746H32.6874V51.4694H31.8063V52.4642H36.3878V53.2104ZM73.3845 71.8632V72.1119H76.8205V72.6093H76.6443V73.3554H67.5255V73.6041H69.1114V74.3503H73.9571V74.8477H71.4461V75.8425H71.314V76.0912H68.4065V76.8373H72.7237V77.086H72.8999V77.8321H73.3404V78.8269H64.8383V79.5731H73.825V80.0705H70.8294V80.8166H70.4329V81.314H71.4461V81.8114H70.7854V82.3088H72.3272L72.195 82.8062H74.2655C74.2068 82.9057 74.1333 83.0052 74.0452 83.1047C73.9865 83.171 73.9131 83.2373 73.825 83.3036H74.8382C74.6913 83.4363 74.4858 83.5026 74.2215 83.5026H65.5872C65.3229 83.5026 65.1173 83.4363 64.9704 83.3036H63.9572C63.7517 83.2041 63.6048 83.0383 63.5167 82.8062H61.4463L61.3141 82.3088H59.7723V81.8114H60.433V81.314H59.4198V80.8166H59.8163V80.0705H62.8119V79.5731H54.8384V80.0705H51.182V80.8166H53.693V81.314H53.0763V81.8114H55.367V82.3088H52.9001L52.7679 82.8062H53.7371C53.6196 83.0383 53.4874 83.2041 53.3406 83.3036H52.2833C52.1365 83.4363 51.9309 83.5026 51.6666 83.5026H43.0321C42.7384 83.5026 42.5182 83.4363 42.3713 83.3036H43.4286C43.2817 83.2041 43.1496 83.0383 43.0321 82.8062H42.0189C41.9308 82.6404 41.8867 82.4746 41.8867 82.3088H44.3537V81.8114H42.063V81.314H42.6797V80.8166H40.1687V80.0705H43.8251V79.5731H45.9398V78.8269H39.1555V77.8321H41.6665V77.086H43.4286V76.8373H42.1951V76.0912H40.1247V75.8425H40.5652V74.8477H41.9749V74.3503H42.6356V73.6041H39.4639V73.3554H47.6138V72.6093H37.6577V72.1119H47.0411V71.8632H42.4594V71.1171H45.1026V70.8684H45.6312V70.6197H45.4109V69.6249H41.0498V68.8788H42.5035V68.6301H42.107V67.8839H42.2832V67.6352H42.3273V67.1378H42.3713V66.8891H41.7986V66.6404H40.0806V65.8943H40.6533V65.1482H39.7722V64.4021H41.9749V63.4072H41.4903V62.9098H38.2745V62.6611H43.4286V62.1637H44.6621V61.915H32.7679V61.6663H39.7722V61.4176H42.2832V60.6715H37.7899V59.6767H36.5564V58.9306H41.8427V57.9357H42.2832V57.1896H45.1026V56.9409H42.6797V55.9461H44.6621V55.4487H42.2832V55.2H41.4462V54.7026H40.1687V54.2052H38.6269V53.2104H41.4022V52.4642H43.0762V51.7181H42.2832V51.2207H41.1819V50.972H41.7986V50.4746H41.6665V50.0269C41.6665 49.7948 41.7105 49.6124 41.7986 49.4798H44.618C44.6474 49.3803 44.6914 49.2974 44.7502 49.2311C44.8089 49.1316 44.8676 49.0487 44.9264 48.9824H51.7107C51.8869 48.7834 52.1365 48.6839 52.4596 48.6839H69.3757C69.6694 48.6839 69.919 48.7834 70.1246 48.9824H76.9086C76.9674 49.0487 77.0261 49.1316 77.0849 49.2311C77.173 49.2974 77.2317 49.3803 77.2611 49.4798H71.5783C71.637 49.6788 71.6664 49.8611 71.6664 50.0269V50.4746H71.8867V50.972H72.5034V51.2207H71.314V51.7181H70.7854V52.4642H72.5034V53.2104H68.3625V54.2052H73.1201V54.7026H69.6841V55.2H71.0937V55.4487H70.3889V55.9461H73.6928V56.9409H68.8471V57.1896H72.5915V57.9357H71.9307V58.9306H68.4065V59.6767H66.9528V60.6715H71.4461V61.4176H68.9352V61.6663H61.9308V61.915H73.825V62.1637H72.5915V62.6611H67.4374V62.9098H70.6532V63.4072H71.1378V64.4021H68.9352V65.1482H69.8162V65.8943H69.2435V66.6404H70.9616V66.8891H71.5342V67.1378H71.4902V67.6352H71.4461V67.8839H71.2699V68.6301H71.6664V68.8788H70.2127V69.6249H74.5739V70.6197H74.7941V70.8684H74.2655V71.1171H71.6224V71.8632H73.3845ZM47.5697 58.9306V59.6767H48.8032V60.4725H55.9397V59.6767H57.3934V58.9306H60.9176V57.9357H61.5784V57.1896H57.834V56.9409H62.6797V55.9461H59.3758V55.4487H60.0806V55.2H58.6709V54.7026H62.107V54.2052H57.3494V53.2104H61.4903V52.4642H59.7723V51.7181H60.3009V51.2207H61.4903V50.972H60.8736V50.4746H60.6533V50.0269C60.6533 49.8611 60.6827 49.6788 60.7414 49.4798H66.4242C66.4829 49.3803 66.5416 49.2974 66.6004 49.2311C66.6591 49.1316 66.7179 49.0487 66.7766 48.9824H55.0587C55.2055 49.115 55.323 49.2808 55.4111 49.4798H52.5917C52.6505 49.5793 52.6798 49.7617 52.6798 50.0269V50.4746H52.812V50.972H52.1952V51.2207H53.2966V51.7181H54.0895V52.4642H52.4155V53.2104H49.6402V54.2052H51.182V54.7026H52.4596V55.2H53.2966V55.4487H55.6754V55.9461H53.693V56.9409H56.1159V57.1896H53.2966V57.9357H52.856V58.9306H47.5697ZM65.8074 72.6093V72.1119H62.3714V71.8632H60.6093V71.4155H53.4728V71.8632H58.0542V72.1119H48.6711V72.6093H58.6269V73.3554H65.6312V72.6093H65.8074ZM62.944 74.3503H58.0983V73.6041H56.5124V73.3554H50.4772V73.6041H53.649V74.3503H52.9882V74.8477H51.5785V75.8425H51.138V76.0912H53.2084V76.8373H54.4419V77.086H52.6798V77.8321H50.1688V78.8269H62.3273V77.8321H61.8868V77.086H61.7106V76.8373H57.3934V76.0912H60.3009V75.8425H60.433V74.8477H62.944V74.3503ZM98.4264 57.1896H91.2459V58.1845H94.1093V59.1793H97.8978V59.9254H93.6247V60.1741H94.1533V61.1689H93.052V61.4176H92.9639V61.6663H91.8626V62.6611H93.9331V62.9098H94.0212V63.1585H93.5366V63.9047H93.2282V64.1534H94.682V65.1482H91.1578V66.143H92.4353V66.8891H93.1401V67.8839H93.2282V68.8788H92.8758V70.1223H93.2723V70.6197H93.008V71.3658H92.9639V71.6145H92.6115V72.6093H93.008V73.1067H92.9639V76.0912H93.008V77.086H93.7569V78.0808H93.1401V78.5782H92.9639V79.0756H93.4925V80.0705H92.7436V80.3192H93.845V80.8166H94.2414V81.0653H93.889V81.8114H93.7128V82.1596C93.7128 82.2259 93.6981 82.2922 93.6687 82.3585C93.6687 82.4249 93.6541 82.4912 93.6247 82.5575H92.5234C92.494 82.7233 92.4059 82.8891 92.2591 83.0549H93.4925C93.3751 83.1876 93.287 83.2705 93.2282 83.3036H90.7172C90.5704 83.4363 90.3648 83.5026 90.1005 83.5026H81.1138C80.8495 83.5026 80.6439 83.4363 80.4971 83.3036H83.0081C82.8906 83.2705 82.8025 83.1876 82.7438 83.0549H81.5103C81.3634 82.8891 81.2753 82.7233 81.246 82.5575H82.3913C82.362 82.458 82.3473 82.3254 82.3473 82.1596V81.8114H82.5235V81.0653H82.8759V80.8166H82.4794V80.3192H81.3781V80.0705H82.127V79.0756H81.5984V78.5782H81.7746V78.0808H82.3913V77.086H81.6424V76.0912H81.5984V73.1067H81.6424V72.6093H81.246V71.6145H81.5984V71.3658H81.6424V70.6197H81.9068V70.1223H81.5103V68.8788H81.8627V67.8839H81.7746V66.8891H81.0698V66.143H79.7922V65.1482H83.3164V64.1534H81.8627V63.9047H82.1711V63.1585H82.6556V62.9098H82.5675V62.6611H80.4971V61.6663H81.5984V61.4176H81.6865V61.1689H82.7878V60.1741H82.2592V59.9254H86.5323V59.1793H82.7438V58.1845H79.8803V57.1896H87.0609V56.9409H82.5675V56.1948H82.5235V55.4487H81.7305V55.2H84.4177V54.7026H82.3913V53.7078H82.5675V52.9617H81.3341V51.9668H81.5543V51.4694H81.4222V50.972H81.7746V50.7233H81.3781V50.0269C81.3781 49.8611 81.4075 49.6788 81.4662 49.4798H81.6865C81.8921 48.9492 82.2592 48.6839 82.7878 48.6839H91.7745C92.3031 48.6839 92.6702 48.9492 92.8758 49.4798H92.6555C92.7143 49.6788 92.7436 49.8611 92.7436 50.0269V50.7233H93.1401V50.972H92.7877V51.4694H92.9199V51.9668H92.6996V52.9617H93.9331V53.7078H93.7569V54.7026H95.7833V55.2H93.0961V55.4487H93.889V56.1948H93.9331V56.9409H98.4264V57.1896ZM130.284 78.5782H128.477L128.081 79.0756H134.821C134.792 79.1088 134.762 79.142 134.733 79.1751C134.704 79.2083 134.659 79.258 134.601 79.3243H124.204C124.058 79.4902 123.896 79.656 123.719 79.8218C123.573 79.9876 123.411 80.1534 123.235 80.3192H126.451L125.878 80.8166H131.869L131.517 81.0653H128.918C128.889 81.0984 128.83 81.1316 128.741 81.1648C128.683 81.1979 128.624 81.2477 128.565 81.314H125.614L124.381 82.0601H126.098C125.716 82.2591 125.335 82.4414 124.953 82.6072C124.572 82.7399 124.175 82.8891 123.764 83.0549H122.178C121.179 83.3865 120.093 83.6352 118.918 83.801H119.138C118.668 83.8674 118.183 83.9171 117.684 83.9502C117.185 83.9834 116.686 84 116.187 84C115.628 84 115.07 83.9834 114.512 83.9502C113.984 83.9171 113.47 83.8674 112.971 83.801H112.794C111.532 83.6352 110.401 83.3865 109.402 83.0549H110.988C110.548 82.8891 110.137 82.7399 109.755 82.6072C109.373 82.4414 108.991 82.2591 108.609 82.0601H106.891C106.686 81.9275 106.48 81.8114 106.275 81.7119C106.069 81.5793 105.863 81.4466 105.658 81.314H108.653L108.301 81.0653H110.9C110.871 80.999 110.827 80.9492 110.768 80.9161C110.709 80.8829 110.65 80.8497 110.592 80.8166H104.601C104.483 80.7503 104.38 80.6674 104.292 80.5679C104.204 80.4684 104.116 80.3855 104.028 80.3192H100.768C100.621 80.1534 100.474 79.9876 100.328 79.8218C100.151 79.656 99.9898 79.4902 99.843 79.3243H110.239C110.21 79.258 110.181 79.2083 110.151 79.1751C110.122 79.142 110.092 79.1088 110.063 79.0756H103.323C103.206 78.943 103.088 78.7772 102.971 78.5782H104.777C104.747 78.5119 104.718 78.4622 104.689 78.429C104.659 78.3958 104.63 78.3627 104.601 78.3295H110.107L109.711 77.5834H106.979L106.847 77.3347H100.636C100.607 77.2021 100.562 77.086 100.504 76.9865C100.445 76.8539 100.386 76.7212 100.328 76.5886H103.279L103.015 75.8425H101.957L101.869 75.5938H102.354C102.325 75.4611 102.295 75.3451 102.266 75.2456C102.236 75.1129 102.207 74.9803 102.178 74.8477H101.825C101.825 74.715 101.811 74.599 101.781 74.4995C101.781 74.3668 101.767 74.2342 101.737 74.1015H101.385C101.385 73.9689 101.37 73.8528 101.341 73.7534C101.341 73.6539 101.341 73.5378 101.341 73.4052V73.3554H101.297C101.297 73.2891 101.297 73.2394 101.297 73.2062C101.326 73.173 101.341 73.1399 101.341 73.1067H102.354C102.501 72.5762 102.809 72.3109 103.279 72.3109H111.649C112.119 72.3109 112.471 72.3772 112.706 72.5098C112.941 72.6425 113.206 72.8414 113.499 73.1067H112.486L112.53 73.1565C112.589 73.1896 112.633 73.2228 112.662 73.256C112.721 73.2891 112.765 73.3223 112.794 73.3554H112.838C113.22 73.687 113.69 73.9357 114.249 74.1015H114.645C115.026 74.2342 115.54 74.3005 116.187 74.3005C116.568 74.3005 116.921 74.2839 117.244 74.2508C117.567 74.2176 117.846 74.1679 118.081 74.1015H117.949C118.624 73.9357 119.05 73.687 119.226 73.3554H119.138C119.197 73.2228 119.226 73.1399 119.226 73.1067H119.667L119.711 72.9078C119.711 72.6093 119.608 72.344 119.402 72.1119H119.05C118.785 71.8135 118.316 71.5648 117.64 71.3658H117.508C117.244 71.2663 116.936 71.1834 116.583 71.1171C116.23 71.0176 115.819 70.9347 115.349 70.8684H115.085L113.279 70.5699C113.073 70.5368 112.868 70.5036 112.662 70.4705C112.486 70.4373 112.295 70.4041 112.09 70.371C110.885 70.1389 109.725 69.8072 108.609 69.3762H107.816C107.405 69.2104 107.024 69.0446 106.671 68.8788H106.054C105.908 68.8124 105.761 68.7461 105.614 68.6798C105.467 68.5803 105.32 68.4808 105.173 68.3813H101.341C101.135 68.2487 100.944 68.1326 100.768 68.0331C100.592 67.9005 100.416 67.7679 100.239 67.6352H108.433C108.286 67.5026 108.14 67.3865 107.993 67.287C107.875 67.1544 107.743 67.0218 107.596 66.8891H98.8298C98.7417 66.8228 98.6682 66.7399 98.6095 66.6404C98.5214 66.5409 98.448 66.458 98.3892 66.3917H100.68C100.416 66.0601 100.166 65.7285 99.9311 65.3969H100.592L100.328 64.8995H96.0985C96.0691 64.8332 96.0398 64.7834 96.0104 64.7503C95.981 64.7171 95.9664 64.6839 95.9664 64.6508H106.01C105.952 64.5181 105.893 64.4021 105.834 64.3026C105.775 64.1699 105.717 64.0373 105.658 63.9047H97.9487L97.6844 63.1585H103.896L103.808 62.9098H101.957L101.869 62.6611H102.75C102.75 62.5948 102.736 62.5451 102.706 62.5119C102.706 62.4788 102.706 62.4456 102.706 62.4124H102.53L102.398 61.915H102.134L102.09 61.4176H102.002V61.1689H100.592C100.562 61.1026 100.548 61.0197 100.548 60.9202C100.548 60.8207 100.548 60.7378 100.548 60.6715H99.2703L99.2262 60.1741H104.248C104.219 60.1078 104.204 60.0249 104.204 59.9254C104.204 59.8259 104.204 59.743 104.204 59.6767H104.909V59.6269C104.909 59.4611 104.909 59.2953 104.909 59.1295C104.909 58.9637 104.924 58.8145 104.953 58.6819H103.059C103.088 58.5492 103.103 58.4332 103.103 58.3337C103.103 58.201 103.118 58.0684 103.147 57.9357H106.231C106.231 57.8694 106.231 57.8197 106.231 57.7865C106.26 57.7534 106.275 57.7202 106.275 57.687H103.147C103.206 57.4881 103.235 57.3223 103.235 57.1896H102.75L102.883 56.6922H102.134C102.222 56.3275 102.325 55.9958 102.442 55.6974H102.794L102.971 55.2H103.455L103.852 54.4539H103.411C103.499 54.3212 103.573 54.2052 103.631 54.1057C103.72 53.9731 103.793 53.8404 103.852 53.7078H103.499L104.028 52.9617H104.953C104.982 52.8953 105.012 52.8456 105.041 52.8124C105.071 52.7793 105.1 52.7461 105.129 52.7129H103.896C104.013 52.5803 104.131 52.4642 104.248 52.3648C104.366 52.2321 104.483 52.0995 104.601 51.9668H105.305C105.482 51.801 105.658 51.6352 105.834 51.4694C106.01 51.2705 106.201 51.1047 106.407 50.972H107.2C107.376 50.8394 107.552 50.7233 107.728 50.6238C107.905 50.4912 108.095 50.3585 108.301 50.2259H108.169C108.228 50.1596 108.301 50.1098 108.389 50.0767C108.477 50.0435 108.551 50.0104 108.609 49.9772H107.993C108.051 49.9109 108.125 49.8611 108.213 49.828C108.301 49.7948 108.389 49.7617 108.477 49.7285H108.037C108.448 49.5295 108.874 49.3471 109.314 49.1813C109.784 49.0155 110.254 48.8663 110.724 48.7337H111.385C112.06 48.5679 112.765 48.4352 113.499 48.3357C114.263 48.2363 115.056 48.1865 115.879 48.1865C117.435 48.1865 118.903 48.3689 120.283 48.7337H119.667C120.607 48.9658 121.517 49.2974 122.398 49.7285H122.795C122.882 49.7617 122.97 49.7948 123.059 49.828C123.147 49.8611 123.235 49.9109 123.323 49.9772H123.94C123.998 50.0104 124.072 50.0435 124.16 50.0767C124.248 50.1098 124.321 50.1596 124.381 50.2259H124.512C124.718 50.3585 124.909 50.4912 125.085 50.6238C125.291 50.7233 125.482 50.8394 125.658 50.972H124.909C125.144 51.1047 125.349 51.2705 125.526 51.4694C125.732 51.6352 125.922 51.801 126.098 51.9668H125.438L126.142 52.7129H127.376L127.596 52.9617H126.671C126.789 53.0943 126.892 53.2269 126.979 53.3596C127.097 53.4591 127.2 53.5751 127.288 53.7078H127.64L128.169 54.4539H128.565L128.962 55.2H128.477C128.565 55.3658 128.639 55.5316 128.698 55.6974H128.345C128.433 55.8632 128.507 56.029 128.565 56.1948C128.624 56.3606 128.683 56.5264 128.741 56.6922H129.491C129.549 56.8912 129.578 57.057 129.578 57.1896H130.107C130.137 57.256 130.151 57.3389 130.151 57.4383C130.151 57.5378 130.166 57.6207 130.195 57.687H133.323V57.9357H130.504C130.533 58.0684 130.548 58.2508 130.548 58.4829V58.6819H128.918C128.801 59.2788 128.507 59.5772 128.037 59.5772H119.226C118.815 59.5772 118.477 59.5109 118.213 59.3782C117.978 59.2456 117.728 59.0466 117.464 58.7813L117.332 58.6819H118.962C118.815 58.5492 118.609 58.4166 118.345 58.2839C118.081 58.1181 117.743 58.0021 117.332 57.9357H115.746C115.129 58.0352 114.703 58.2839 114.468 58.6819H116.363C116.275 58.8808 116.23 59.0798 116.23 59.2788C116.23 59.4446 116.245 59.5772 116.275 59.6767H115.614C115.643 59.8425 115.761 60.0083 115.966 60.1741H110.988C111.164 60.3399 111.473 60.5057 111.913 60.6715H113.191C113.426 60.771 113.705 60.8705 114.028 60.9699C114.38 61.0363 114.747 61.1026 115.129 61.1689H116.539C116.774 61.2021 117.023 61.2352 117.288 61.2684C117.552 61.3015 117.831 61.3513 118.125 61.4176H118.169C118.668 61.4839 119.153 61.5668 119.623 61.6663C120.092 61.7326 120.533 61.8155 120.944 61.915H121.208C121.561 61.9813 121.884 62.0642 122.178 62.1637C122.501 62.23 122.809 62.3129 123.103 62.4124H123.279C123.426 62.4456 123.558 62.4788 123.675 62.5119C123.793 62.5451 123.911 62.5948 124.028 62.6611H123.191C123.309 62.6943 123.411 62.7275 123.499 62.7606C123.617 62.7938 123.734 62.8435 123.852 62.9098H125.702C125.79 62.943 125.878 62.9762 125.966 63.0093C126.084 63.0425 126.186 63.0922 126.275 63.1585H120.063C120.65 63.4238 121.12 63.6725 121.473 63.9047H129.182C129.359 64.0373 129.535 64.1699 129.711 64.3026C129.887 64.4021 130.048 64.5181 130.195 64.6508H120.152C120.21 64.6839 120.269 64.7171 120.327 64.7503C120.386 64.7834 120.43 64.8332 120.46 64.8995H124.689C124.777 64.9658 124.865 65.0487 124.953 65.1482C125.041 65.2477 125.115 65.3306 125.174 65.3969H124.512C124.806 65.6953 125.056 66.0269 125.262 66.3917H122.971C123.029 66.458 123.088 66.5409 123.147 66.6404C123.206 66.7399 123.249 66.8228 123.279 66.8891H132.001L132.398 67.6352H124.204C124.263 67.7679 124.321 67.9005 124.381 68.0331C124.439 68.1326 124.483 68.2487 124.512 68.3813H128.301L128.433 68.8788H129.05L129.182 69.3762H129.975C130.034 69.5088 130.063 69.6746 130.063 69.8736C130.093 70.0394 130.122 70.2052 130.151 70.371L130.195 70.8684H130.46C130.489 70.9347 130.504 71.0176 130.504 71.1171C130.504 71.2166 130.504 71.2995 130.504 71.3658H130.636V72.1119H131.032V72.2611C131.032 72.3938 131.017 72.5264 130.988 72.6591C130.988 72.7917 130.988 72.9409 130.988 73.1067H130.548V73.3554H130.636C130.636 73.4881 130.621 73.6207 130.592 73.7534C130.592 73.8528 130.577 73.9689 130.548 74.1015H130.68L130.548 74.8477H130.9C130.871 74.9803 130.842 75.1129 130.812 75.2456C130.782 75.3451 130.739 75.4611 130.68 75.5938H130.195C130.195 75.6269 130.18 75.6601 130.151 75.6933C130.151 75.7264 130.151 75.7762 130.151 75.8425H131.208L130.944 76.5886H127.992C127.963 76.7212 127.905 76.8539 127.817 76.9865C127.758 77.086 127.699 77.2021 127.64 77.3347H133.851L133.72 77.5834H136.407C136.348 77.7161 136.275 77.8487 136.187 77.9813C136.128 78.0808 136.055 78.1969 135.966 78.3295H130.46C130.43 78.3627 130.401 78.3958 130.371 78.429C130.342 78.4622 130.313 78.5119 130.284 78.5782ZM118.83 57.9357H120.152C120.063 57.9026 119.96 57.886 119.843 57.886C119.755 57.886 119.652 57.886 119.535 57.886C119.417 57.886 119.299 57.886 119.182 57.886C119.064 57.886 118.947 57.9026 118.83 57.9357Z" fill="white"/>
</svg>
