<svg width="265" height="86" viewBox="0 0 265 86" fill="none" xmlns="http://www.w3.org/2000/svg">
<path d="M35.1548 16.7233L35.0226 17.4694H42.2913L42.2032 17.9668H35.5072L35.4632 18.2155H38.2385L38.1063 19.2104H39.0314L38.9433 19.9565H39.4719L39.3398 20.7026H39.3838L39.2957 21.4487H39.4719V21.6974H39.3838L39.2517 22.6922H39.1195L38.9874 23.687L38.8992 24.6819H39.7362L39.6922 24.9306H39.2076V25.1793H40.0887V25.428H38.679L38.6349 25.6767H38.1504L38.0623 26.4228H39.516L39.3838 27.4176H41.0578L40.9697 28.1637H39.6481L39.6041 28.4124H38.9433L38.8111 29.4073H39.1636L39.1195 29.9047H39.516L39.4279 30.6508H38.7671L38.679 31.3969H37.2253L37.1812 31.8943H38.679L38.5468 32.8891H37.5777L37.4896 33.8839H38.3706L38.2825 34.6301H34.8905L34.8024 35.1275H36.0799L36.0358 35.4259V35.6249H37.2253C37.1959 35.6912 37.1665 35.7741 37.1372 35.8736C37.1372 35.9731 37.1078 36.056 37.049 36.1223H36.5645C36.4176 36.4207 36.2267 36.6694 35.9918 36.8684H36.3883C36.2121 37.001 36.0799 37.0839 35.9918 37.1171H36.3442C36.1093 37.2497 35.8156 37.3161 35.4632 37.3161H29.1637C28.9875 37.3161 28.8259 37.2995 28.6791 37.2663C28.5616 37.2 28.4441 37.1503 28.3267 37.1171H27.9743C27.8861 37.0839 27.8127 37.0508 27.754 37.0176C27.6953 36.9513 27.6365 36.9016 27.5778 36.8684H27.2254C27.1079 36.7358 27.0051 36.6031 26.917 36.4705C26.8289 36.3378 26.7555 36.2218 26.6967 36.1223H27.1813C27.1519 36.0891 27.1373 36.0394 27.1373 35.9731L27.0051 35.6249H25.8157L25.6395 35.1275H24.362L24.1857 34.6301H27.5778L27.3135 33.8839H26.3884L26.0359 32.8891H27.0051L26.6527 31.8943H25.1549L24.9787 31.3969H26.3884L26.1241 30.6508H26.7848L26.5205 29.9047H26.1241L25.9478 29.4073H25.5954L25.243 28.4124H25.9038L25.8157 28.1637H27.1373L26.8729 27.4176H25.199L24.8465 26.4228H23.3928L23.1725 25.7762L22.9523 26.4228H22.7761L22.4237 27.4176H25.1549L24.8906 28.1637H22.732L22.6439 28.4124H23.0404L22.688 29.4073H23.4809L23.3047 29.9047H21.1021L20.8378 30.6508H22.0272L21.7629 31.3969H20.3091L20.1329 31.8943H20.8378L20.4853 32.8891H20.5294L20.177 33.8839H17.2695L17.0052 34.6301H21.6307L21.4545 35.1275H20.4853L20.3091 35.6249H20.221L20.0889 35.9731L20.0008 36.1223H18.6351C18.5764 36.2218 18.503 36.3378 18.4149 36.4705C18.3561 36.6031 18.2534 36.7358 18.1065 36.8684H18.3708C18.2827 36.9679 18.1653 37.0508 18.0184 37.1171H19.2078C19.0904 37.1503 18.9582 37.2 18.8114 37.2663C18.6645 37.2995 18.503 37.3161 18.3268 37.3161H12.0273C11.6749 37.3161 11.3812 37.2497 11.1462 37.1171H10.0009C9.91277 37.0839 9.78061 37.001 9.6044 36.8684H9.29603C9.03172 36.6363 8.84083 36.3876 8.72335 36.1223H10.133C10.1037 36.056 10.0743 35.9731 10.0449 35.8736C10.0156 35.7741 9.98619 35.6912 9.95682 35.6249H10.089L10.0449 35.4259L10.0009 35.1275H10.97L10.8819 34.6301H6.30047L6.21237 33.8839H9.07577L8.98767 32.8891H8.94361L8.81146 31.8943H8.10662L8.06257 31.3969H9.47224L9.38414 30.6508H8.23878L8.15067 29.9047H10.3533L10.2652 29.4073H9.47224L9.34009 28.4124H8.94361L8.89956 28.1637H11.0581L10.97 27.4176H8.23878L8.10662 26.4228H8.28283L8.15067 25.6767H8.63525V25.428H10.0449L10.0009 25.1793H9.07577L9.03172 24.9306H9.5163V24.6819H8.63525L8.5912 24.1845H8.54714L8.50309 23.687L8.37093 22.6922H8.50309L8.37093 21.6974H8.45904L8.41499 21.4487H8.23878L8.15067 20.7026H8.10662L8.01851 19.9565H7.48988L7.40178 19.2104H6.47668L6.34452 18.2155H3.56922V17.9668H10.2652L10.2211 17.4694H7.57799L7.48988 16.7233H4.71458L4.67053 16.2259H8.6793L8.54714 15.2311H7.48988V14.9824H8.10662L8.06257 14.7337H8.98767L8.89956 13.9876H7.40178L7.35773 13.7389H3.92164L3.83354 12.744H7.66609L7.53394 11.7492H6.56479L6.52073 11.2518H6.9172L6.8291 10.5057H6.96126L6.9172 10.257H5.55158L5.50753 9.75959H6.43263L6.34452 9.01347H6.43263L6.34452 8.26736H7.09341L7.00531 7.76995H4.62648L4.58243 7.27254H6.47668L6.43263 6.77513H5.33132L5.28727 6.27772H6.65289L6.56479 5.5316H6.12426L5.9921 4.53679H6.47668L6.43263 4.28808L6.34452 3.74093V3.54197H5.68374C5.74247 2.8456 6.06552 2.49741 6.65289 2.49741H14.8466C15.7571 2.49741 16.271 2.8456 16.3885 3.54197H17.0493C17.0786 3.60829 17.0933 3.70777 17.0933 3.84042L17.1374 4.28808L17.1814 4.53679H16.7409L16.829 5.5316H17.2695L17.3576 6.27772H15.9479L16.0361 6.77513H17.0933L17.1374 7.27254H15.2431L15.2872 7.76995H17.666L17.7541 8.26736H17.0052L17.0493 9.01347H17.0052L17.0493 9.75959H16.0801L16.1682 10.257H17.4898L17.5338 10.5057H17.4017L17.4898 11.2518H17.0933L17.1374 11.7492H18.1065L18.2387 12.744H14.3621L14.4502 13.7389H17.8863L17.9303 13.9876H19.4281L19.5162 14.7337H18.5911V14.9824H17.9744L18.0184 15.2311H18.9435L19.0316 14.9824H19.4721L19.5602 14.7337H21.4104L21.6307 13.9876H19.6043L19.6483 13.7389H23.0404L23.3488 12.744H19.7805L20.0448 11.7492H19.6483V11.6497L19.7805 11.2518H20.6175C20.6762 11.1192 20.735 10.9865 20.7937 10.8539C20.8818 10.7212 20.9846 10.6052 21.1021 10.5057H20.8378C20.9846 10.3731 21.1461 10.2902 21.3223 10.257H21.7188C21.8069 10.2238 21.9391 10.2073 22.1153 10.2073H26.6086C26.7848 10.2073 26.9023 10.2238 26.961 10.257H26.5646C26.682 10.2902 26.7702 10.3233 26.8289 10.3565C26.917 10.3896 26.9904 10.4394 27.0492 10.5057H27.3135C27.4603 10.6052 27.5631 10.7212 27.6218 10.8539C27.7099 10.9865 27.7687 11.1192 27.798 11.2518H27.0051C27.0932 11.3845 27.1373 11.5171 27.1373 11.6497L27.1813 11.7492H27.6218L27.8861 12.744H29.6042L29.7363 11.7492H29.472L29.5161 11.2518H31.5865L31.6306 10.5057H29.6923L29.7363 10.257H29.3839L29.472 9.75959H30.2209L30.309 9.01347H30.0447L30.1328 8.26736H30.7496L30.7936 7.76995H28.1064L28.1505 7.27254H28.9434L28.9875 6.77513H30.4852L30.5293 6.27772H30.4852L30.5733 5.5316L30.6614 4.53679H29.7804L29.8245 4.28808H30.8817L30.9698 3.84042V3.54197H31.8068C31.9243 2.8456 32.4382 2.49741 33.3486 2.49741H41.5424C41.7773 2.49741 41.9829 2.59689 42.1591 2.79586C42.3647 2.99482 42.4822 3.24353 42.5115 3.54197H41.7186V3.74093L41.6305 4.28808H40.5292L40.4851 4.53679H41.4102L41.2781 5.5316L41.19 6.27772H41.234L41.1459 6.77513H39.6481L39.6041 7.27254H38.8111L38.723 7.76995H41.4543L41.4102 8.26736H40.7935L40.7054 9.01347H40.9257L40.8376 9.75959H40.0887L40.0006 10.257H40.353L40.3089 10.5057H42.2472L42.1591 11.2518H40.1327L40.0446 11.7492H40.3089L40.1768 12.744H38.5909L38.4587 13.7389H40.397L40.353 13.9876H38.1063L38.0182 14.7337H40.0887V14.9824H39.9565L39.9125 15.2311H40.0446L39.9125 16.2259H40.6173L40.5292 16.7233H35.1548ZM29.8685 13.7389H28.3707L28.4148 13.9876H29.8245L29.8685 13.7389ZM28.8112 14.7337L28.8994 14.9824H28.4588L28.5469 15.2311L28.8553 16.2259H24.0976L24.2298 16.7233H30.0888L30.1328 16.2259H29.428L29.5601 15.2311H29.428L29.472 14.9824H29.5601L29.6042 14.7337H28.8112ZM20.7937 17.4694H20.6616L20.7056 17.8674L20.7937 17.4694ZM31.8068 17.8176L31.8509 17.4694H31.6747L31.8068 17.8176ZM113.556 7.02384H105.362V8.01866H108.49V8.76477H111.882V9.51088H111.794V10.257H113.071V11.2518H108.269V11.5005H107.344V11.8487C107.344 12.0808 107.3 12.2964 107.212 12.4953H110.34C110.134 12.9596 109.797 13.1917 109.327 13.1917H102.014V13.2415H102.454V14.2363H102.543V15.2311H102.322V16.2259H101.75V16.972H103.952V17.4694H102.102V18.2155H101.133V19.2104H102.807V19.7078H102.499V20.7026H102.19V21.6974H101.662V22.6922H101.177V23.4383H102.807V24.1845H102.146V25.1793H102.41V25.428H102.719V25.9254H104.921V26.6715H103.424V27.6663H104.084V28.6611H102.234V29.656H102.983V30.1534H103.291V30.8995H103.996V31.8943H103.732V32.6404H102.587V33.3865H102.454V33.8839H102.41V34.6301H102.895V35.3762H102.499V35.9731C102.499 36.1389 102.484 36.2715 102.454 36.371H102.014C101.926 36.7026 101.764 36.9513 101.529 37.1171H101.617C101.471 37.2497 101.265 37.3161 101.001 37.3161H92.1903C91.9553 37.3161 91.7351 37.2497 91.5295 37.1171H91.4414C91.2358 36.9513 91.0743 36.7026 90.9568 36.371H91.3533C91.3239 36.2715 91.3092 36.1389 91.3092 35.9731V35.3762H91.7057V34.6301H91.2211V33.8839H91.2652V33.3865H91.3973V32.6404H92.5427V31.8943H92.807V30.8995H92.1022V30.1534H91.7938V29.656H91.0449V28.6611H92.8951V27.6663H92.2343V26.6715H93.7321V25.9254H91.5295V25.428H91.2211V25.1793H90.9568V24.1845H91.6176V23.4383H89.9877V22.6922H90.4722V21.6974H91.0009V20.7026H91.3092V19.7078H91.6176V19.2104H89.9436V18.2155H90.9128V17.4694H92.7629V16.972H90.5603V16.2259H91.133V15.2311H91.3533V14.2363H91.2652V13.2415H90.8246V13.1917H83.5119C83.0714 13.1917 82.719 12.9596 82.4547 12.4953H79.327C79.2976 12.3959 79.2682 12.2964 79.2389 12.1969C79.1801 12.0974 79.1508 11.9813 79.1508 11.8487V11.5005H80.0759V11.2518H84.8776V10.257H83.6001V9.51088H83.6882V8.76477H80.2961V8.01866H77.1684V7.02384H85.3622V6.27772H80.7807V5.2829H81.6617V4.28808H82.8071V4.03938H83.4679V3.84042C83.4679 3.50881 83.556 3.24353 83.7322 3.04456H82.7631C82.998 2.67979 83.3211 2.49741 83.7322 2.49741H109.547C109.958 2.49741 110.281 2.67979 110.516 3.04456H111.441C111.588 3.27669 111.661 3.54197 111.661 3.84042V4.03938H111.001V4.28808H109.855V5.2829H108.974V6.27772H113.556V7.02384ZM153.951 13.4902V13.7389H152.894C152.923 13.9047 152.938 14.0705 152.938 14.2363C152.938 14.4021 152.938 14.5679 152.938 14.7337H145.229C145.229 15.1648 145.038 15.4964 144.656 15.7285C144.48 15.7948 144.348 15.828 144.26 15.828H135.273C135.156 15.828 135.038 15.828 134.921 15.828C134.803 15.7948 134.686 15.7617 134.568 15.7285H127.388V15.9772H131.264C131.235 16.143 131.22 16.3088 131.22 16.4746C131.22 16.6404 131.22 16.8062 131.22 16.972H129.678C129.649 17.0383 129.634 17.1212 129.634 17.2207C129.634 17.3202 129.634 17.4031 129.634 17.4694H129.767V17.9668H129.106V18.9617H131.22V19.2104H124.084V19.7078H126.33V20.7026H130.868V20.9513H129.018V21.2H127.828V22.1948H131.22C131.25 22.3275 131.264 22.4601 131.264 22.5927C131.264 22.6922 131.264 22.8083 131.264 22.9409H132.498V23.1896H126.815V23.687H125.537V23.9358H131.264V23.9855H140.075C140.633 23.9855 140.956 24.3005 141.044 24.9306H147.564V25.6767H147.255L147.167 26.6715H146.683L146.639 27.1689H147.784C147.784 27.2684 147.769 27.3513 147.74 27.4176H147.476C147.446 27.4839 147.432 27.5668 147.432 27.6663H148.885L148.753 28.4124H147.387C147.387 28.4456 147.373 28.4788 147.343 28.5119C147.343 28.5451 147.343 28.5948 147.343 28.6611H146.991C146.962 28.7938 146.918 28.9264 146.859 29.0591C146.829 29.1586 146.8 29.2746 146.771 29.4073H147.299C147.299 29.4404 147.27 29.5233 147.211 29.656H146.33C146.271 29.8218 146.198 29.9876 146.11 30.1534C146.051 30.3192 145.978 30.485 145.89 30.6508H146.771L146.374 31.3969H146.771L146.33 32.143H146.066C145.948 32.3088 145.816 32.4746 145.669 32.6404C145.552 32.8062 145.42 32.972 145.273 33.1378H144.921C144.891 33.171 144.862 33.2041 144.832 33.2373C144.803 33.2705 144.759 33.3202 144.7 33.3865H142.806L142.586 33.6352H151.44C151.264 33.801 151.088 33.9668 150.912 34.1326C150.735 34.2985 150.545 34.4643 150.339 34.6301H149.854C149.561 34.8622 149.208 35.1109 148.797 35.3762H139.502C139.208 35.5751 138.9 35.7575 138.577 35.9233C138.254 36.056 137.931 36.2052 137.608 36.371H144.876C144.788 36.4042 144.686 36.4373 144.568 36.4705C144.48 36.5036 144.377 36.5534 144.26 36.6197H142.498C142.38 36.6529 142.263 36.686 142.145 36.7192C142.028 36.7523 141.91 36.8021 141.793 36.8684H138.621C137.564 37.2 136.477 37.4487 135.361 37.6145H136.066C135.596 37.6808 135.112 37.7306 134.612 37.7637C134.113 37.7969 133.614 37.8135 133.115 37.8135C132.557 37.8135 132.013 37.7969 131.485 37.7637C130.985 37.7306 130.486 37.6808 129.987 37.6145H129.282C128.107 37.4487 127.021 37.2 126.022 36.8684H129.194C129.076 36.8021 128.959 36.7523 128.841 36.7192C128.753 36.686 128.651 36.6529 128.533 36.6197H130.339L129.722 36.371H122.454C122.16 36.2052 121.852 36.056 121.529 35.9233C121.235 35.7575 120.941 35.5751 120.648 35.3762H129.987C129.811 35.2435 129.634 35.1275 129.458 35.028C129.282 34.8953 129.12 34.7627 128.974 34.6301H129.458C129.106 34.3316 128.768 34 128.445 33.6352H119.546C119.517 33.5689 119.488 33.5192 119.458 33.486C119.429 33.4529 119.385 33.4197 119.326 33.3865H121.264C121.235 33.3202 121.191 33.2705 121.132 33.2373C121.103 33.2041 121.073 33.171 121.044 33.1378H121.397C121.132 32.8062 120.883 32.4746 120.648 32.143H120.912L120.516 31.3969H120.119L119.723 30.6508H118.842L118.445 29.656H119.37L119.282 29.4073H118.709C118.68 29.2746 118.651 29.1586 118.621 29.0591C118.592 28.9264 118.548 28.7938 118.489 28.6611H118.842L118.753 28.4124H120.119C120.09 28.2798 120.06 28.1637 120.031 28.0642C120.002 27.9316 119.972 27.799 119.943 27.6663H119.238C119.209 27.6 119.194 27.5171 119.194 27.4176H118.445C118.416 27.3513 118.401 27.2684 118.401 27.1689H118.445C118.445 27.0363 118.416 26.8705 118.357 26.6715H115.846L115.714 25.6767H119.106C119.076 25.544 119.062 25.428 119.062 25.3285C119.062 25.1959 119.047 25.0632 119.018 24.9306H119.855C119.855 24.8311 119.855 24.7316 119.855 24.6321C119.855 24.5326 119.84 24.4332 119.811 24.3337V23.9358H114.084V23.687H115.361V23.1896H121.044V22.9409H119.811C119.811 22.8083 119.796 22.6922 119.767 22.5927C119.767 22.4601 119.767 22.3275 119.767 22.1948H116.375V21.2H117.564V20.9513H119.414V20.7026H114.877V19.7078H112.63V19.2104H119.767V18.9617H117.652V17.9668H118.313V17.4694H118.181V16.972H119.767V15.9772H115.934V15.7285H124.392V15.4798C124.421 15.3472 124.436 15.2311 124.436 15.1316C124.436 14.999 124.436 14.8663 124.436 14.7337H122.101C122.101 14.5679 122.101 14.4021 122.101 14.2363C122.131 14.0705 122.16 13.9047 122.189 13.7389H123.599C123.629 13.6725 123.643 13.5896 123.643 13.4902H114.524C114.554 13.4238 114.568 13.3409 114.568 13.2415C114.568 13.142 114.583 13.0591 114.612 12.9927H122.63L122.85 11.9979H121.044L121.176 11.5005H118.225L118.313 11.2518H119.282C119.311 11.1855 119.341 11.1026 119.37 11.0031C119.4 10.9036 119.429 10.8207 119.458 10.7544H118.974L119.15 10.257H119.37C119.429 10.1244 119.488 10.0083 119.546 9.90881C119.605 9.77617 119.649 9.64353 119.679 9.51088H119.723L120.119 8.76477H119.987C120.046 8.63213 120.104 8.51606 120.163 8.41658C120.251 8.28394 120.339 8.1513 120.427 8.01866H120.075C120.192 7.85285 120.31 7.68705 120.427 7.52125C120.545 7.32228 120.662 7.15648 120.78 7.02384H120.383C120.413 6.95752 120.442 6.90777 120.471 6.87461C120.501 6.84145 120.53 6.80829 120.56 6.77513H120.119L120.339 6.52643H120.251C120.31 6.46011 120.354 6.41037 120.383 6.3772C120.413 6.34404 120.442 6.31088 120.471 6.27772H119.679C119.737 6.2114 119.811 6.1285 119.899 6.02902C119.987 5.92954 120.075 5.84663 120.163 5.78031H121.22C121.367 5.64767 121.514 5.53161 121.661 5.43213C121.808 5.29948 121.955 5.16684 122.101 5.0342H121.617L121.969 4.78549H121.22C121.279 4.71917 121.338 4.66943 121.397 4.63627C121.455 4.60311 121.514 4.56995 121.573 4.53679H123.863C124.069 4.40415 124.275 4.28808 124.48 4.1886C124.686 4.05596 124.891 3.92332 125.097 3.79068H124.965C125.141 3.69119 125.317 3.60829 125.493 3.54197C125.67 3.44249 125.846 3.35959 126.022 3.29327H126.859C126.947 3.22694 127.035 3.1772 127.123 3.14404C127.241 3.11088 127.358 3.07772 127.476 3.04456H126.154C127.035 2.67979 127.975 2.43109 128.974 2.29844H130.163C131.308 2.09948 132.512 2 133.775 2C135.009 2 136.198 2.09948 137.344 2.29844H136.198C137.167 2.43109 138.136 2.67979 139.106 3.04456H140.427C140.545 3.07772 140.647 3.11088 140.736 3.14404C140.853 3.1772 140.97 3.22694 141.088 3.29327H140.251C140.692 3.45907 141.059 3.62487 141.352 3.79068H141.484C141.719 3.92332 141.94 4.05596 142.145 4.1886C142.351 4.28808 142.556 4.40415 142.762 4.53679H140.515C140.574 4.56995 140.633 4.60311 140.692 4.63627C140.75 4.66943 140.809 4.71917 140.868 4.78549H141.617C141.675 4.81865 141.734 4.85182 141.793 4.88498C141.852 4.91814 141.896 4.96788 141.925 5.0342H142.41L143.291 5.78031H142.189L142.718 6.27772H143.511L143.775 6.52643H143.819L144.039 6.77513H144.48L144.7 7.02384H145.097C145.214 7.15648 145.332 7.32228 145.449 7.52125C145.567 7.68705 145.684 7.85285 145.802 8.01866H146.11C146.198 8.1513 146.271 8.28394 146.33 8.41658C146.418 8.51606 146.492 8.63213 146.55 8.76477H146.683C146.741 8.89741 146.8 9.03005 146.859 9.1627C146.918 9.26218 146.976 9.37824 147.035 9.51088H146.947C147.006 9.64353 147.064 9.77617 147.123 9.90881C147.182 10.0083 147.226 10.1244 147.255 10.257H147.035L147.167 10.7544H147.652L147.784 11.2518H146.815C146.815 11.285 146.815 11.3181 146.815 11.3513C146.844 11.3845 146.859 11.4342 146.859 11.5005H149.81C149.81 11.6332 149.84 11.799 149.898 11.9979H145.89L146.022 12.9927H148.577L148.621 13.4902H153.951ZM133.731 11.9979H136.859C136.389 11.799 135.86 11.6995 135.273 11.6995C134.686 11.6995 134.172 11.799 133.731 11.9979ZM141.352 14.3855C141.323 14.2529 141.294 14.1368 141.264 14.0373C141.235 13.9378 141.191 13.8383 141.132 13.7389H142.189L142.057 13.4902H136.771C136.741 13.3907 136.697 13.3078 136.639 13.2415C136.58 13.142 136.521 13.0591 136.462 12.9927H126.463C126.433 13.0591 126.389 13.142 126.33 13.2415C126.301 13.3078 126.257 13.3907 126.198 13.4902H135.317L135.229 13.7389H133.819C133.761 13.8715 133.717 14.0373 133.687 14.2363C133.658 14.4021 133.628 14.5679 133.599 14.7337H141.484L141.352 14.3855ZM136.154 24.9306H130.515L130.648 25.6767H127.256C127.314 25.8756 127.373 26.058 127.432 26.2238C127.49 26.3565 127.564 26.5057 127.652 26.6715H130.163C130.222 26.771 130.28 26.8705 130.339 26.9699C130.398 27.0363 130.457 27.1026 130.515 27.1689H130.427L130.648 27.4176H131.396C131.455 27.4508 131.514 27.5005 131.573 27.5668C131.631 27.6 131.69 27.6332 131.749 27.6663H132.454C132.953 27.9648 133.555 28.114 134.26 28.114C134.965 28.114 135.552 27.9648 136.022 27.6663H134.568L134.921 27.4176H135.185L135.449 27.1689H134.304C134.363 27.1026 134.421 27.0363 134.48 26.9699C134.568 26.8705 134.627 26.771 134.656 26.6715H135.141C135.317 26.3731 135.464 26.0415 135.581 25.6767H135.89L135.978 25.428C136.037 25.229 136.095 25.0632 136.154 24.9306ZM187.845 25.6767V25.9254H191.282V26.4228H191.105V27.1689H181.987V27.4176H183.572V28.1637H188.418V28.6611H185.907V29.656H185.775V29.9047H182.868V30.6508H187.185V30.8995H187.361V31.6456H187.801V32.6404H179.299V33.3865H188.286V33.8839H185.29V34.6301H184.894V35.1275H185.907V35.6249H185.246V36.1223H186.788L186.656 36.6197H188.727C188.668 36.7192 188.594 36.8187 188.506 36.9181C188.448 36.9845 188.374 37.0508 188.286 37.1171H189.299C189.152 37.2497 188.947 37.3161 188.682 37.3161H180.048C179.784 37.3161 179.578 37.2497 179.431 37.1171H178.418C178.213 37.0176 178.066 36.8518 177.978 36.6197H175.907L175.775 36.1223H174.233V35.6249H174.894V35.1275H173.881V34.6301H174.277V33.8839H177.273V33.3865H169.299V33.8839H165.643V34.6301H168.154V35.1275H167.537V35.6249H169.828V36.1223H167.361L167.229 36.6197H168.198C168.081 36.8518 167.948 37.0176 167.802 37.1171H166.744C166.598 37.2497 166.392 37.3161 166.128 37.3161H157.493C157.2 37.3161 156.979 37.2497 156.833 37.1171H157.89C157.743 37.0176 157.611 36.8518 157.493 36.6197H156.48C156.392 36.4539 156.348 36.2881 156.348 36.1223H158.815V35.6249H156.524V35.1275H157.141V34.6301H154.63V33.8839H158.286V33.3865H160.401V32.6404H153.617V31.6456H156.128V30.8995H157.89V30.6508H156.656V29.9047H154.586V29.656H155.026V28.6611H156.436V28.1637H157.097V27.4176H153.925V27.1689H162.075V26.4228H152.119V25.9254H161.502V25.6767H156.921V24.9306H159.564V24.6819H160.092V24.4332H159.872V23.4383H155.511V22.6922H156.965V22.4435H156.568V21.6974H156.744V21.4487H156.789V20.9513H156.833V20.7026H156.26V20.4539H154.542V19.7078H155.115V18.9617H154.233V18.2155H156.436V17.2207H155.952V16.7233H152.736V16.4746H157.89V15.9772H159.123V15.7285H147.229V15.4798H154.233V15.2311H156.744V14.485H152.251V13.4902H151.018V12.744H156.304V11.7492H156.744V11.0031H159.564V10.7544H157.141V9.75959H159.123V9.26218H156.744V9.01347H155.907V8.51606H154.63V8.01866H153.088V7.02384H155.863V6.27772H157.537V5.5316H156.744V5.0342H155.643V4.78549H156.26V4.28808H156.128V3.84042C156.128 3.60829 156.172 3.42591 156.26 3.29327H159.079C159.109 3.19378 159.153 3.11088 159.211 3.04456C159.27 2.94508 159.329 2.86218 159.388 2.79586H166.172C166.348 2.59689 166.598 2.49741 166.921 2.49741H183.837C184.13 2.49741 184.38 2.59689 184.586 2.79586H191.37C191.428 2.86218 191.487 2.94508 191.546 3.04456C191.634 3.11088 191.693 3.19378 191.722 3.29327H186.039C186.098 3.49223 186.127 3.67461 186.127 3.84042V4.28808H186.348V4.78549H186.964V5.0342H185.775V5.5316H185.246V6.27772H186.964V7.02384H182.824V8.01866H187.581V8.51606H184.145V9.01347H185.555V9.26218H184.85V9.75959H188.154V10.7544H183.308V11.0031H187.053V11.7492H186.392V12.744H182.868V13.4902H181.414V14.485H185.907V15.2311H183.396V15.4798H176.392V15.7285H188.286V15.9772H187.053V16.4746H181.898V16.7233H185.114V17.2207H185.599V18.2155H183.396V18.9617H184.277V19.7078H183.705V20.4539H185.423V20.7026H185.995V20.9513H185.951V21.4487H185.907V21.6974H185.731V22.4435H186.127V22.6922H184.674V23.4383H189.035V24.4332H189.255V24.6819H188.727V24.9306H186.083V25.6767H187.845ZM162.031 12.744V13.4902H163.264V14.286H170.401V13.4902H171.854V12.744H175.379V11.7492H176.039V11.0031H172.295V10.7544H177.141V9.75959H173.837V9.26218H174.542V9.01347H173.132V8.51606H176.568V8.01866H171.81V7.02384H175.951V6.27772H174.233V5.5316H174.762V5.0342H175.951V4.78549H175.335V4.28808H175.114V3.84042C175.114 3.67461 175.144 3.49223 175.202 3.29327H180.885C180.944 3.19378 181.003 3.11088 181.061 3.04456C181.12 2.94508 181.179 2.86218 181.238 2.79586H169.52C169.667 2.9285 169.784 3.0943 169.872 3.29327H167.053C167.111 3.39275 167.141 3.57513 167.141 3.84042V4.28808H167.273V4.78549H166.656V5.0342H167.758V5.5316H168.551V6.27772H166.877V7.02384H164.101V8.01866H165.643V8.51606H166.921V9.01347H167.758V9.26218H170.136V9.75959H168.154V10.7544H170.577V11.0031H167.758V11.7492H167.317V12.744H162.031ZM180.268 26.4228V25.9254H176.832V25.6767H175.07V25.229H167.934V25.6767H172.515V25.9254H163.132V26.4228H173.088V27.1689H180.092V26.4228H180.268ZM177.405 28.1637H172.559V27.4176H170.973V27.1689H164.938V27.4176H168.11V28.1637H167.449V28.6611H166.04V29.656H165.599V29.9047H167.669V30.6508H168.903V30.8995H167.141V31.6456H164.63V32.6404H176.788V31.6456H176.348V30.8995H176.172V30.6508H171.854V29.9047H174.762V29.656H174.894V28.6611H177.405V28.1637ZM223.901 28.6611H227.381V29.4073H220.685V30.4021H225.002V31.3969H221.213V32.3917H221.698V33.1378H221.39V33.6352H220.464V34.1326H220.42V34.6301H221.345V35.6249H222.623V35.9731C222.623 36.0394 222.608 36.0891 222.579 36.1223H214.738C214.708 36.1886 214.694 36.2715 214.694 36.371H217.733C217.645 36.7026 217.484 36.9513 217.249 37.1171H216.412C216.265 37.2497 216.059 37.3161 215.795 37.3161H192.844C192.609 37.3161 192.388 37.2497 192.183 37.1171H193.02C192.814 36.9513 192.653 36.7026 192.535 36.371H189.452C189.422 36.3047 189.408 36.2218 189.408 36.1223H197.293V35.6249H196.015V34.6301H195.09V34.1326H195.134V33.6352H196.059V33.1378H196.368V32.3917H195.883V31.3969H199.672V30.4021H195.355V29.4073H202.051V28.6611H198.57V28.1637H199.584V27.6663H200.024V27.1689H195.134V26.6715H193.989V25.9254H198.086V25.6767H194.826V25.1793H195.795V24.6819H196.5V23.9358H196.412V22.9409H195.971V21.9461H195.311V21.4487H195.839V20.4539H195.355V19.9565H196.059V19.2104H196.236V18.4643H197.029V18.2155H196.28V17.2207H195.619V16.4746H195.795V15.7285H195.883V14.7337H196.544V13.7389H195.575V12.744H195.707V11.7492H196.94V11.0031H196.28V10.257H195.927V10.0083H197.777V9.26218H201.037V8.76477H199.716V8.26736H195.443V8.01866H195.927V7.27254H195.971V6.52643H196.103V5.5316H196.059V4.28808H195.971V3.84042C195.971 3.70777 195.986 3.60829 196.015 3.54197H195.575C195.692 2.8456 196.074 2.49741 196.72 2.49741H219.319C219.995 2.49741 220.376 2.8456 220.464 3.54197H220.905C220.934 3.60829 220.949 3.70777 220.949 3.84042V4.28808H221.037V5.5316H221.081V6.52643H220.949V7.27254H220.905V8.01866H220.42V8.26736H224.693V8.76477H226.015V9.26218H222.755V10.0083H220.905V10.257H221.257V11.0031H221.918C221.859 11.3347 221.757 11.5834 221.61 11.7492H220.376C220.171 12.0477 219.877 12.1969 219.495 12.1969H206.28V12.744H206.147V13.7389H207.117V14.7337H206.456V15.3306H218.702C219.025 15.3306 219.304 15.4632 219.539 15.7285H219.451C219.598 15.8943 219.701 16.143 219.76 16.4746H219.627V17.2207H220.288V18.2155H221.037V18.4643H220.244V19.2104H220.068V19.9565H219.363V20.4539H219.848V21.4487H219.319V21.9461H219.98V22.9409H220.42V23.1399C220.42 23.5047 220.347 23.7699 220.2 23.9358H220.288C220.053 24.3005 219.73 24.4829 219.319 24.4829H207.073V24.6819H206.368V25.1793H205.399V25.6767H208.658V25.9254H204.562V26.6715H205.707V27.1689H210.597V27.6166H224.165C224.312 27.6166 224.429 27.6332 224.517 27.6663H224.033C224.326 27.7658 224.547 27.9316 224.693 28.1637H223.68C223.798 28.3627 223.871 28.5285 223.901 28.6611ZM264.296 10.257C264.355 10.3896 264.414 10.5223 264.472 10.6549C264.531 10.7544 264.575 10.8705 264.604 11.0031H262.975C263.033 11.1358 263.092 11.3016 263.151 11.5005C263.21 11.6663 263.268 11.8321 263.327 11.9979H256.411L256.675 12.9927H260.243L260.375 13.7389H259.891C259.92 13.8052 259.935 13.8881 259.935 13.9876C259.935 14.087 259.95 14.17 259.979 14.2363H258.79L258.834 14.7337H259.759C259.759 14.8663 259.759 14.999 259.759 15.1316C259.788 15.2311 259.803 15.3472 259.803 15.4798H261.433C261.462 15.6124 261.477 15.7285 261.477 15.828C261.477 15.9275 261.477 16.0435 261.477 16.1762V16.2259H257.336C257.336 16.3917 257.336 16.5575 257.336 16.7233C257.365 16.8891 257.38 17.0549 257.38 17.2207H258.305C258.305 17.3865 258.305 17.5523 258.305 17.7181C258.334 17.8839 258.349 18.0497 258.349 18.2155H259.935V18.4643H259.318V19.4591H259.494V20.2052H262.094V21.2H259.627V21.6974H259.362C259.362 21.7637 259.362 21.8466 259.362 21.9461C259.362 22.0456 259.348 22.1285 259.318 22.1948H258.525V23.1896H258.613C258.584 23.2891 258.569 23.4218 258.569 23.5876V23.687H260.199C260.199 23.8197 260.185 23.9523 260.155 24.085C260.155 24.1845 260.155 24.3005 260.155 24.4332H260.816C260.816 24.599 260.801 24.7648 260.772 24.9306C260.772 25.0964 260.757 25.2622 260.728 25.428H259.759C259.729 25.4943 259.715 25.5772 259.715 25.6767C259.715 25.7762 259.7 25.8591 259.671 25.9254H254.384C254.384 26.058 254.355 26.2238 254.296 26.4228H258.922C258.863 26.6218 258.834 26.7876 258.834 26.9202H259.494C259.465 27.0529 259.436 27.1855 259.406 27.3181C259.406 27.4176 259.377 27.5337 259.318 27.6663L259.186 28.1637H257.909L257.82 28.4124H259.891C259.832 28.5451 259.803 28.628 259.803 28.6611H258.481L258.393 28.9098H258.349C258.29 29.0757 258.232 29.2415 258.173 29.4073C258.114 29.5731 258.041 29.7389 257.953 29.9047H257.292L256.807 30.8995H257.556L257.292 31.3969H257.336C257.277 31.4632 257.218 31.5461 257.16 31.6456C257.101 31.7451 257.042 31.828 256.983 31.8943H256.675C256.587 31.9938 256.528 32.0767 256.499 32.143C256.411 32.2756 256.323 32.4083 256.235 32.5409C256.146 32.6404 256.044 32.7565 255.926 32.8891H255.794C255.647 33.0549 255.486 33.2207 255.309 33.3865C255.163 33.5523 255.001 33.7181 254.825 33.8839H255.221L254.296 34.6301H254.34C254.105 34.7959 253.856 34.9617 253.591 35.1275C253.327 35.2933 253.048 35.4591 252.754 35.6249H252.71C252.417 35.7907 252.05 35.9565 251.609 36.1223H251.653C251.066 36.3544 250.449 36.5534 249.803 36.7192C249.157 36.885 248.496 37.0176 247.821 37.1171H248.746C248.276 37.1834 247.791 37.2332 247.292 37.2663C246.793 37.2995 246.279 37.3161 245.75 37.3161H232.843C232.578 37.3161 232.373 37.2497 232.226 37.1171H231.301C231.007 36.9181 230.831 36.5865 230.772 36.1223H230.728V35.6249H230.816V34.6301H230.728V33.8839H230.376V32.8891H230.508V32.143H230.464V31.8943H230.816V31.3969H230.772V30.8995H229.979V29.9047H230.684V28.9098H230.728V28.6611H232.05V28.4124H230.023V28.1637H231.301V26.9202H230.684V26.4228H230.64V25.9254H231.785V25.428H226.719V24.4332H226.543V23.687H227.116V23.1896H228.922V22.1948H230.067V21.6974H230.728V21.2H231.433V20.2052H232.446V19.4591H233.415V18.4643H230.464V18.2155H229.495V17.2207H227.556V16.2259H232.578V15.4798H228.702V14.7337H230.816V14.2363H230.728V13.7389H230.376V12.9927H228.482V11.9979H235.354V11.0031H236.984V10.257H229.054V9.26218H234.252V9.01347H230.156V8.76477H238.481V7.76995H237.424V7.52125H226.94V6.52643H228.217V5.78031H230.948V5.5316H232.402V5.0342H231.609V4.78549H230.684V4.28808H230.772V3.84042C230.772 3.7741 230.772 3.72435 230.772 3.69119C230.802 3.62487 230.816 3.57513 230.816 3.54197H230.993C231.139 2.8456 231.536 2.49741 232.182 2.49741H244.869C247.13 2.49741 249.186 2.8456 251.036 3.54197H250.86C251.389 3.74093 251.932 3.98964 252.49 4.28808H252.402C252.549 4.35441 252.696 4.4373 252.842 4.53679C253.019 4.60311 253.166 4.68601 253.283 4.78549H254.208L254.605 5.0342H255.354C255.5 5.10052 255.618 5.18342 255.706 5.2829C255.823 5.38239 255.941 5.46529 256.058 5.5316H254.605C254.663 5.56477 254.722 5.59793 254.781 5.63109C254.84 5.66425 254.884 5.71399 254.913 5.78031H252.182L253.019 6.52643H251.697C252.02 6.82487 252.314 7.15648 252.578 7.52125H263.063C263.092 7.55441 263.121 7.58757 263.151 7.62073C263.18 7.65389 263.209 7.70363 263.239 7.76995H264.34C264.458 7.90259 264.575 8.0684 264.693 8.26736C264.81 8.43316 264.913 8.59897 265.001 8.76477H256.675C256.704 8.79793 256.734 8.83109 256.763 8.86425C256.793 8.89741 256.822 8.94715 256.851 9.01347H260.948L261.08 9.26218H255.882C256.088 9.59378 256.249 9.92539 256.367 10.257H264.296ZM248.746 13.7389C248.569 13.4404 248.349 13.1917 248.085 12.9927H244.517C243.87 12.4622 243.078 12.1969 242.138 12.1969H239.495V12.9927H241.389V13.7389H241.741V14.2363H241.829V14.7337H239.715V15.4798H243.592V16.2259H238.57V17.2207H240.508V18.2155H241.477V18.4643H244.428V19.4591H243.459V20.2052H242.446V21.2H241.741V21.6974H241.081V22.1948H239.935V23.1896H238.129V23.687H237.556V24.4332H237.733V25.428H242.799V25.9254H241.653V26.4228H241.697V26.9202H242.314V27.6166H245.177C246.029 27.6166 246.749 27.3845 247.336 26.9202H246.631C246.719 26.8539 246.807 26.7876 246.895 26.7212C246.984 26.6218 247.057 26.5223 247.116 26.4228H242.534C242.593 26.3565 242.652 26.2902 242.71 26.2238C242.769 26.1244 242.813 26.0249 242.843 25.9254H248.129C248.188 25.8591 248.232 25.7927 248.261 25.7264C248.29 25.6269 248.32 25.5275 248.349 25.428H249.362C249.421 25.2622 249.465 25.0964 249.495 24.9306C249.524 24.7648 249.553 24.599 249.583 24.4332H248.922C248.951 24.3005 248.966 24.1845 248.966 24.085C248.966 23.9523 248.981 23.8197 249.01 23.687H247.38V23.5876C247.38 23.5212 247.38 23.4549 247.38 23.3886C247.409 23.3223 247.424 23.256 247.424 23.1896H247.336C247.336 23.0238 247.336 22.858 247.336 22.6922C247.336 22.4933 247.351 22.3275 247.38 22.1948H248.173V21.6974H248.437L248.481 21.2H250.948V20.2052H248.349V19.4591H248.173V18.4643H248.79V18.2155H247.16V17.2207H246.191C246.191 17.0549 246.191 16.8891 246.191 16.7233C246.191 16.5575 246.176 16.3917 246.147 16.2259H250.287V16.1762C250.287 16.0435 250.273 15.9275 250.243 15.828C250.243 15.6953 250.243 15.5793 250.243 15.4798H248.613C248.584 15.3472 248.555 15.2311 248.525 15.1316C248.496 14.999 248.467 14.8663 248.437 14.7337H247.512C247.483 14.6342 247.453 14.5513 247.424 14.485C247.395 14.3855 247.365 14.3026 247.336 14.2363H248.525C248.496 14.1368 248.452 14.0539 248.393 13.9876C248.364 13.8881 248.32 13.8052 248.261 13.7389H248.746ZM36.3883 55.2104H28.1945V56.2052H31.3222V56.9513H34.7143V57.6974H34.6262V58.4435H35.9037V59.4383H31.102V59.6871H30.1769V60.0352C30.1769 60.2674 30.1328 60.4829 30.0447 60.6819H33.1724C32.9669 61.1461 32.6291 61.3782 32.1592 61.3782H24.8465V61.428H25.2871V62.4228H25.3752V63.4176H25.1549V64.4124H24.5822V65.1585H26.7848V65.656H24.9346V66.4021H23.9655V67.3969H25.6395V67.8943H25.3311V68.8891H25.0227V69.8839H24.4941V70.8788H24.0095V71.6249H25.6395V72.371H24.9787V73.3658H25.243V73.6145H25.5514V74.1119H27.754V74.858H26.2562V75.8528H26.917V76.8477H25.0668V77.8425H25.8157V78.3399H26.1241V79.086H26.8289V80.0808H26.5646V80.8269H25.4192V81.5731H25.2871V82.0705H25.243V82.8166H25.7276V83.5627H25.3311V84.1596C25.3311 84.3254 25.3164 84.458 25.2871 84.5575H24.8465C24.7584 84.8891 24.5969 85.1378 24.362 85.3036H24.4501C24.3032 85.4363 24.0976 85.5026 23.8333 85.5026H15.0228C14.7879 85.5026 14.5676 85.4363 14.3621 85.3036H14.274C14.0684 85.1378 13.9069 84.8891 13.7894 84.5575H14.1859C14.1565 84.458 14.1418 84.3254 14.1418 84.1596V83.5627H14.5383V82.8166H14.0537V82.0705H14.0977V81.5731H14.2299V80.8269H15.3753V80.0808H15.6396V79.086H14.9347V78.3399H14.6264V77.8425H13.8775V76.8477H15.7277V75.8528H15.0669V74.858H16.5647V74.1119H14.3621V73.6145H14.0537V73.3658H13.7894V72.371H14.4502V71.6249H12.8202V70.8788H13.3048V69.8839H13.8334V68.8891H14.1418V67.8943H14.4502V67.3969H12.7762V66.4021H13.7453V65.656H15.5955V65.1585H13.3929V64.4124H13.9656V63.4176H14.1859V62.4228H14.0977V61.428H13.6572V61.3782H6.34452C5.904 61.3782 5.55158 61.1461 5.28727 60.6819H2.15954C2.13018 60.5824 2.10081 60.4829 2.07144 60.3834C2.0127 60.2839 1.98334 60.1679 1.98334 60.0352V59.6871H2.90844V59.4383H7.71015V58.4435H6.43263V57.6974H6.52073V56.9513H3.1287V56.2052H0.000976562V55.2104H8.19472V54.4643H3.61327V53.4694H4.49432V52.4746H5.63968V52.2259H6.30047V52.0269C6.30047 51.6953 6.38858 51.4301 6.56479 51.2311H5.59563C5.83058 50.8663 6.15363 50.6839 6.56479 50.6839H32.3795C32.7906 50.6839 33.1137 50.8663 33.3486 51.2311H34.2737C34.4206 51.4632 34.494 51.7285 34.494 52.0269V52.2259H33.8332V52.4746H32.6879V53.4694H31.8068V54.4643H36.3883V55.2104ZM73.3849 73.8632V74.1119H76.821V74.6093H76.6448V75.3554H67.526V75.6041H69.1119V76.3503H73.9576V76.8477H71.4466V77.8425H71.3145V78.0912H68.407V78.8373H72.7242V79.086H72.9004V79.8321H73.3409V80.8269H64.8388V81.5731H73.8255V82.0705H70.8299V82.8166H70.4334V83.314H71.4466V83.8114H70.7859V84.3088H72.3277L72.1955 84.8062H74.266C74.2073 84.9057 74.1338 85.0052 74.0457 85.1047C73.987 85.171 73.9136 85.2373 73.8255 85.3036H74.8387C74.6918 85.4363 74.4863 85.5026 74.2219 85.5026H65.5877C65.3234 85.5026 65.1178 85.4363 64.9709 85.3036H63.9577C63.7522 85.2041 63.6053 85.0383 63.5172 84.8062H61.4467L61.3146 84.3088H59.7728V83.8114H60.4335V83.314H59.4203V82.8166H59.8168V82.0705H62.8124V81.5731H54.8389V82.0705H51.1825V82.8166H53.6935V83.314H53.0768V83.8114H55.3675V84.3088H52.9006L52.7684 84.8062H53.7376C53.6201 85.0383 53.4879 85.2041 53.3411 85.3036H52.2838C52.137 85.4363 51.9314 85.5026 51.6671 85.5026H43.0326C42.7389 85.5026 42.5187 85.4363 42.3718 85.3036H43.4291C43.2822 85.2041 43.1501 85.0383 43.0326 84.8062H42.0194C41.9313 84.6404 41.8872 84.4746 41.8872 84.3088H44.3542V83.8114H42.0634V83.314H42.6802V82.8166H40.1692V82.0705H43.8255V81.5731H45.9403V80.8269H39.156V79.8321H41.667V79.086H43.4291V78.8373H42.1956V78.0912H40.1251V77.8425H40.5657V76.8477H41.9753V76.3503H42.6361V75.6041H39.4644V75.3554H47.6143V74.6093H37.6582V74.1119H47.0416V73.8632H42.4599V73.1171H45.1031V72.8684H45.6317V72.6197H45.4114V71.6249H41.0502V70.8788H42.504V70.6301H42.1075V69.8839H42.2837V69.6352H42.3278V69.1378H42.3718V68.8891H41.7991V68.6404H40.0811V67.8943H40.6538V67.1482H39.7727V66.4021H41.9753V65.4073H41.4908V64.9098H38.2749V64.6611H43.4291V64.1637H44.6625V63.915H32.7684V63.6663H39.7727V63.4176H42.2837V62.6715H37.7904V61.6767H36.5569V60.9306H41.8432V59.9358H42.2837V59.1896H45.1031V58.9409H42.6802V57.9461H44.6625V57.4487H42.2837V57.2H41.4467V56.7026H40.1692V56.2052H38.6274V55.2104H41.4027V54.4643H43.0767V53.7181H42.2837V53.2207H41.1824V52.972H41.7991V52.4746H41.667V52.0269C41.667 51.7948 41.711 51.6124 41.7991 51.4798H44.6185C44.6479 51.3803 44.6919 51.2974 44.7506 51.2311C44.8094 51.1316 44.8681 51.0487 44.9269 50.9824H51.7112C51.8874 50.7834 52.137 50.6839 52.46 50.6839H69.3762C69.6699 50.6839 69.9195 50.7834 70.1251 50.9824H76.9091C76.9679 51.0487 77.0266 51.1316 77.0853 51.2311C77.1734 51.2974 77.2322 51.3803 77.2616 51.4798H71.5788C71.6375 51.6788 71.6669 51.8611 71.6669 52.0269V52.4746H71.8872V52.972H72.5039V53.2207H71.3145V53.7181H70.7859V54.4643H72.5039V55.2104H68.363V56.2052H73.1206V56.7026H69.6845V57.2H71.0942V57.4487H70.3894V57.9461H73.6933V58.9409H68.8475V59.1896H72.592V59.9358H71.9312V60.9306H68.407V61.6767H66.9533V62.6715H71.4466V63.4176H68.9356V63.6663H61.9313V63.915H73.8255V64.1637H72.592V64.6611H67.4379V64.9098H70.6537V65.4073H71.1383V66.4021H68.9356V67.1482H69.8167V67.8943H69.244V68.6404H70.9621V68.8891H71.5347V69.1378H71.4907V69.6352H71.4466V69.8839H71.2704V70.6301H71.6669V70.8788H70.2132V71.6249H74.5744V72.6197H74.7946V72.8684H74.266V73.1171H71.6228V73.8632H73.3849ZM47.5702 60.9306V61.6767H48.8037V62.4725H55.9402V61.6767H57.3939V60.9306H60.9181V59.9358H61.5789V59.1896H57.8344V58.9409H62.6802V57.9461H59.3763V57.4487H60.0811V57.2H58.6714V56.7026H62.1075V56.2052H57.3499V55.2104H61.4908V54.4643H59.7728V53.7181H60.3014V53.2207H61.4908V52.972H60.8741V52.4746H60.6538V52.0269C60.6538 51.8611 60.6832 51.6788 60.7419 51.4798H66.4247C66.4834 51.3803 66.5421 51.2974 66.6009 51.2311C66.6596 51.1316 66.7183 51.0487 66.7771 50.9824H55.0591C55.206 51.115 55.3235 51.2808 55.4116 51.4798H52.5922C52.6509 51.5793 52.6803 51.7617 52.6803 52.0269V52.4746H52.8125V52.972H52.1957V53.2207H53.297V53.7181H54.09V54.4643H52.416V55.2104H49.6407V56.2052H51.1825V56.7026H52.46V57.2H53.297V57.4487H55.6759V57.9461H53.6935V58.9409H56.1164V59.1896H53.297V59.9358H52.8565V60.9306H47.5702ZM65.8079 74.6093V74.1119H62.3718V73.8632H60.6097V73.4155H53.4733V73.8632H58.0547V74.1119H48.6715V74.6093H58.6274V75.3554H65.6317V74.6093H65.8079ZM62.9445 76.3503H58.0988V75.6041H56.5129V75.3554H50.4777V75.6041H53.6495V76.3503H52.9887V76.8477H51.579V77.8425H51.1385V78.0912H53.2089V78.8373H54.4424V79.086H52.6803V79.8321H50.1693V80.8269H62.3278V79.8321H61.8873V79.086H61.7111V78.8373H57.3939V78.0912H60.3014V77.8425H60.4335V76.8477H62.9445V76.3503ZM98.4269 59.1896H91.2464V60.1845H94.1098V61.1793H97.8983V61.9254H93.6252V62.1741H94.1538V63.1689H93.0525V63.4176H92.9644V63.6663H91.8631V64.6611H93.9336V64.9098H94.0217V65.1585H93.5371V65.9047H93.2287V66.1534H94.6824V67.1482H91.1582V68.143H92.4358V68.8891H93.1406V69.8839H93.2287V70.8788H92.8763V72.1223H93.2728V72.6197H93.0085V73.3658H92.9644V73.6145H92.612V74.6093H93.0085V75.1067H92.9644V78.0912H93.0085V79.086H93.7573V80.0808H93.1406V80.5782H92.9644V81.0756H93.493V82.0705H92.7441V82.3192H93.8455V82.8166H94.2419V83.0653H93.8895V83.8114H93.7133V84.1596C93.7133 84.2259 93.6986 84.2922 93.6692 84.3585C93.6692 84.4249 93.6546 84.4912 93.6252 84.5575H92.5239C92.4945 84.7233 92.4064 84.8891 92.2596 85.0549H93.493C93.3756 85.1876 93.2875 85.2705 93.2287 85.3036H90.7177C90.5709 85.4363 90.3653 85.5026 90.101 85.5026H81.1143C80.85 85.5026 80.6444 85.4363 80.4976 85.3036H83.0086C82.8911 85.2705 82.803 85.1876 82.7442 85.0549H81.5108C81.3639 84.8891 81.2758 84.7233 81.2465 84.5575H82.3918C82.3625 84.458 82.3478 84.3254 82.3478 84.1596V83.8114H82.524V83.0653H82.8764V82.8166H82.4799V82.3192H81.3786V82.0705H82.1275V81.0756H81.5989V80.5782H81.7751V80.0808H82.3918V79.086H81.6429V78.0912H81.5989V75.1067H81.6429V74.6093H81.2465V73.6145H81.5989V73.3658H81.6429V72.6197H81.9072V72.1223H81.5108V70.8788H81.8632V69.8839H81.7751V68.8891H81.0702V68.143H79.7927V67.1482H83.3169V66.1534H81.8632V65.9047H82.1716V65.1585H82.6561V64.9098H82.568V64.6611H80.4976V63.6663H81.5989V63.4176H81.687V63.1689H82.7883V62.1741H82.2597V61.9254H86.5327V61.1793H82.7442V60.1845H79.8808V59.1896H87.0614V58.9409H82.568V58.1948H82.524V57.4487H81.731V57.2H84.4182V56.7026H82.3918V55.7078H82.568V54.9617H81.3346V53.9668H81.5548V53.4694H81.4227V52.972H81.7751V52.7233H81.3786V52.0269C81.3786 51.8611 81.408 51.6788 81.4667 51.4798H81.687C81.8926 50.9492 82.2597 50.6839 82.7883 50.6839H91.775C92.3036 50.6839 92.6707 50.9492 92.8763 51.4798H92.656C92.7148 51.6788 92.7441 51.8611 92.7441 52.0269V52.7233H93.1406V52.972H92.7882V53.4694H92.9203V53.9668H92.7001V54.9617H93.9336V55.7078H93.7573V56.7026H95.7838V57.2H93.0966V57.4487H93.8895V58.1948H93.9336V58.9409H98.4269V59.1896ZM130.284 80.5782H128.478L128.081 81.0756H134.822C134.792 81.1088 134.763 81.142 134.733 81.1751C134.704 81.2083 134.66 81.258 134.601 81.3243H124.205C124.058 81.4902 123.897 81.656 123.72 81.8218C123.573 81.9876 123.411 82.1534 123.235 82.3192H126.452L125.879 82.8166H131.87L131.518 83.0653H128.919C128.889 83.0984 128.83 83.1316 128.742 83.1648C128.684 83.1979 128.625 83.2477 128.566 83.314H125.615L124.381 84.0601H126.099C125.717 84.2591 125.335 84.4414 124.953 84.6072C124.572 84.7399 124.176 84.8891 123.764 85.0549H122.178C121.18 85.3865 120.093 85.6352 118.919 85.801H119.139C118.669 85.8674 118.184 85.9171 117.685 85.9502C117.185 85.9834 116.686 86 116.187 86C115.629 86 115.071 85.9834 114.513 85.9502C113.984 85.9171 113.47 85.8674 112.971 85.801H112.795C111.532 85.6352 110.401 85.3865 109.403 85.0549H110.989C110.548 84.8891 110.137 84.7399 109.755 84.6072C109.373 84.4414 108.992 84.2591 108.61 84.0601H106.892C106.686 83.9275 106.481 83.8114 106.275 83.7119C106.07 83.5793 105.864 83.4466 105.658 83.314H108.654L108.302 83.0653H110.901C110.871 82.999 110.827 82.9492 110.768 82.9161C110.71 82.8829 110.651 82.8497 110.592 82.8166H104.601C104.484 82.7502 104.381 82.6673 104.293 82.5679C104.205 82.4684 104.117 82.3855 104.028 82.3192H100.769C100.622 82.1534 100.475 81.9876 100.328 81.8218C100.152 81.656 99.9903 81.4902 99.8435 81.3243H110.24C110.21 81.258 110.181 81.2083 110.152 81.1751C110.122 81.142 110.093 81.1088 110.064 81.0756H103.324C103.206 80.943 103.089 80.7772 102.971 80.5782H104.777C104.748 80.5119 104.719 80.4622 104.689 80.429C104.66 80.3958 104.63 80.3627 104.601 80.3295H110.108L109.711 79.5834H106.98L106.848 79.3347H100.636C100.607 79.2021 100.563 79.086 100.504 78.9865C100.446 78.8539 100.387 78.7212 100.328 78.5886H103.28L103.015 77.8425H101.958L101.87 77.5938H102.354C102.325 77.4611 102.296 77.3451 102.266 77.2456C102.237 77.1129 102.208 76.9803 102.178 76.8477H101.826C101.826 76.715 101.811 76.599 101.782 76.4995C101.782 76.3668 101.767 76.2342 101.738 76.1015H101.385C101.385 75.9689 101.371 75.8528 101.341 75.7534C101.341 75.6539 101.341 75.5378 101.341 75.4052V75.3554H101.297C101.297 75.2891 101.297 75.2394 101.297 75.2062C101.327 75.1731 101.341 75.1399 101.341 75.1067H102.354C102.501 74.5762 102.81 74.3109 103.28 74.3109H111.65C112.119 74.3109 112.472 74.3772 112.707 74.5098C112.942 74.6425 113.206 74.8414 113.5 75.1067H112.487L112.531 75.1565C112.59 75.1896 112.633 75.2228 112.663 75.256C112.721 75.2891 112.766 75.3223 112.795 75.3554H112.839C113.221 75.687 113.691 75.9357 114.249 76.1015H114.645C115.027 76.2342 115.541 76.3005 116.187 76.3005C116.569 76.3005 116.921 76.2839 117.244 76.2508C117.567 76.2176 117.846 76.1679 118.081 76.1015H117.949C118.624 75.9357 119.051 75.687 119.227 75.3554H119.139C119.198 75.2228 119.227 75.1399 119.227 75.1067H119.667L119.711 74.9078C119.711 74.6093 119.608 74.344 119.403 74.1119H119.051C118.786 73.8135 118.316 73.5648 117.641 73.3658H117.509C117.245 73.2663 116.936 73.1834 116.584 73.1171C116.231 73.0176 115.82 72.9347 115.35 72.8684H115.086L113.279 72.5699C113.074 72.5368 112.868 72.5036 112.663 72.4705C112.486 72.4373 112.296 72.4041 112.09 72.371C110.886 72.1389 109.726 71.8072 108.61 71.3762H107.817C107.406 71.2103 107.024 71.0446 106.672 70.8788H106.055C105.908 70.8124 105.761 70.7461 105.614 70.6798C105.467 70.5803 105.321 70.4808 105.174 70.3813H101.341C101.136 70.2487 100.945 70.1326 100.769 70.0331C100.592 69.9005 100.416 69.7679 100.24 69.6352H108.434C108.287 69.5026 108.14 69.3865 107.993 69.287C107.876 69.1544 107.744 69.0218 107.597 68.8891H98.8303C98.7421 68.8228 98.6687 68.7399 98.61 68.6404C98.5219 68.5409 98.4485 68.458 98.3897 68.3917H100.68C100.416 68.0601 100.167 67.7285 99.9316 67.3969H100.592L100.328 66.8995H96.099C96.0696 66.8332 96.0403 66.7834 96.0109 66.7503C95.9815 66.7171 95.9669 66.6839 95.9669 66.6508H106.011C105.952 66.5181 105.893 66.4021 105.835 66.3026C105.776 66.1699 105.717 66.0373 105.658 65.9047H97.9492L97.6849 65.1585H103.896L103.808 64.9098H101.958L101.87 64.6611H102.751C102.751 64.5948 102.736 64.5451 102.707 64.5119C102.707 64.4788 102.707 64.4456 102.707 64.4124H102.531L102.398 63.915H102.134L102.09 63.4176H102.002V63.1689H100.592C100.563 63.1026 100.548 63.0197 100.548 62.9202C100.548 62.8207 100.548 62.7378 100.548 62.6715H99.2708L99.2267 62.1741H104.249C104.219 62.1078 104.205 62.0249 104.205 61.9254C104.205 61.8259 104.205 61.743 104.205 61.6767H104.909V61.6269C104.909 61.4611 104.909 61.2953 104.909 61.1295C104.909 60.9637 104.924 60.8145 104.954 60.6819H103.059C103.089 60.5492 103.103 60.4332 103.103 60.3337C103.103 60.201 103.118 60.0684 103.147 59.9358H106.231C106.231 59.8694 106.231 59.8197 106.231 59.7865C106.26 59.7534 106.275 59.7202 106.275 59.6871H103.147C103.206 59.4881 103.235 59.3223 103.235 59.1896H102.751L102.883 58.6922H102.134C102.222 58.3275 102.325 57.9959 102.443 57.6974H102.795L102.971 57.2H103.456L103.852 56.4539H103.412C103.5 56.3212 103.573 56.2052 103.632 56.1057C103.72 55.9731 103.793 55.8404 103.852 55.7078H103.5L104.028 54.9617H104.954C104.983 54.8953 105.012 54.8456 105.042 54.8124C105.071 54.7793 105.1 54.7461 105.13 54.713H103.896C104.014 54.5803 104.131 54.4643 104.249 54.3648C104.366 54.2321 104.484 54.0995 104.601 53.9668H105.306C105.482 53.801 105.658 53.6352 105.835 53.4694C106.011 53.2705 106.202 53.1047 106.407 52.972H107.2C107.376 52.8394 107.553 52.7233 107.729 52.6238C107.905 52.4912 108.096 52.3586 108.302 52.2259H108.169C108.228 52.1596 108.302 52.1098 108.39 52.0767C108.478 52.0435 108.551 52.0104 108.61 51.9772H107.993C108.052 51.9109 108.125 51.8611 108.213 51.828C108.302 51.7948 108.39 51.7617 108.478 51.7285H108.037C108.448 51.5295 108.874 51.3472 109.315 51.1814C109.785 51.0155 110.255 50.8663 110.724 50.7337H111.385C112.061 50.5679 112.765 50.4352 113.5 50.3358C114.263 50.2363 115.056 50.1865 115.879 50.1865C117.436 50.1865 118.904 50.3689 120.284 50.7337H119.667C120.607 50.9658 121.518 51.2974 122.399 51.7285H122.795C122.883 51.7617 122.971 51.7948 123.059 51.828C123.148 51.8611 123.235 51.9109 123.323 51.9772H123.94C123.999 52.0104 124.073 52.0435 124.161 52.0767C124.249 52.1098 124.322 52.1596 124.381 52.2259H124.513C124.719 52.3586 124.91 52.4912 125.085 52.6238C125.292 52.7233 125.482 52.8394 125.659 52.972H124.909C125.144 53.1047 125.35 53.2705 125.526 53.4694C125.732 53.6352 125.923 53.801 126.099 53.9668H125.438L126.143 54.713H127.376L127.596 54.9617H126.672C126.789 55.0943 126.892 55.2269 126.98 55.3596C127.097 55.4591 127.2 55.5751 127.289 55.7078H127.641L128.169 56.4539H128.566L128.962 57.2H128.478C128.566 57.3658 128.639 57.5316 128.698 57.6974H128.345C128.434 57.8632 128.507 58.029 128.566 58.1948C128.625 58.3606 128.684 58.5264 128.742 58.6922H129.491C129.55 58.8912 129.579 59.057 129.579 59.1896H130.108C130.137 59.256 130.152 59.3389 130.152 59.4383C130.152 59.5378 130.166 59.6207 130.196 59.6871H133.324V59.9358H130.504C130.534 60.0684 130.548 60.2508 130.548 60.4829V60.6819H128.919C128.801 61.2788 128.507 61.5772 128.037 61.5772H119.227C118.815 61.5772 118.478 61.5109 118.214 61.3782C117.978 61.2456 117.729 61.0466 117.464 60.7814L117.332 60.6819H118.962C118.815 60.5492 118.61 60.4166 118.345 60.2839C118.081 60.1181 117.743 60.0021 117.332 59.9358H115.746C115.13 60.0352 114.704 60.2839 114.469 60.6819H116.363C116.275 60.8808 116.231 61.0798 116.231 61.2788C116.231 61.4446 116.246 61.5772 116.275 61.6767H115.614C115.644 61.8425 115.761 62.0083 115.967 62.1741H110.989C111.165 62.3399 111.473 62.5057 111.914 62.6715H113.191C113.426 62.771 113.705 62.8705 114.028 62.97C114.381 63.0363 114.748 63.1026 115.13 63.1689H116.539C116.774 63.2021 117.024 63.2352 117.288 63.2684C117.553 63.3016 117.832 63.3513 118.126 63.4176H118.169C118.669 63.4839 119.153 63.5668 119.623 63.6663C120.093 63.7326 120.533 63.8155 120.945 63.915H121.209C121.561 63.9814 121.884 64.0643 122.178 64.1637C122.501 64.2301 122.809 64.313 123.103 64.4124H123.279C123.426 64.4456 123.558 64.4788 123.676 64.5119C123.793 64.5451 123.911 64.5948 124.029 64.6611H123.192C123.309 64.6943 123.412 64.7275 123.5 64.7606C123.617 64.7938 123.735 64.8435 123.852 64.9098H125.702C125.791 64.943 125.879 64.9762 125.967 65.0093C126.084 65.0425 126.187 65.0922 126.275 65.1585H120.064C120.651 65.4238 121.121 65.6725 121.474 65.9047H129.182C129.359 66.0373 129.535 66.1699 129.711 66.3026C129.888 66.4021 130.049 66.5181 130.196 66.6508H120.152C120.211 66.6839 120.27 66.7171 120.328 66.7503C120.387 66.7834 120.431 66.8332 120.46 66.8995H124.689C124.778 66.9658 124.865 67.0487 124.953 67.1482C125.041 67.2477 125.115 67.3306 125.174 67.3969H124.513C124.806 67.6953 125.056 68.0269 125.262 68.3917H122.971C123.03 68.458 123.089 68.5409 123.148 68.6404C123.206 68.7399 123.25 68.8228 123.279 68.8891H132.002L132.399 69.6352H124.205C124.263 69.7679 124.322 69.9005 124.381 70.0331C124.44 70.1326 124.483 70.2487 124.513 70.3813H128.302L128.434 70.8788H129.051L129.182 71.3762H129.975C130.035 71.5088 130.064 71.6746 130.064 71.8736C130.093 72.0394 130.123 72.2052 130.152 72.371L130.196 72.8684H130.46C130.49 72.9347 130.504 73.0176 130.504 73.1171C130.504 73.2166 130.504 73.2995 130.504 73.3658H130.636V74.1119H131.033V74.2611C131.033 74.3938 131.018 74.5264 130.989 74.6591C130.989 74.7917 130.989 74.9409 130.989 75.1067H130.548V75.3554H130.636C130.636 75.4881 130.621 75.6207 130.592 75.7534C130.592 75.8528 130.577 75.9689 130.548 76.1015H130.681L130.548 76.8477H130.901C130.871 76.9803 130.842 77.1129 130.812 77.2456C130.783 77.3451 130.739 77.4611 130.681 77.5938H130.196C130.196 77.6269 130.181 77.6601 130.152 77.6933C130.152 77.7264 130.152 77.7762 130.152 77.8425H131.209L130.945 78.5886H127.993C127.964 78.7212 127.905 78.8539 127.817 78.9865C127.758 79.086 127.7 79.2021 127.641 79.3347H133.852L133.72 79.5834H136.407C136.349 79.7161 136.275 79.8487 136.187 79.9813C136.128 80.0808 136.055 80.1969 135.967 80.3295H130.46C130.431 80.3627 130.401 80.3958 130.372 80.429C130.343 80.4622 130.314 80.5119 130.284 80.5782ZM118.83 59.9358H120.152C120.064 59.9026 119.961 59.886 119.844 59.886C119.755 59.886 119.652 59.886 119.535 59.886C119.418 59.886 119.3 59.886 119.182 59.886C119.065 59.886 118.948 59.9026 118.83 59.9358Z" fill="#E7438A"/>
<path d="M77.4623 58L82 46.7766C76.0241 39.4736 71.1409 33.4637 67.2098 28.4055C65.4592 31.0558 63.3378 33.9263 60.9425 37.0055C66.2964 43.5184 72.491 50.6449 77.4623 58Z" fill="#FE68A8"/>
<path d="M54.5578 8.74197C59.3877 7.47279 62.0388 7.45934 66.8744 8.74197C69.9849 9.97962 71.7018 11.7218 72.2835 13.938C70.1156 -3.31267 50.6683 -3.31265 49.1734 13.938C49.8415 11.8719 51.5391 10.1218 54.5578 8.74197Z" fill="#FE68A8"/>
<path d="M54.5578 8.74197C51.5391 10.1218 49.8415 11.8719 49.1734 13.938C47.8817 17.9323 50.438 23.1075 54.7352 29.0706C57.0959 26.0463 59.1435 23.1187 61.0035 20.0719C57.8039 15.503 55.7243 11.8939 54.5578 8.74197Z" fill="#FE68A8"/>
<path d="M39 46.7766L43.9698 58C50.2113 50.2209 56.13 43.1919 60.9425 37.0055C63.3378 33.9263 65.4592 31.0558 67.2098 28.4055C71.1677 22.4137 73.231 17.5472 72.2835 13.938C71.7018 11.7218 69.9849 9.97962 66.8744 8.74197C65.0384 12.8967 63.1453 16.5634 61.0035 20.0719C59.1435 23.1187 57.0959 26.0463 54.7352 29.0706C50.6467 34.3083 45.6191 39.8362 39 46.7766Z" fill="#FE68A8"/>
<path d="M66.8744 8.74197C62.0388 7.45934 59.3877 7.47279 54.5578 8.74197M66.8744 8.74197C69.9849 9.97962 71.7018 11.7218 72.2835 13.938M66.8744 8.74197C65.0384 12.8967 63.1453 16.5634 61.0035 20.0719M54.5578 8.74197C51.5391 10.1218 49.8415 11.8719 49.1734 13.938M54.5578 8.74197C55.7243 11.8939 57.8039 15.503 61.0035 20.0719M49.1734 13.938C50.6683 -3.31265 70.1156 -3.31267 72.2835 13.938M49.1734 13.938C47.8817 17.9323 50.438 23.1075 54.7352 29.0706M72.2835 13.938C73.231 17.5472 71.1677 22.4137 67.2098 28.4055M54.7352 29.0706C57.0959 26.0463 59.1435 23.1187 61.0035 20.0719M54.7352 29.0706C50.6467 34.3083 45.6191 39.8362 39 46.7766L43.9698 58C50.2113 50.2209 56.13 43.1919 60.9425 37.0055M67.2098 28.4055C71.1409 33.4637 76.0241 39.4736 82 46.7766L77.4623 58C72.491 50.6449 66.2964 43.5184 60.9425 37.0055M67.2098 28.4055C65.4592 31.0558 63.3378 33.9263 60.9425 37.0055" stroke="#E7438A"/>
</svg>
