<svg width="262" height="82" viewBox="0 0 262 82" fill="none" xmlns="http://www.w3.org/2000/svg">
<path d="M99.3873 51.0238H91.1935V52.0187H94.3213V52.7648H97.7133V53.5109H97.6252V54.257H98.9027V55.2518H94.101V55.5005H93.1759V55.8487C93.1759 56.0808 93.1318 56.2964 93.0437 56.4953H96.1715C95.9659 56.9596 95.6281 57.1917 95.1583 57.1917H87.8456V57.2415H88.2861V58.2363H88.3742V59.2311H88.1539V60.2259H87.5812V60.972H89.7839V61.4694H87.9337V62.2155H86.9645V63.2104H88.6385V63.7078H88.3301V64.7026H88.0218V65.6974H87.4931V66.6922H87.0086V67.4383H88.6385V68.1845H87.9777V69.1793H88.242V69.428H88.5504V69.9254H90.753V70.6715H89.2552V71.6663H89.916V72.6611H88.0658V73.656H88.8147V74.1534H89.1231V74.8995H89.8279V75.8943H89.5636V76.6404H88.4182V77.3865H88.2861V77.8839H88.242V78.6301H88.7266V79.3762H88.3301V79.9731C88.3301 80.1389 88.3154 80.2715 88.2861 80.371H87.8456C87.7575 80.7026 87.5959 80.9513 87.361 81.1171H87.4491C87.3022 81.2497 87.0967 81.3161 86.8323 81.3161H78.0219C77.7869 81.3161 77.5667 81.2497 77.3611 81.1171H77.273C77.0674 80.9513 76.9059 80.7026 76.7884 80.371H77.1849C77.1555 80.2715 77.1408 80.1389 77.1408 79.9731V79.3762H77.5373V78.6301H77.0527V77.8839H77.0968V77.3865H77.2289V76.6404H78.3743V75.8943H78.6386V74.8995H77.9338V74.1534H77.6254V73.656H76.8765V72.6611H78.7267V71.6663H78.0659V70.6715H79.5637V69.9254H77.3611V69.428H77.0527V69.1793H76.7884V68.1845H77.4492V67.4383H75.8193V66.6922H76.3038V65.6974H76.8325V64.7026H77.1408V63.7078H77.4492V63.2104H75.7752V62.2155H76.7443V61.4694H78.5946V60.972H76.3919V60.2259H76.9646V59.2311H77.1849V58.2363H77.0968V57.2415H76.6562V57.1917H69.3435C68.903 57.1917 68.5506 56.9596 68.2863 56.4953H65.1586C65.1292 56.3959 65.0998 56.2964 65.0705 56.1969C65.0117 56.0974 64.9824 55.9813 64.9824 55.8487V55.5005H65.9075V55.2518H70.7092V54.257H69.4317V53.5109H69.5198V52.7648H66.1277V52.0187H63V51.0238H71.1937V50.2777H66.6123V49.2829H67.4933V48.2881H68.6387V48.0394H69.2995V47.8404C69.2995 47.5088 69.3876 47.2435 69.5638 47.0446H68.5947C68.8296 46.6798 69.1527 46.4974 69.5638 46.4974H95.3785C95.7897 46.4974 96.1127 46.6798 96.3477 47.0446H97.2728C97.4196 47.2767 97.493 47.542 97.493 47.8404V48.0394H96.8322V48.2881H95.6869V49.2829H94.8058V50.2777H99.3873V51.0238ZM136.384 69.6767V69.9254H139.82V70.4228H139.644V71.1689H130.525V71.4176H132.111V72.1637H136.957V72.6611H134.446V73.656H134.313V73.9047H131.406V74.6508H135.723V74.8995H135.899V75.6456H136.34V76.6404H127.838V77.3865H136.824V77.8839H133.829V78.6301H133.432V79.1275H134.446V79.6249H133.785V80.1223H135.327L135.195 80.6197H137.265C137.206 80.7192 137.133 80.8187 137.045 80.9181C136.986 80.9845 136.913 81.0508 136.824 81.1171H137.838C137.691 81.2497 137.485 81.3161 137.221 81.3161H128.587C128.322 81.3161 128.117 81.2497 127.97 81.1171H126.957C126.751 81.0176 126.604 80.8518 126.516 80.6197H124.446L124.314 80.1223H122.772V79.6249H123.433V79.1275H122.419V78.6301H122.816V77.8839H125.811V77.3865H117.838V77.8839H114.182V78.6301H116.693V79.1275H116.076V79.6249H118.367V80.1223H115.9L115.767 80.6197H116.737C116.619 80.8518 116.487 81.0176 116.34 81.1171H115.283C115.136 81.2497 114.93 81.3161 114.666 81.3161H106.032C105.738 81.3161 105.518 81.2497 105.371 81.1171H106.428C106.281 81.0176 106.149 80.8518 106.032 80.6197H105.018C104.93 80.4539 104.886 80.2881 104.886 80.1223H107.353V79.6249H105.062V79.1275H105.679V78.6301H103.168V77.8839H106.825V77.3865H108.939V76.6404H102.155V75.6456H104.666V74.8995H106.428V74.6508H105.195V73.9047H103.124V73.656H103.565V72.6611H104.974V72.1637H105.635V71.4176H102.463V71.1689H110.613V70.4228H100.657V69.9254H110.041V69.6767H105.459V68.9306H108.102V68.6819H108.631V68.4332H108.41V67.4383H104.049V66.6922H105.503V66.4435H105.107V65.6974H105.283V65.4487H105.327V64.9513H105.371V64.7026H104.798V64.4539H103.08V63.7078H103.653V62.9617H102.772V62.2155H104.974V61.2207H104.49V60.7233H101.274V60.4746H106.428V59.9772H107.662V59.7285H95.7674V59.4798H102.772V59.2311H105.283V58.485H100.789V57.4902H99.5559V56.744H104.842V55.7492H105.283V55.0031H108.102V54.7544H105.679V53.7596H107.662V53.2622H105.283V53.0135H104.446V52.5161H103.168V52.0187H101.626V51.0238H104.402V50.2777H106.076V49.5316H105.283V49.0342H104.181V48.7855H104.798V48.2881H104.666V47.8404C104.666 47.6083 104.71 47.4259 104.798 47.2933H107.618C107.647 47.1938 107.691 47.1109 107.75 47.0446C107.808 46.9451 107.867 46.8622 107.926 46.7959H114.71C114.886 46.5969 115.136 46.4974 115.459 46.4974H132.375C132.669 46.4974 132.919 46.5969 133.124 46.7959H139.908C139.967 46.8622 140.026 46.9451 140.084 47.0446C140.172 47.1109 140.231 47.1938 140.261 47.2933H134.578C134.637 47.4922 134.666 47.6746 134.666 47.8404V48.2881H134.886V48.7855H135.503V49.0342H134.313V49.5316H133.785V50.2777H135.503V51.0238H131.362V52.0187H136.12V52.5161H132.684V53.0135H134.093V53.2622H133.388V53.7596H136.692V54.7544H131.847V55.0031H135.591V55.7492H134.93V56.744H131.406V57.4902H129.952V58.485H134.446V59.2311H131.935V59.4798H124.93V59.7285H136.824V59.9772H135.591V60.4746H130.437V60.7233H133.653V61.2207H134.137V62.2155H131.935V62.9617H132.816V63.7078H132.243V64.4539H133.961V64.7026H134.534V64.9513H134.49V65.4487H134.446V65.6974H134.269V66.4435H134.666V66.6922H133.212V67.4383H137.573V68.4332H137.794V68.6819H137.265V68.9306H134.622V69.6767H136.384ZM110.569 56.744V57.4902H111.803V58.286H118.939V57.4902H120.393V56.744H123.917V55.7492H124.578V55.0031H120.833V54.7544H125.679V53.7596H122.375V53.2622H123.08V53.0135H121.67V52.5161H125.107V52.0187H120.349V51.0238H124.49V50.2777H122.772V49.5316H123.3V49.0342H124.49V48.7855H123.873V48.2881H123.653V47.8404C123.653 47.6746 123.682 47.4922 123.741 47.2933H129.424C129.482 47.1938 129.541 47.1109 129.6 47.0446C129.659 46.9451 129.717 46.8622 129.776 46.7959H118.058C118.205 46.9285 118.322 47.0943 118.411 47.2933H115.591C115.65 47.3927 115.679 47.5751 115.679 47.8404V48.2881H115.811V48.7855H115.195V49.0342H116.296V49.5316H117.089V50.2777H115.415V51.0238H112.64V52.0187H114.182V52.5161H115.459V53.0135H116.296V53.2622H118.675V53.7596H116.693V54.7544H119.115V55.0031H116.296V55.7492H115.856V56.744H110.569ZM128.807 70.4228V69.9254H125.371V69.6767H123.609V69.229H116.472V69.6767H121.054V69.9254H111.671V70.4228H121.626V71.1689H128.631V70.4228H128.807ZM125.944 72.1637H121.098V71.4176H119.512V71.1689H113.477V71.4176H116.648V72.1637H115.988V72.6611H114.578V73.656H114.137V73.9047H116.208V74.6508H117.441V74.8995H115.679V75.6456H113.168V76.6404H125.327V75.6456H124.886V74.8995H124.71V74.6508H120.393V73.9047H123.3V73.656H123.433V72.6611H125.944V72.1637ZM161.426 55.0031H154.245V55.9979H157.109V56.9927H160.897V57.7389H156.624V57.9876H157.153V58.9824H156.052V59.2311H155.963V59.4798H154.862V60.4746H156.933V60.7233H157.021V60.972H156.536V61.7181H156.228V61.9668H157.681V62.9617H154.157V63.9565H155.435V64.7026H156.14V65.6974H156.228V66.6922H155.875V67.9357H156.272V68.4332H156.007V69.1793H155.963V69.428H155.611V70.4228H156.007V70.9202H155.963V73.9047H156.007V74.8995H156.756V75.8943H156.14V76.3917H155.963V76.8891H156.492V77.8839H155.743V78.1327H156.844V78.6301H157.241V78.8788H156.889V79.6249H156.712V79.9731C156.712 80.0394 156.698 80.1057 156.668 80.172C156.668 80.2383 156.654 80.3047 156.624 80.371H155.523C155.494 80.5368 155.405 80.7026 155.259 80.8684H156.492C156.375 81.001 156.286 81.0839 156.228 81.1171H153.717C153.57 81.2497 153.364 81.3161 153.1 81.3161H144.113C143.849 81.3161 143.643 81.2497 143.497 81.1171H146.008C145.89 81.0839 145.802 81.001 145.743 80.8684H144.51C144.363 80.7026 144.275 80.5368 144.245 80.371H145.391C145.361 80.2715 145.347 80.1389 145.347 79.9731V79.6249H145.523V78.8788H145.875V78.6301H145.479V78.1327H144.378V77.8839H145.127V76.8891H144.598V76.3917H144.774V75.8943H145.391V74.8995H144.642V73.9047H144.598V70.9202H144.642V70.4228H144.245V69.428H144.598V69.1793H144.642V68.4332H144.906V67.9357H144.51V66.6922H144.862V65.6974H144.774V64.7026H144.069V63.9565H142.792V62.9617H146.316V61.9668H144.862V61.7181H145.171V60.972H145.655V60.7233H145.567V60.4746H143.497V59.4798H144.598V59.2311H144.686V58.9824H145.787V57.9876H145.259V57.7389H149.532V56.9927H145.743V55.9979H142.88V55.0031H150.06V54.7544H145.567V54.0083H145.523V53.2622H144.73V53.0135H147.417V52.5161H145.391V51.5212H145.567V50.7751H144.334V49.7803H144.554V49.2829H144.422V48.7855H144.774V48.5368H144.378V47.8404C144.378 47.6746 144.407 47.4922 144.466 47.2933H144.686C144.892 46.7627 145.259 46.4974 145.787 46.4974H154.774C155.303 46.4974 155.67 46.7627 155.875 47.2933H155.655C155.714 47.4922 155.743 47.6746 155.743 47.8404V48.5368H156.14V48.7855H155.787V49.2829H155.919V49.7803H155.699V50.7751H156.933V51.5212H156.756V52.5161H158.783V53.0135H156.096V53.2622H156.889V54.0083H156.933V54.7544H161.426V55.0031ZM193.283 76.3917H191.477L191.081 76.8891H197.821C197.791 76.9223 197.762 76.9554 197.732 76.9886C197.703 77.0218 197.659 77.0715 197.6 77.1378H187.204C187.057 77.3036 186.896 77.4694 186.719 77.6352C186.572 77.801 186.411 77.9668 186.234 78.1327H189.451L188.878 78.6301H194.869L194.517 78.8788H191.918C191.888 78.9119 191.829 78.9451 191.741 78.9782C191.683 79.0114 191.624 79.0611 191.565 79.1275H188.614L187.38 79.8736H189.098C188.716 80.0725 188.334 80.2549 187.952 80.4207C187.571 80.5534 187.175 80.7026 186.763 80.8684H185.178C184.179 81.2 183.092 81.4487 181.918 81.6145H182.138C181.668 81.6808 181.183 81.7306 180.684 81.7637C180.184 81.7969 179.685 81.8135 179.186 81.8135C178.628 81.8135 178.07 81.7969 177.512 81.7637C176.983 81.7306 176.469 81.6808 175.97 81.6145H175.794C174.531 81.4487 173.4 81.2 172.402 80.8684H173.988C173.547 80.7026 173.136 80.5534 172.754 80.4207C172.372 80.2549 171.991 80.0725 171.609 79.8736H169.891C169.685 79.7409 169.48 79.6249 169.274 79.5254C169.069 79.3928 168.863 79.2601 168.657 79.1275H171.653L171.301 78.8788H173.9C173.87 78.8124 173.826 78.7627 173.767 78.7295C173.709 78.6964 173.65 78.6632 173.591 78.6301H167.6C167.483 78.5637 167.38 78.4808 167.292 78.3813C167.204 78.2819 167.116 78.199 167.027 78.1327H163.768C163.621 77.9668 163.474 77.801 163.327 77.6352C163.151 77.4694 162.989 77.3036 162.842 77.1378H173.239C173.209 77.0715 173.18 77.0218 173.151 76.9886C173.121 76.9554 173.092 76.9223 173.063 76.8891H166.323C166.205 76.7565 166.088 76.5907 165.97 76.3917H167.776C167.747 76.3254 167.718 76.2756 167.688 76.2425C167.659 76.2093 167.63 76.1762 167.6 76.143H173.107L172.71 75.3969H169.979L169.847 75.1482H163.635C163.606 75.0155 163.562 74.8995 163.503 74.8C163.445 74.6674 163.386 74.5347 163.327 74.4021H166.279L166.014 73.656H164.957L164.869 73.4073H165.353C165.324 73.2746 165.295 73.1586 165.265 73.0591C165.236 72.9264 165.207 72.7938 165.177 72.6611H164.825C164.825 72.5285 164.81 72.4124 164.781 72.313C164.781 72.1803 164.766 72.0477 164.737 71.915H164.384C164.384 71.7824 164.37 71.6663 164.34 71.5668C164.34 71.4674 164.34 71.3513 164.34 71.2187V71.1689H164.296C164.296 71.1026 164.296 71.0529 164.296 71.0197C164.326 70.9865 164.34 70.9534 164.34 70.9202H165.353C165.5 70.3896 165.809 70.1243 166.279 70.1243H174.649C175.118 70.1243 175.471 70.1907 175.706 70.3233C175.941 70.456 176.205 70.6549 176.499 70.9202H175.486L175.53 70.9699C175.589 71.0031 175.632 71.0363 175.662 71.0694C175.72 71.1026 175.765 71.1357 175.794 71.1689H175.838C176.22 71.5005 176.69 71.7492 177.248 71.915H177.644C178.026 72.0477 178.54 72.114 179.186 72.114C179.568 72.114 179.92 72.0974 180.243 72.0642C180.566 72.0311 180.845 71.9813 181.08 71.915H180.948C181.623 71.7492 182.05 71.5005 182.226 71.1689H182.138C182.197 71.0363 182.226 70.9534 182.226 70.9202H182.666L182.71 70.7212C182.71 70.4228 182.607 70.1575 182.402 69.9254H182.05C181.785 69.6269 181.315 69.3782 180.64 69.1793H180.508C180.244 69.0798 179.935 68.9969 179.583 68.9306C179.23 68.8311 178.819 68.7482 178.349 68.6819H178.085L176.278 68.3834C176.073 68.3503 175.867 68.3171 175.662 68.2839C175.486 68.2508 175.295 68.2176 175.089 68.1845C173.885 67.9523 172.725 67.6207 171.609 67.1896H170.816C170.405 67.0238 170.023 66.858 169.671 66.6922H169.054C168.907 66.6259 168.76 66.5596 168.613 66.4933C168.467 66.3938 168.32 66.2943 168.173 66.1948H164.34C164.135 66.0622 163.944 65.9461 163.768 65.8466C163.591 65.714 163.415 65.5814 163.239 65.4487H171.433C171.286 65.3161 171.139 65.2 170.992 65.1005C170.875 64.9679 170.743 64.8352 170.596 64.7026H161.829C161.741 64.6363 161.668 64.5534 161.609 64.4539C161.521 64.3544 161.447 64.2715 161.389 64.2052H163.679C163.415 63.8736 163.166 63.542 162.931 63.2104H163.591L163.327 62.713H159.098C159.069 62.6466 159.039 62.5969 159.01 62.5637C158.981 62.5306 158.966 62.4974 158.966 62.4643H169.01C168.951 62.3316 168.892 62.2155 168.834 62.1161C168.775 61.9834 168.716 61.8508 168.657 61.7181H160.948L160.684 60.972H166.895L166.807 60.7233H164.957L164.869 60.4746H165.75C165.75 60.4083 165.735 60.3585 165.706 60.3254C165.706 60.2922 165.706 60.2591 165.706 60.2259H165.53L165.398 59.7285H165.133L165.089 59.2311H165.001V58.9824H163.591C163.562 58.9161 163.547 58.8332 163.547 58.7337C163.547 58.6342 163.547 58.5513 163.547 58.485H162.27L162.226 57.9876H167.248C167.218 57.9212 167.204 57.8383 167.204 57.7389C167.204 57.6394 167.204 57.5565 167.204 57.4902H167.909V57.4404C167.909 57.2746 167.909 57.1088 167.909 56.943C167.909 56.7772 167.923 56.628 167.953 56.4953H166.058C166.088 56.3627 166.102 56.2466 166.102 56.1472C166.102 56.0145 166.117 55.8819 166.146 55.7492H169.23C169.23 55.6829 169.23 55.6332 169.23 55.6C169.259 55.5668 169.274 55.5337 169.274 55.5005H166.146C166.205 55.3016 166.235 55.1358 166.235 55.0031H165.75L165.882 54.5057H165.133C165.221 54.1409 165.324 53.8093 165.442 53.5109H165.794L165.97 53.0135H166.455L166.851 52.2674H166.411C166.499 52.1347 166.572 52.0187 166.631 51.9192C166.719 51.7865 166.793 51.6539 166.851 51.5212H166.499L167.027 50.7751H167.953C167.982 50.7088 168.011 50.6591 168.041 50.6259C168.07 50.5927 168.099 50.5596 168.129 50.5264H166.895C167.013 50.3938 167.13 50.2777 167.248 50.1782C167.365 50.0456 167.483 49.913 167.6 49.7803H168.305C168.481 49.6145 168.657 49.4487 168.834 49.2829C169.01 49.0839 169.201 48.9181 169.406 48.7855H170.199C170.375 48.6529 170.552 48.5368 170.728 48.4373C170.904 48.3047 171.095 48.172 171.301 48.0394H171.168C171.227 47.9731 171.301 47.9233 171.389 47.8902C171.477 47.857 171.55 47.8238 171.609 47.7907H170.992C171.051 47.7244 171.124 47.6746 171.212 47.6415C171.301 47.6083 171.389 47.5751 171.477 47.542H171.036C171.447 47.343 171.873 47.1606 172.314 46.9948C172.784 46.829 173.254 46.6798 173.723 46.5472H174.384C175.06 46.3814 175.765 46.2487 176.499 46.1492C177.262 46.0497 178.055 46 178.878 46C180.435 46 181.903 46.1824 183.283 46.5472H182.666C183.606 46.7793 184.517 47.1109 185.398 47.542H185.794C185.882 47.5751 185.97 47.6083 186.058 47.6415C186.147 47.6746 186.234 47.7244 186.322 47.7907H186.939C186.998 47.8238 187.072 47.857 187.16 47.8902C187.248 47.9233 187.321 47.9731 187.38 48.0394H187.512C187.718 48.172 187.909 48.3047 188.085 48.4373C188.291 48.5368 188.481 48.6529 188.658 48.7855H187.908C188.143 48.9181 188.349 49.0839 188.525 49.2829C188.731 49.4487 188.922 49.6145 189.098 49.7803H188.437L189.142 50.5264H190.375L190.596 50.7751H189.671C189.788 50.9078 189.891 51.0404 189.979 51.1731C190.096 51.2725 190.199 51.3886 190.288 51.5212H190.64L191.168 52.2674H191.565L191.961 53.0135H191.477C191.565 53.1793 191.638 53.3451 191.697 53.5109H191.344C191.433 53.6767 191.506 53.8425 191.565 54.0083C191.624 54.1741 191.683 54.3399 191.741 54.5057H192.49C192.549 54.7047 192.578 54.8705 192.578 55.0031H193.107C193.136 55.0694 193.151 55.1523 193.151 55.2518C193.151 55.3513 193.165 55.4342 193.195 55.5005H196.323V55.7492H193.503C193.533 55.8819 193.547 56.0642 193.547 56.2964V56.4953H191.918C191.8 57.0922 191.506 57.3907 191.036 57.3907H182.226C181.814 57.3907 181.477 57.3244 181.213 57.1917C180.977 57.0591 180.728 56.8601 180.463 56.5948L180.331 56.4953H181.961C181.814 56.3627 181.609 56.2301 181.344 56.0974C181.08 55.9316 180.742 55.8155 180.331 55.7492H178.745C178.129 55.8487 177.703 56.0974 177.468 56.4953H179.362C179.274 56.6943 179.23 56.8933 179.23 57.0922C179.23 57.258 179.245 57.3907 179.274 57.4902H178.613C178.643 57.656 178.76 57.8218 178.966 57.9876H173.988C174.164 58.1534 174.472 58.3192 174.913 58.485H176.19C176.425 58.5845 176.704 58.6839 177.027 58.7834C177.38 58.8497 177.747 58.9161 178.129 58.9824H179.538C179.773 59.0155 180.023 59.0487 180.287 59.0819C180.552 59.115 180.831 59.1648 181.125 59.2311H181.168C181.668 59.2974 182.152 59.3803 182.622 59.4798C183.092 59.5461 183.532 59.629 183.944 59.7285H184.208C184.56 59.7948 184.883 59.8777 185.178 59.9772C185.5 60.0435 185.808 60.1264 186.102 60.2259H186.278C186.425 60.2591 186.557 60.2922 186.675 60.3254C186.792 60.3585 186.91 60.4083 187.028 60.4746H186.191C186.308 60.5078 186.411 60.5409 186.499 60.5741C186.616 60.6073 186.734 60.657 186.851 60.7233H188.701C188.79 60.7565 188.878 60.7896 188.966 60.8228C189.083 60.856 189.186 60.9057 189.274 60.972H183.063C183.65 61.2373 184.12 61.486 184.473 61.7181H192.181C192.358 61.8508 192.534 61.9834 192.71 62.1161C192.887 62.2155 193.048 62.3316 193.195 62.4643H183.151C183.21 62.4974 183.269 62.5306 183.327 62.5637C183.386 62.5969 183.43 62.6466 183.459 62.713H187.688C187.777 62.7793 187.864 62.8622 187.952 62.9617C188.04 63.0611 188.114 63.144 188.173 63.2104H187.512C187.806 63.5088 188.055 63.8404 188.261 64.2052H185.97C186.029 64.2715 186.088 64.3544 186.147 64.4539C186.205 64.5534 186.249 64.6363 186.278 64.7026H195.001L195.398 65.4487H187.204C187.262 65.5814 187.321 65.714 187.38 65.8466C187.439 65.9461 187.482 66.0622 187.512 66.1948H191.301L191.433 66.6922H192.05L192.181 67.1896H192.974C193.034 67.3223 193.063 67.4881 193.063 67.687C193.092 67.8528 193.122 68.0187 193.151 68.1845L193.195 68.6819H193.459C193.489 68.7482 193.503 68.8311 193.503 68.9306C193.503 69.03 193.503 69.113 193.503 69.1793H193.635V69.9254H194.032V70.0746C194.032 70.2073 194.017 70.3399 193.988 70.4725C193.988 70.6052 193.988 70.7544 193.988 70.9202H193.547V71.1689H193.635C193.635 71.3016 193.62 71.4342 193.591 71.5668C193.591 71.6663 193.576 71.7824 193.547 71.915H193.68L193.547 72.6611H193.9C193.871 72.7938 193.841 72.9264 193.811 73.0591C193.782 73.1586 193.738 73.2746 193.68 73.4073H193.195C193.195 73.4404 193.18 73.4736 193.151 73.5067C193.151 73.5399 193.151 73.5896 193.151 73.656H194.208L193.944 74.4021H190.992C190.963 74.5347 190.904 74.6674 190.816 74.8C190.757 74.8995 190.699 75.0155 190.64 75.1482H196.851L196.719 75.3969H199.406C199.348 75.5295 199.274 75.6622 199.186 75.7948C199.127 75.8943 199.054 76.0104 198.966 76.143H193.459C193.43 76.1762 193.4 76.2093 193.371 76.2425C193.342 76.2756 193.313 76.3254 193.283 76.3917ZM181.83 55.7492H183.151C183.063 55.7161 182.96 55.6995 182.843 55.6995C182.754 55.6995 182.651 55.6995 182.534 55.6995C182.417 55.6995 182.299 55.6995 182.181 55.6995C182.064 55.6995 181.947 55.7161 181.83 55.7492Z" fill="white"/>
<path d="M31.5856 14.7233L31.4534 15.4694H38.7221L38.634 15.9668H31.938L31.8939 16.2155H34.6692L34.5371 17.2104H35.4622L35.3741 17.9565H35.9027L35.7705 18.7026H35.8146L35.7265 19.4487H35.9027V19.6974H35.8146L35.6824 20.6922H35.5503L35.4181 21.687L35.33 22.6819H36.167L36.123 22.9306H35.6384V23.1793H36.5194V23.428H35.1098L35.0657 23.6767H34.5811L34.493 24.4228H35.9468L35.8146 25.4176H37.4886L37.4005 26.1637H36.0789L36.0349 26.4124H35.3741L35.2419 27.4073H35.5943L35.5503 27.9047H35.9468L35.8587 28.6508H35.1979L35.1098 29.3969H33.656L33.612 29.8943H35.1098L34.9776 30.8891H34.0085L33.9203 31.8839H34.8014L34.7133 32.6301H31.3213L31.2332 33.1275H32.5107L32.4666 33.4259V33.6249H33.656C33.6267 33.6912 33.5973 33.7741 33.5679 33.8736C33.5679 33.9731 33.5386 34.056 33.4798 34.1223H32.9953C32.8484 34.4207 32.6575 34.6694 32.4226 34.8684H32.819C32.6428 35.001 32.5107 35.0839 32.4226 35.1171H32.775C32.54 35.2497 32.2464 35.3161 31.8939 35.3161H25.5944C25.4182 35.3161 25.2567 35.2995 25.1099 35.2663C24.9924 35.2 24.8749 35.1503 24.7575 35.1171H24.405C24.3169 35.0839 24.2435 35.0508 24.1848 35.0176C24.126 34.9513 24.0673 34.9016 24.0086 34.8684H23.6561C23.5387 34.7358 23.4359 34.6031 23.3478 34.4705C23.2597 34.3378 23.1862 34.2218 23.1275 34.1223H23.6121C23.5827 34.0891 23.568 34.0394 23.568 33.9731L23.4359 33.6249H22.2465L22.0703 33.1275H20.7927L20.6165 32.6301H24.0086L23.7442 31.8839H22.8191L22.4667 30.8891H23.4359L23.0835 29.8943H21.5857L21.4095 29.3969H22.8191L22.5548 28.6508H23.2156L22.9513 27.9047H22.5548L22.3786 27.4073H22.0262L21.6738 26.4124H22.3346L22.2465 26.1637H23.568L23.3037 25.4176H21.6297L21.2773 24.4228H19.8236L19.6033 23.7762L19.3831 24.4228H19.2069L18.8544 25.4176H21.5857L21.3214 26.1637H19.1628L19.0747 26.4124H19.4712L19.1187 27.4073H19.9117L19.7355 27.9047H17.5329L17.2685 28.6508H18.458L18.1936 29.3969H16.7399L16.5637 29.8943H17.2685L16.9161 30.8891H16.9602L16.6078 31.8839H13.7003L13.436 32.6301H18.0615L17.8853 33.1275H16.9161L16.7399 33.6249H16.6518L16.5197 33.9731L16.4315 34.1223H15.0659C15.0072 34.2218 14.9338 34.3378 14.8457 34.4705C14.7869 34.6031 14.6841 34.7358 14.5373 34.8684H14.8016C14.7135 34.9679 14.596 35.0508 14.4492 35.1171H15.6386C15.5211 35.1503 15.389 35.2 15.2421 35.2663C15.0953 35.2995 14.9338 35.3161 14.7576 35.3161H8.45806C8.10564 35.3161 7.81196 35.2497 7.57701 35.1171H6.43165C6.34355 35.0839 6.21139 35.001 6.03518 34.8684H5.72681C5.4625 34.6363 5.2716 34.3876 5.15413 34.1223H6.56381C6.53444 34.056 6.50507 33.9731 6.4757 33.8736C6.44633 33.7741 6.41697 33.6912 6.3876 33.6249H6.51976L6.4757 33.4259L6.43165 33.1275H7.4008L7.3127 32.6301H2.73125L2.64314 31.8839H5.50655L5.41845 30.8891H5.37439L5.24224 29.8943H4.5374L4.49335 29.3969H5.90302L5.81492 28.6508H4.66955L4.58145 27.9047H6.78407L6.69596 27.4073H5.90302L5.77086 26.4124H5.37439L5.33034 26.1637H7.48891L7.4008 25.4176H4.66955L4.5374 24.4228H4.71361L4.58145 23.6767H5.06603V23.428H6.4757L6.43165 23.1793H5.50655L5.4625 22.9306H5.94707V22.6819H5.06603L5.02197 22.1845H4.97792L4.93387 21.687L4.80171 20.6922H4.93387L4.80171 19.6974H4.88982L4.84576 19.4487H4.66955L4.58145 18.7026H4.5374L4.44929 17.9565H3.92066L3.83256 17.2104H2.90746L2.7753 16.2155H0V15.9668H6.69596L6.65191 15.4694H4.00877L3.92066 14.7233H1.14536L1.10131 14.2259H5.11008L4.97792 13.2311H3.92066V12.9824H4.5374L4.49335 12.7337H5.41845L5.33034 11.9876H3.83256L3.78851 11.7389H0.352419L0.264314 10.744H4.09687L3.96472 9.74922H2.99556L2.95151 9.25181H3.34798L3.25988 8.5057H3.39204L3.34798 8.257H1.98236L1.93831 7.75959H2.86341L2.7753 7.01347H2.86341L2.7753 6.26736H3.52419L3.43609 5.76995H1.05726L1.01321 5.27254H2.90746L2.86341 4.77513H1.7621L1.71804 4.27772H3.08367L2.99556 3.5316H2.55504L2.42288 2.53679H2.90746L2.86341 2.28808L2.7753 1.74093V1.54197H2.11452C2.17325 0.845598 2.4963 0.497411 3.08367 0.497411H11.2774C12.1878 0.497411 12.7018 0.845598 12.8193 1.54197H13.48C13.5094 1.60829 13.5241 1.70777 13.5241 1.84042L13.5681 2.28808L13.6122 2.53679H13.1717L13.2598 3.5316H13.7003L13.7884 4.27772H12.3787L12.4668 4.77513H13.5241L13.5681 5.27254H11.6739L11.7179 5.76995H14.0968L14.1849 6.26736H13.436L13.48 7.01347H13.436L13.48 7.75959H12.5109L12.599 8.257H13.9206L13.9646 8.5057H13.8325L13.9206 9.25181H13.5241L13.5681 9.74922H14.5373L14.6695 10.744H10.7928L10.8809 11.7389H14.317L14.3611 11.9876H15.8589L15.947 12.7337H15.0219V12.9824H14.4051L14.4492 13.2311H15.3743L15.4624 12.9824H15.9029L15.991 12.7337H17.8412L18.0615 11.9876H16.0351L16.0791 11.7389H19.4712L19.7795 10.744H16.2113L16.4756 9.74922H16.0791V9.64974L16.2113 9.25181H17.0483C17.107 9.11917 17.1658 8.98653 17.2245 8.85389C17.3126 8.72125 17.4154 8.60518 17.5329 8.5057H17.2685C17.4154 8.37306 17.5769 8.29016 17.7531 8.257H18.1496C18.2377 8.22384 18.3699 8.20726 18.5461 8.20726H23.0394C23.2156 8.20726 23.3331 8.22384 23.3918 8.257H22.9954C23.1128 8.29016 23.2009 8.32332 23.2597 8.35648C23.3478 8.38964 23.4212 8.43938 23.4799 8.5057H23.7442C23.8911 8.60518 23.9939 8.72125 24.0526 8.85389C24.1407 8.98653 24.1995 9.11917 24.2288 9.25181H23.4359C23.524 9.38446 23.568 9.5171 23.568 9.64974L23.6121 9.74922H24.0526L24.3169 10.744H26.035L26.1671 9.74922H25.9028L25.9469 9.25181H28.0173L28.0614 8.5057H26.1231L26.1671 8.257H25.8147L25.9028 7.75959H26.6517L26.7398 7.01347H26.4755L26.5636 6.26736H27.1803L27.2244 5.76995H24.5372L24.5812 5.27254H25.3742L25.4182 4.77513H26.916L26.9601 4.27772H26.916L27.0041 3.5316L27.0922 2.53679H26.2112L26.2552 2.28808H27.3125L27.4006 1.84042V1.54197H28.2376C28.3551 0.845598 28.869 0.497411 29.7794 0.497411H37.9732C38.2081 0.497411 38.4137 0.596893 38.5899 0.795857C38.7955 0.994821 38.913 1.24353 38.9423 1.54197H38.1494V1.74093L38.0613 2.28808H36.96L36.9159 2.53679H37.841L37.7089 3.5316L37.6208 4.27772H37.6648L37.5767 4.77513H36.0789L36.0349 5.27254H35.2419L35.1538 5.76995H37.8851L37.841 6.26736H37.2243L37.1362 7.01347H37.3564L37.2683 7.75959H36.5194L36.4313 8.257H36.7838L36.7397 8.5057H38.678L38.5899 9.25181H36.5635L36.4754 9.74922H36.7397L36.6075 10.744H35.0217L34.8895 11.7389H36.8278L36.7838 11.9876H34.5371L34.449 12.7337H36.5194V12.9824H36.3873L36.3432 13.2311H36.4754L36.3432 14.2259H37.0481L36.96 14.7233H31.5856ZM26.2993 11.7389H24.8015L24.8456 11.9876H26.2552L26.2993 11.7389ZM25.242 12.7337L25.3301 12.9824H24.8896L24.9777 13.2311L25.2861 14.2259H20.5284L20.6606 14.7233H26.5195L26.5636 14.2259H25.8588L25.9909 13.2311H25.8588L25.9028 12.9824H25.9909L26.035 12.7337H25.242ZM17.2245 15.4694H17.0923L17.1364 15.8674L17.2245 15.4694ZM28.2376 15.8176L28.2816 15.4694H28.1054L28.2376 15.8176ZM76.7911 32.6301L77.0995 33.6249H76.3506L76.4387 33.8736C76.4387 33.9067 76.4387 33.9565 76.4387 34.0228C76.4681 34.056 76.4828 34.0891 76.4828 34.1223H76.2185V34.2218C76.2185 34.6197 76.0863 34.9181 75.822 35.1171H75.866C75.7192 35.2497 75.5283 35.3161 75.2934 35.3161H67.1437C66.9381 35.3161 66.7619 35.2995 66.615 35.2663C66.4976 35.2 66.3654 35.1503 66.2186 35.1171C65.9836 34.9845 65.8074 34.8352 65.6899 34.6694C65.5725 34.4705 65.4844 34.2881 65.4256 34.1223H65.6459V34.0725L65.5578 33.8736L65.4697 33.6249H66.2186L65.9102 32.6301H65.0732L64.941 32.1326H66.7472L66.4388 31.1378H65.9102L65.778 30.7896H56.3068L56.2187 31.1378H55.69L55.3817 32.1326H54.8971L54.7209 32.6301H54.4566L54.1482 33.6249H54.1923L54.1042 33.8736L54.0601 34.0725L54.016 34.1223H53.7958C53.737 34.2881 53.6489 34.4705 53.5315 34.6694C53.414 34.8352 53.2378 34.9845 53.0028 35.1171H54.3244C54.2069 35.1503 54.0748 35.2 53.9279 35.2663C53.7811 35.2995 53.6049 35.3161 53.3993 35.3161H45.2496C45.0147 35.3161 44.8385 35.2497 44.721 35.1171H43.3994C43.1057 34.885 42.9589 34.5865 42.9589 34.2218V34.1223H43.2232C43.2232 34.0228 43.2379 33.9399 43.2673 33.8736L43.3113 33.6249H43.2673L43.5756 32.6301H43.8399L44.0162 32.1326H44.5007L44.8091 31.1378H45.2937L45.602 30.143H43.884L44.0602 29.6456H43.928L44.1483 28.8995H44.5888L44.6769 28.6508H43.7078L44.0162 27.656H45.5139L45.6461 27.1586H44.2805L44.3686 26.9098H44.5888L44.8972 25.915H44.765L44.9853 25.1689H45.1615L45.4699 24.1741H46.0426L46.2628 23.428L46.3509 23.1793H48.5536L48.6417 22.9306H48.5095L48.7298 22.1845H46.2628L46.5712 21.1896H47.3641L47.4522 20.9409H46.9677L47.0558 20.6922H48.4654L48.7738 19.6974H47.0558L47.232 19.2H47.8928L48.2011 18.2052H47.8047L48.0249 17.4591H48.5095L48.8179 16.4643H48.6857L48.7738 16.2155H47.7606L47.9368 15.7181H48.906L49.1262 14.972H48.6857L48.7298 14.7233H49.5227L49.8311 13.7285H48.8619L49.0822 12.9824H48.5976L48.7298 12.485H45.6901L45.8223 11.9876H45.2496L45.558 10.9927H44.9853L45.2496 10.2466H46.9677L47.276 9.25181H51.6813L51.9015 8.5057H49.787L49.9632 8.00829H51.5932L51.9015 7.01347H50.4478L50.6681 6.26736H51.5932L51.9015 5.27254H51.7694L52.0777 4.27772H50.8443L50.8883 4.02902H55.1174L55.4257 3.0342H55.2936L55.3817 2.78549H53.8398L54.016 2.13886L54.1482 1.79068H54.5887L54.853 1.29327H54.7209C54.8677 1.06114 55.0733 0.878759 55.3376 0.746111C55.6019 0.580313 55.925 0.497411 56.3068 0.497411H65.8661C66.2479 0.497411 66.571 0.580313 66.8353 0.746111C67.0996 0.878759 67.3052 1.06114 67.452 1.29327H67.6282L67.8926 1.79068H67.452C67.5108 1.92332 67.5401 2.03938 67.5401 2.13886L67.7604 2.78549H69.3022L69.3463 3.0342H69.4784L69.7868 4.02902H65.6018L65.6899 4.27772H66.9234L67.2318 5.27254H67.3639L67.6723 6.26736H66.7472L66.9675 7.01347H68.4212L68.7296 8.00829H67.0996L67.2758 8.5057H69.3903L69.6106 9.25181H65.2054L65.5137 10.2466H63.7957L64.0159 10.9927H64.5446L64.8529 11.9876H63.1349L63.3111 12.485H70.3154L70.4476 12.9824H70.0952L70.3154 13.7285H69.4344L69.7428 14.7233H68.6855L68.7296 14.972H70.3154L70.5357 15.7181H70.5798L70.756 16.2155H69.3022L69.3903 16.4643H70.8L71.1084 17.4591H71.593L71.8132 18.2052H71.6811L71.9894 19.2H72.6943L72.8705 19.6974H71.593L71.9013 20.6922H72.7824L72.8264 20.9409H72.6062L72.6943 21.1896H71.9013L72.1656 22.1845H74.6766L74.8969 22.9306H75.029L75.1171 23.1793H72.8705L72.9586 23.428H73.0026L73.2229 24.1741H72.6502L72.9586 25.1689H72.7383L73.0026 25.915H73.1348L73.4432 26.9098H73.2229L73.311 27.1586H74.6766L74.8528 27.656H73.311L73.6194 28.6508H74.5885L74.6766 28.8995H74.2361L74.5004 29.6456H74.5885L74.7647 30.143H76.4828L76.7911 31.1378H77.3198L77.6281 32.1326H75.822L75.9541 32.6301H76.7911ZM58.3772 12.9824H58.9059L58.6856 13.7285H60.4918L60.2715 12.9824H60.6239L60.4918 12.485H58.5094L58.3772 12.9824ZM59.831 14.7233L59.6107 13.8777L59.3904 14.7233H59.831ZM57.1878 20.6922L57.0997 20.9409H57.5843L57.5402 21.0902H62.5182L62.4741 20.9409H62.6944L62.6503 20.6922H61.7693L61.505 19.6974H62.7825L62.6503 19.2H61.9014L61.6371 18.2052H61.7693L61.5931 17.4591H61.1085L60.8442 16.4643H59.4345L59.3464 16.2155H60.8001L60.668 15.7181H60.6239L60.4037 14.972H58.994L58.8178 15.7181H57.8486L57.7165 16.2155H58.6856L58.6415 16.4643H58.7737L58.5094 17.4591H58.0248L57.8046 18.2052H58.201L57.9367 19.2H57.2759L57.1438 19.6974H58.8618L58.5975 20.6922H57.1878ZM109.986 5.02384H101.793V6.01866H104.92V6.76477H108.312V7.51088H108.224V8.257H109.502V9.25181H104.7V9.50052H103.775V9.84871C103.775 10.0808 103.731 10.2964 103.643 10.4953H106.771C106.565 10.9596 106.227 11.1917 105.757 11.1917H98.4447V11.2415H98.8853V12.2363H98.9734V13.2311H98.7531V14.2259H98.1804V14.972H100.383V15.4694H98.5328V16.2155H97.5637V17.2104H99.2377V17.7078H98.9293V18.7026H98.6209V19.6974H98.0923V20.6922H97.6077V21.4383H99.2377V22.1845H98.5769V23.1793H98.8412V23.428H99.1496V23.9254H101.352V24.6715H99.8544V25.6663H100.515V26.6611H98.665V27.656H99.4139V28.1534H99.7223V28.8995H100.427V29.8943H100.163V30.6404H99.0174V31.3865H98.8853V31.8839H98.8412V32.6301H99.3258V33.3762H98.9293V33.9731C98.9293 34.1389 98.9146 34.2715 98.8853 34.371H98.4447C98.3566 34.7026 98.1951 34.9513 97.9602 35.1171H98.0483C97.9014 35.2497 97.6958 35.3161 97.4315 35.3161H88.621C88.3861 35.3161 88.1658 35.2497 87.9603 35.1171H87.8722C87.6666 34.9513 87.5051 34.7026 87.3876 34.371H87.7841C87.7547 34.2715 87.74 34.1389 87.74 33.9731V33.3762H88.1365V32.6301H87.6519V31.8839H87.696V31.3865H87.8281V30.6404H88.9735V29.8943H89.2378V28.8995H88.5329V28.1534H88.2246V27.656H87.4757V26.6611H89.3259V25.6663H88.6651V24.6715H90.1629V23.9254H87.9603V23.428H87.6519V23.1793H87.3876V22.1845H88.0484V21.4383H86.4184V20.6922H86.903V19.6974H87.4316V18.7026H87.74V17.7078H88.0484V17.2104H86.3744V16.2155H87.3435V15.4694H89.1937V14.972H86.9911V14.2259H87.5638V13.2311H87.7841V12.2363H87.696V11.2415H87.2554V11.1917H79.9427C79.5022 11.1917 79.1498 10.9596 78.8855 10.4953H75.7577C75.7284 10.3959 75.699 10.2964 75.6696 10.1969C75.6109 10.0974 75.5815 9.98135 75.5815 9.84871V9.50052H76.5066V9.25181H81.3083V8.257H80.0308V7.51088H80.1189V6.76477H76.7269V6.01866H73.5992V5.02384H81.7929V4.27772H77.2115V3.2829H78.0925V2.28808H79.2379V2.03938H79.8987V1.84042C79.8987 1.50881 79.9868 1.24353 80.163 1.04456H79.1938C79.4288 0.679795 79.7518 0.497411 80.163 0.497411H105.978C106.389 0.497411 106.712 0.679795 106.947 1.04456H107.872C108.019 1.27669 108.092 1.54197 108.092 1.84042V2.03938H107.431V2.28808H106.286V3.2829H105.405V4.27772H109.986V5.02384ZM150.382 11.4902V11.7389H149.325C149.354 11.9047 149.369 12.0705 149.369 12.2363C149.369 12.4021 149.369 12.5679 149.369 12.7337H141.66C141.66 13.1648 141.469 13.4964 141.087 13.7285C140.911 13.7948 140.779 13.828 140.691 13.828H131.704C131.586 13.828 131.469 13.828 131.351 13.828C131.234 13.7948 131.116 13.7617 130.999 13.7285H123.818V13.9772H127.695C127.666 14.143 127.651 14.3088 127.651 14.4746C127.651 14.6404 127.651 14.8062 127.651 14.972H126.109C126.08 15.0383 126.065 15.1212 126.065 15.2207C126.065 15.3202 126.065 15.4031 126.065 15.4694H126.197V15.9668H125.536V16.9617H127.651V17.2104H120.515V17.7078H122.761V18.7026H127.299V18.9513H125.448V19.2H124.259V20.1948H127.651C127.68 20.3275 127.695 20.4601 127.695 20.5927C127.695 20.6922 127.695 20.8083 127.695 20.9409H128.929V21.1896H123.246V21.687H121.968V21.9358H127.695V21.9855H136.506C137.064 21.9855 137.387 22.3005 137.475 22.9306H143.994V23.6767H143.686L143.598 24.6715H143.113L143.069 25.1689H144.215C144.215 25.2684 144.2 25.3513 144.171 25.4176H143.906C143.877 25.4839 143.862 25.5668 143.862 25.6663H145.316L145.184 26.4124H143.818C143.818 26.4456 143.804 26.4788 143.774 26.5119C143.774 26.5451 143.774 26.5948 143.774 26.6611H143.422C143.392 26.7938 143.348 26.9264 143.29 27.0591C143.26 27.1586 143.231 27.2746 143.202 27.4073H143.73C143.73 27.4404 143.701 27.5233 143.642 27.656H142.761C142.702 27.8218 142.629 27.9876 142.541 28.1534C142.482 28.3192 142.409 28.485 142.32 28.6508H143.202L142.805 29.3969H143.202L142.761 30.143H142.497C142.379 30.3088 142.247 30.4746 142.1 30.6404C141.983 30.8062 141.851 30.972 141.704 31.1378H141.351C141.322 31.171 141.293 31.2041 141.263 31.2373C141.234 31.2705 141.19 31.3202 141.131 31.3865H139.237L139.017 31.6352H147.871C147.695 31.801 147.519 31.9668 147.342 32.1326C147.166 32.2984 146.975 32.4643 146.77 32.6301H146.285C145.991 32.8622 145.639 33.1109 145.228 33.3762H135.933C135.639 33.5751 135.331 33.7575 135.008 33.9233C134.685 34.056 134.362 34.2052 134.039 34.371H141.307C141.219 34.4041 141.116 34.4373 140.999 34.4705C140.911 34.5036 140.808 34.5534 140.691 34.6197H138.928C138.811 34.6529 138.693 34.686 138.576 34.7192C138.459 34.7523 138.341 34.8021 138.224 34.8684H135.052C133.995 35.2 132.908 35.4487 131.792 35.6145H132.497C132.027 35.6808 131.542 35.7306 131.043 35.7637C130.544 35.7969 130.045 35.8135 129.545 35.8135C128.987 35.8135 128.444 35.7969 127.915 35.7637C127.416 35.7306 126.917 35.6808 126.418 35.6145H125.713C124.538 35.4487 123.451 35.2 122.453 34.8684H125.625C125.507 34.8021 125.39 34.7523 125.272 34.7192C125.184 34.686 125.081 34.6529 124.964 34.6197H126.77L126.153 34.371H118.885C118.591 34.2052 118.283 34.056 117.959 33.9233C117.666 33.7575 117.372 33.5751 117.078 33.3762H126.418C126.241 33.2435 126.065 33.1275 125.889 33.028C125.713 32.8953 125.551 32.7627 125.404 32.6301H125.889C125.537 32.3316 125.199 32 124.876 31.6352H115.977C115.948 31.5689 115.918 31.5192 115.889 31.486C115.86 31.4529 115.816 31.4197 115.757 31.3865H117.695C117.666 31.3202 117.622 31.2705 117.563 31.2373C117.534 31.2041 117.504 31.171 117.475 31.1378H117.827C117.563 30.8062 117.313 30.4746 117.078 30.143H117.343L116.946 29.3969H116.55L116.153 28.6508H115.272L114.876 27.656H115.801L115.713 27.4073H115.14C115.111 27.2746 115.081 27.1586 115.052 27.0591C115.023 26.9264 114.979 26.7938 114.92 26.6611H115.272L115.184 26.4124H116.55C116.52 26.2798 116.491 26.1637 116.462 26.0643C116.432 25.9316 116.403 25.799 116.374 25.6663H115.669C115.639 25.6 115.625 25.5171 115.625 25.4176H114.876C114.846 25.3513 114.832 25.2684 114.832 25.1689H114.876C114.876 25.0363 114.846 24.8705 114.788 24.6715H112.277L112.145 23.6767H115.537C115.507 23.544 115.493 23.428 115.493 23.3285C115.493 23.1959 115.478 23.0632 115.449 22.9306H116.286C116.286 22.8311 116.286 22.7316 116.286 22.6321C116.286 22.5326 116.271 22.4332 116.241 22.3337V21.9358H110.515V21.687H111.792V21.1896H117.475V20.9409H116.241C116.241 20.8083 116.227 20.6922 116.197 20.5927C116.197 20.4601 116.197 20.3275 116.197 20.1948H112.805V19.2H113.995V18.9513H115.845V18.7026H111.308V17.7078H109.061V17.2104H116.197V16.9617H114.083V15.9668H114.744V15.4694H114.612V14.972H116.197V13.9772H112.365V13.7285H120.823V13.4798C120.852 13.3472 120.867 13.2311 120.867 13.1316C120.867 12.999 120.867 12.8663 120.867 12.7337H118.532C118.532 12.5679 118.532 12.4021 118.532 12.2363C118.562 12.0705 118.591 11.9047 118.62 11.7389H120.03C120.059 11.6725 120.074 11.5896 120.074 11.4902H110.955C110.985 11.4238 110.999 11.3409 110.999 11.2415C110.999 11.142 111.014 11.0591 111.043 10.9927H119.061L119.281 9.99793H117.475L117.607 9.50052H114.656L114.744 9.25181H115.713C115.742 9.18549 115.772 9.10259 115.801 9.00311C115.83 8.90363 115.86 8.82073 115.889 8.75441H115.404L115.581 8.257H115.801C115.86 8.12435 115.918 8.00829 115.977 7.90881C116.036 7.77617 116.08 7.64353 116.109 7.51088H116.153L116.55 6.76477H116.418C116.476 6.63213 116.535 6.51606 116.594 6.41658C116.682 6.28394 116.77 6.1513 116.858 6.01866H116.506C116.623 5.85285 116.741 5.68705 116.858 5.52125C116.976 5.32228 117.093 5.15648 117.211 5.02384H116.814C116.843 4.95751 116.873 4.90777 116.902 4.87461C116.932 4.84145 116.961 4.80829 116.99 4.77513H116.55L116.77 4.52643H116.682C116.741 4.46011 116.785 4.41036 116.814 4.3772C116.843 4.34404 116.873 4.31088 116.902 4.27772H116.109C116.168 4.2114 116.241 4.1285 116.33 4.02902C116.418 3.92954 116.506 3.84663 116.594 3.78031H117.651C117.798 3.64767 117.945 3.53161 118.092 3.43213C118.238 3.29948 118.385 3.16684 118.532 3.0342H118.048L118.4 2.78549H117.651C117.71 2.71917 117.769 2.66943 117.827 2.63627C117.886 2.60311 117.945 2.56995 118.004 2.53679H120.294C120.5 2.40415 120.705 2.28809 120.911 2.1886C121.117 2.05596 121.322 1.92332 121.528 1.79068H121.396C121.572 1.69119 121.748 1.60829 121.924 1.54197C122.1 1.44249 122.277 1.35959 122.453 1.29327H123.29C123.378 1.22695 123.466 1.1772 123.554 1.14404C123.672 1.11088 123.789 1.07772 123.907 1.04456H122.585C123.466 0.679795 124.406 0.43109 125.404 0.298442H126.594C127.739 0.0994839 128.943 0 130.206 0C131.44 0 132.629 0.0994839 133.774 0.298442H132.629C133.598 0.43109 134.567 0.679795 135.536 1.04456H136.858C136.975 1.07772 137.078 1.11088 137.166 1.14404C137.284 1.1772 137.401 1.22695 137.519 1.29327H136.682C137.122 1.45907 137.489 1.62487 137.783 1.79068H137.915C138.15 1.92332 138.37 2.05596 138.576 2.1886C138.782 2.28809 138.987 2.40415 139.193 2.53679H136.946C137.005 2.56995 137.064 2.60311 137.122 2.63627C137.181 2.66943 137.24 2.71917 137.298 2.78549H138.047C138.106 2.81865 138.165 2.85182 138.224 2.88498C138.282 2.91814 138.326 2.96788 138.356 3.0342H138.84L139.721 3.78031H138.62L139.149 4.27772H139.942L140.206 4.52643H140.25L140.47 4.77513H140.911L141.131 5.02384H141.528C141.645 5.15648 141.762 5.32228 141.88 5.52125C141.997 5.68705 142.115 5.85285 142.232 6.01866H142.541C142.629 6.1513 142.702 6.28394 142.761 6.41658C142.849 6.51606 142.923 6.63213 142.981 6.76477H143.113C143.172 6.89741 143.231 7.03005 143.29 7.1627C143.348 7.26218 143.407 7.37824 143.466 7.51088H143.378C143.436 7.64353 143.495 7.77617 143.554 7.90881C143.613 8.00829 143.657 8.12435 143.686 8.257H143.466L143.598 8.75441H144.083L144.215 9.25181H143.246C143.246 9.28498 143.246 9.31814 143.246 9.3513C143.275 9.38446 143.29 9.4342 143.29 9.50052H146.241C146.241 9.63316 146.27 9.79896 146.329 9.99793H142.32L142.453 10.9927H145.008L145.052 11.4902H150.382ZM130.162 9.99793H133.29C132.82 9.79896 132.291 9.69948 131.704 9.69948C131.116 9.69948 130.603 9.79896 130.162 9.99793ZM137.783 12.3855C137.754 12.2529 137.724 12.1368 137.695 12.0373C137.666 11.9378 137.622 11.8383 137.563 11.7389H138.62L138.488 11.4902H133.202C133.172 11.3907 133.128 11.3078 133.069 11.2415C133.011 11.142 132.952 11.0591 132.893 10.9927H122.893C122.864 11.0591 122.82 11.142 122.761 11.2415C122.732 11.3078 122.688 11.3907 122.629 11.4902H131.748L131.66 11.7389H130.25C130.191 11.8715 130.147 12.0373 130.118 12.2363C130.089 12.4021 130.059 12.5679 130.03 12.7337H137.915L137.783 12.3855ZM132.585 22.9306H126.946L127.078 23.6767H123.686C123.745 23.8756 123.804 24.058 123.863 24.2238C123.921 24.3565 123.995 24.5057 124.083 24.6715H126.594C126.652 24.771 126.711 24.8705 126.77 24.97C126.829 25.0363 126.887 25.1026 126.946 25.1689H126.858L127.078 25.4176H127.827C127.886 25.4508 127.945 25.5005 128.003 25.5668C128.062 25.6 128.121 25.6332 128.18 25.6663H128.884C129.384 25.9648 129.986 26.114 130.691 26.114C131.395 26.114 131.983 25.9648 132.453 25.6663H130.999L131.351 25.4176H131.616L131.88 25.1689H130.735C130.793 25.1026 130.852 25.0363 130.911 24.97C130.999 24.8705 131.058 24.771 131.087 24.6715H131.572C131.748 24.3731 131.895 24.0415 132.012 23.6767H132.321L132.409 23.428C132.467 23.229 132.526 23.0632 132.585 22.9306ZM184.276 23.6767V23.9254H187.712V24.4228H187.536V25.1689H178.417V25.4176H180.003V26.1637H184.849V26.6611H182.338V27.656H182.206V27.9047H179.298V28.6508H183.615V28.8995H183.792V29.6456H184.232V30.6404H175.73V31.3865H184.717V31.8839H181.721V32.6301H181.325V33.1275H182.338V33.6249H181.677V34.1223H183.219L183.087 34.6197H185.157C185.099 34.7192 185.025 34.8187 184.937 34.9181C184.878 34.9845 184.805 35.0508 184.717 35.1171H185.73C185.583 35.2497 185.378 35.3161 185.113 35.3161H176.479C176.215 35.3161 176.009 35.2497 175.862 35.1171H174.849C174.643 35.0176 174.497 34.8518 174.409 34.6197H172.338L172.206 34.1223H170.664V33.6249H171.325V33.1275H170.312V32.6301H170.708V31.8839H173.704V31.3865H165.73V31.8839H162.074V32.6301H164.585V33.1275H163.968V33.6249H166.259V34.1223H163.792L163.66 34.6197H164.629C164.511 34.8518 164.379 35.0176 164.232 35.1171H163.175C163.028 35.2497 162.823 35.3161 162.558 35.3161H153.924C153.63 35.3161 153.41 35.2497 153.263 35.1171H154.321C154.174 35.0176 154.042 34.8518 153.924 34.6197H152.911C152.823 34.4539 152.779 34.2881 152.779 34.1223H155.246V33.6249H152.955V33.1275H153.572V32.6301H151.061V31.8839H154.717V31.3865H156.832V30.6404H150.048V29.6456H152.559V28.8995H154.321V28.6508H153.087V27.9047H151.017V27.656H151.457V26.6611H152.867V26.1637H153.528V25.4176H150.356V25.1689H158.506V24.4228H148.55V23.9254H157.933V23.6767H153.351V22.9306H155.995V22.6819H156.523V22.4332H156.303V21.4383H151.942V20.6922H153.396V20.4435H152.999V19.6974H153.175V19.4487H153.219V18.9513H153.263V18.7026H152.691V18.4539H150.973V17.7078H151.545V16.9617H150.664V16.2155H152.867V15.2207H152.382V14.7233H149.166V14.4746H154.321V13.9772H155.554V13.7285H143.66V13.4798H150.664V13.2311H153.175V12.485H148.682V11.4902H147.448V10.744H152.735V9.74922H153.175V9.00311H155.995V8.75441H153.572V7.75959H155.554V7.26218H153.175V7.01347H152.338V6.51606H151.061V6.01866H149.519V5.02384H152.294V4.27772H153.968V3.5316H153.175V3.0342H152.074V2.78549H152.691V2.28808H152.559V1.84042C152.559 1.60829 152.603 1.42591 152.691 1.29327H155.51C155.539 1.19378 155.583 1.11088 155.642 1.04456C155.701 0.94508 155.76 0.862178 155.818 0.795857H162.602C162.779 0.596893 163.028 0.497411 163.351 0.497411H180.267C180.561 0.497411 180.811 0.596893 181.016 0.795857H187.8C187.859 0.862178 187.918 0.94508 187.977 1.04456C188.065 1.11088 188.123 1.19378 188.153 1.29327H182.47C182.529 1.49223 182.558 1.67461 182.558 1.84042V2.28808H182.778V2.78549H183.395V3.0342H182.206V3.5316H181.677V4.27772H183.395V5.02384H179.254V6.01866H184.012V6.51606H180.576V7.01347H181.986V7.26218H181.281V7.75959H184.585V8.75441H179.739V9.00311H183.483V9.74922H182.823V10.744H179.298V11.4902H177.845V12.485H182.338V13.2311H179.827V13.4798H172.823V13.7285H184.717V13.9772H183.483V14.4746H178.329V14.7233H181.545V15.2207H182.03V16.2155H179.827V16.9617H180.708V17.7078H180.135V18.4539H181.853V18.7026H182.426V18.9513H182.382V19.4487H182.338V19.6974H182.162V20.4435H182.558V20.6922H181.104V21.4383H185.466V22.4332H185.686V22.6819H185.157V22.9306H182.514V23.6767H184.276ZM158.462 10.744V11.4902H159.695V12.286H166.831V11.4902H168.285V10.744H171.809V9.74922H172.47V9.00311H168.726V8.75441H173.572V7.75959H170.268V7.26218H170.972V7.01347H169.563V6.51606H172.999V6.01866H168.241V5.02384H172.382V4.27772H170.664V3.5316H171.193V3.0342H172.382V2.78549H171.765V2.28808H171.545V1.84042C171.545 1.67461 171.574 1.49223 171.633 1.29327H177.316C177.375 1.19378 177.433 1.11088 177.492 1.04456C177.551 0.94508 177.61 0.862178 177.668 0.795857H165.95C166.097 0.9285 166.215 1.0943 166.303 1.29327H163.484C163.542 1.39275 163.572 1.57513 163.572 1.84042V2.28808H163.704V2.78549H163.087V3.0342H164.188V3.5316H164.981V4.27772H163.307V5.02384H160.532V6.01866H162.074V6.51606H163.351V7.01347H164.188V7.26218H166.567V7.75959H164.585V8.75441H167.008V9.00311H164.188V9.74922H163.748V10.744H158.462ZM176.699 24.4228V23.9254H173.263V23.6767H171.501V23.229H164.365V23.6767H168.946V23.9254H159.563V24.4228H169.519V25.1689H176.523V24.4228H176.699ZM173.836 26.1637H168.99V25.4176H167.404V25.1689H161.369V25.4176H164.541V26.1637H163.88V26.6611H162.47V27.656H162.03V27.9047H164.1V28.6508H165.334V28.8995H163.572V29.6456H161.061V30.6404H173.219V29.6456H172.779V28.8995H172.602V28.6508H168.285V27.9047H171.193V27.656H171.325V26.6611H173.836V26.1637ZM220.331 26.6611H223.811V27.4073H217.115V28.4021H221.433V29.3969H217.644V30.3917H218.129V31.1378H217.82V31.6352H216.895V32.1326H216.851V32.6301H217.776V33.6249H219.054V33.9731C219.054 34.0394 219.039 34.0891 219.01 34.1223H211.168C211.139 34.1886 211.124 34.2715 211.124 34.371H214.164C214.076 34.7026 213.914 34.9513 213.679 35.1171H212.842C212.696 35.2497 212.49 35.3161 212.226 35.3161H189.274C189.039 35.3161 188.819 35.2497 188.614 35.1171H189.451C189.245 34.9513 189.083 34.7026 188.966 34.371H185.882C185.853 34.3047 185.838 34.2218 185.838 34.1223H193.724V33.6249H192.446V32.6301H191.521V32.1326H191.565V31.6352H192.49V31.1378H192.799V30.3917H192.314V29.3969H196.102V28.4021H191.785V27.4073H198.481V26.6611H195.001V26.1637H196.014V25.6663H196.455V25.1689H191.565V24.6715H190.42V23.9254H194.517V23.6767H191.257V23.1793H192.226V22.6819H192.931V21.9358H192.843V20.9409H192.402V19.9461H191.741V19.4487H192.27V18.4539H191.785V17.9565H192.49V17.2104H192.666V16.4643H193.459V16.2155H192.71V15.2207H192.05V14.4746H192.226V13.7285H192.314V12.7337H192.975V11.7389H192.006V10.744H192.138V9.74922H193.371V9.00311H192.71V8.257H192.358V8.00829H194.208V7.26218H197.468V6.76477H196.147V6.26736H191.873V6.01866H192.358V5.27254H192.402V4.52643H192.534V3.5316H192.49V2.28808H192.402V1.84042C192.402 1.70777 192.417 1.60829 192.446 1.54197H192.006C192.123 0.845598 192.505 0.497411 193.151 0.497411H215.75C216.425 0.497411 216.807 0.845598 216.895 1.54197H217.336C217.365 1.60829 217.38 1.70777 217.38 1.84042V2.28808H217.468V3.5316H217.512V4.52643H217.38V5.27254H217.336V6.01866H216.851V6.26736H221.124V6.76477H222.446V7.26218H219.186V8.00829H217.336V8.257H217.688V9.00311H218.349C218.29 9.33472 218.187 9.58342 218.041 9.74922H216.807C216.602 10.0477 216.308 10.1969 215.926 10.1969H202.71V10.744H202.578V11.7389H203.547V12.7337H202.887V13.3306H215.133C215.456 13.3306 215.735 13.4632 215.97 13.7285H215.882C216.029 13.8943 216.132 14.143 216.19 14.4746H216.058V15.2207H216.719V16.2155H217.468V16.4643H216.675V17.2104H216.499V17.9565H215.794V18.4539H216.278V19.4487H215.75V19.9461H216.411V20.9409H216.851V21.1399C216.851 21.5047 216.778 21.7699 216.631 21.9358H216.719C216.484 22.3005 216.161 22.4829 215.75 22.4829H203.503V22.6819H202.798V23.1793H201.829V23.6767H205.089V23.9254H200.992V24.6715H202.138V25.1689H207.027V25.6166H220.596C220.742 25.6166 220.86 25.6332 220.948 25.6663H220.463C220.757 25.7658 220.977 25.9316 221.124 26.1637H220.111C220.229 26.3627 220.302 26.5285 220.331 26.6611ZM260.727 8.257C260.786 8.38964 260.844 8.52228 260.903 8.65492C260.962 8.75441 261.006 8.87047 261.035 9.00311H259.405C259.464 9.13575 259.523 9.30156 259.582 9.50052C259.64 9.66632 259.699 9.83213 259.758 9.99793H252.842L253.106 10.9927H256.674L256.806 11.7389H256.322C256.351 11.8052 256.366 11.8881 256.366 11.9876C256.366 12.087 256.38 12.17 256.41 12.2363H255.22L255.264 12.7337H256.19C256.19 12.8663 256.19 12.999 256.19 13.1316C256.219 13.2311 256.234 13.3472 256.234 13.4798H257.864C257.893 13.6124 257.908 13.7285 257.908 13.828C257.908 13.9275 257.908 14.0435 257.908 14.1762V14.2259H253.767C253.767 14.3917 253.767 14.5575 253.767 14.7233C253.796 14.8891 253.811 15.0549 253.811 15.2207H254.736C254.736 15.3865 254.736 15.5523 254.736 15.7181C254.765 15.8839 254.78 16.0497 254.78 16.2155H256.366V16.4643H255.749V17.4591H255.925V18.2052H258.524V19.2H256.057V19.6974H255.793C255.793 19.7637 255.793 19.8466 255.793 19.9461C255.793 20.0456 255.778 20.1285 255.749 20.1948H254.956V21.1896H255.044C255.015 21.2891 255 21.4218 255 21.5876V21.687H256.63C256.63 21.8197 256.615 21.9523 256.586 22.085C256.586 22.1845 256.586 22.3005 256.586 22.4332H257.247C257.247 22.599 257.232 22.7648 257.203 22.9306C257.203 23.0964 257.188 23.2622 257.159 23.428H256.19C256.16 23.4943 256.145 23.5772 256.145 23.6767C256.145 23.7762 256.131 23.8591 256.101 23.9254H250.815C250.815 24.058 250.786 24.2238 250.727 24.4228H255.353C255.294 24.6218 255.264 24.7876 255.264 24.9202H255.925C255.896 25.0529 255.866 25.1855 255.837 25.3181C255.837 25.4176 255.808 25.5337 255.749 25.6663L255.617 26.1637H254.339L254.251 26.4124H256.322C256.263 26.5451 256.234 26.628 256.234 26.6611H254.912L254.824 26.9098H254.78C254.721 27.0757 254.662 27.2415 254.604 27.4073C254.545 27.5731 254.471 27.7389 254.383 27.9047H253.723L253.238 28.8995H253.987L253.723 29.3969H253.767C253.708 29.4632 253.649 29.5461 253.59 29.6456C253.532 29.7451 253.473 29.828 253.414 29.8943H253.106C253.018 29.9938 252.959 30.0767 252.93 30.143C252.842 30.2756 252.753 30.4083 252.665 30.5409C252.577 30.6404 252.474 30.7565 252.357 30.8891H252.225C252.078 31.0549 251.916 31.2207 251.74 31.3865C251.593 31.5523 251.432 31.7181 251.256 31.8839H251.652L250.727 32.6301H250.771C250.536 32.7959 250.286 32.9617 250.022 33.1275C249.758 33.2933 249.479 33.4591 249.185 33.6249H249.141C248.847 33.7907 248.48 33.9565 248.04 34.1223H248.084C247.496 34.3544 246.88 34.5534 246.234 34.7192C245.588 34.885 244.927 35.0176 244.251 35.1171H245.176C244.707 35.1834 244.222 35.2332 243.723 35.2663C243.223 35.2995 242.709 35.3161 242.181 35.3161H229.273C229.009 35.3161 228.804 35.2497 228.657 35.1171H227.732C227.438 34.9181 227.262 34.5865 227.203 34.1223H227.159V33.6249H227.247V32.6301H227.159V31.8839H226.807V30.8891H226.939V30.143H226.895V29.8943H227.247V29.3969H227.203V28.8995H226.41V27.9047H227.115V26.9098H227.159V26.6611H228.481V26.4124H226.454V26.1637H227.732V24.9202H227.115V24.4228H227.071V23.9254H228.216V23.428H223.15V22.4332H222.974V21.687H223.547V21.1896H225.353V20.1948H226.498V19.6974H227.159V19.2H227.864V18.2052H228.877V17.4591H229.846V16.4643H226.895V16.2155H225.926V15.2207H223.987V14.2259H229.009V13.4798H225.133V12.7337H227.247V12.2363H227.159V11.7389H226.807V10.9927H224.912V9.99793H231.784V9.00311H233.414V8.257H225.485V7.26218H230.683V7.01347H226.586V6.76477H234.912V5.76995H233.855V5.52125H223.37V4.52643H224.648V3.78031H227.379V3.5316H228.833V3.0342H228.04V2.78549H227.115V2.28808H227.203V1.84042C227.203 1.7741 227.203 1.72435 227.203 1.69119C227.232 1.62487 227.247 1.57513 227.247 1.54197H227.423C227.57 0.845598 227.967 0.497411 228.613 0.497411H241.3C243.561 0.497411 245.617 0.845598 247.467 1.54197H247.291C247.82 1.74093 248.363 1.98964 248.921 2.28808H248.833C248.98 2.35441 249.126 2.4373 249.273 2.53679C249.449 2.60311 249.596 2.68601 249.714 2.78549H250.639L251.035 3.0342H251.784C251.931 3.10052 252.049 3.18342 252.137 3.2829C252.254 3.38239 252.372 3.46529 252.489 3.5316H251.035C251.094 3.56477 251.153 3.59793 251.212 3.63109C251.27 3.66425 251.314 3.71399 251.344 3.78031H248.612L249.449 4.52643H248.128C248.451 4.82487 248.745 5.15648 249.009 5.52125H259.493C259.523 5.55441 259.552 5.58757 259.582 5.62073C259.611 5.65389 259.64 5.70363 259.67 5.76995H260.771C260.888 5.90259 261.006 6.0684 261.123 6.26736C261.241 6.43316 261.344 6.59897 261.432 6.76477H253.106C253.135 6.79793 253.165 6.83109 253.194 6.86425C253.223 6.89741 253.253 6.94715 253.282 7.01347H257.379L257.511 7.26218H252.313C252.518 7.59378 252.68 7.92539 252.797 8.257H260.727ZM245.176 11.7389C245 11.4404 244.78 11.1917 244.516 10.9927H240.947C240.301 10.4622 239.508 10.1969 238.569 10.1969H235.925V10.9927H237.82V11.7389H238.172V12.2363H238.26V12.7337H236.146V13.4798H240.022V14.2259H235V15.2207H236.939V16.2155H237.908V16.4643H240.859V17.4591H239.89V18.2052H238.877V19.2H238.172V19.6974H237.511V20.1948H236.366V21.1896H234.56V21.687H233.987V22.4332H234.163V23.428H239.229V23.9254H238.084V24.4228H238.128V24.9202H238.745V25.6166H241.608C242.46 25.6166 243.179 25.3845 243.767 24.9202H243.062C243.15 24.8539 243.238 24.7876 243.326 24.7212C243.414 24.6218 243.488 24.5223 243.546 24.4228H238.965C239.024 24.3565 239.082 24.2902 239.141 24.2238C239.2 24.1244 239.244 24.0249 239.273 23.9254H244.56C244.618 23.8591 244.662 23.7927 244.692 23.7264C244.721 23.6269 244.751 23.5275 244.78 23.428H245.793C245.852 23.2622 245.896 23.0964 245.925 22.9306C245.955 22.7648 245.984 22.599 246.013 22.4332H245.353C245.382 22.3005 245.397 22.1845 245.397 22.085C245.397 21.9523 245.411 21.8197 245.441 21.687H243.811V21.5876C243.811 21.5212 243.811 21.4549 243.811 21.3886C243.84 21.3223 243.855 21.256 243.855 21.1896H243.767C243.767 21.0238 243.767 20.858 243.767 20.6922C243.767 20.4933 243.781 20.3275 243.811 20.1948H244.604V19.6974H244.868L244.912 19.2H247.379V18.2052H244.78V17.4591H244.604V16.4643H245.22V16.2155H243.591V15.2207H242.621C242.621 15.0549 242.621 14.8891 242.621 14.7233C242.621 14.5575 242.607 14.3917 242.577 14.2259H246.718V14.1762C246.718 14.0435 246.704 13.9275 246.674 13.828C246.674 13.6953 246.674 13.5793 246.674 13.4798H245.044C245.015 13.3472 244.986 13.2311 244.956 13.1316C244.927 12.999 244.897 12.8663 244.868 12.7337H243.943C243.914 12.6342 243.884 12.5513 243.855 12.485C243.825 12.3855 243.796 12.3026 243.767 12.2363H244.956C244.927 12.1368 244.883 12.0539 244.824 11.9876C244.795 11.8881 244.751 11.8052 244.692 11.7389H245.176Z" fill="white"/>
</svg>
