<svg width="262" height="87" viewBox="0 0 262 87" fill="none" xmlns="http://www.w3.org/2000/svg">
<path d="M99.3873 56.0238H91.1935V57.0187H94.3213V57.7648H97.7133V58.5109H97.6252V59.257H98.9027V60.2518H94.101V60.5005H93.1759V60.8487C93.1759 61.0808 93.1318 61.2964 93.0437 61.4953H96.1715C95.9659 61.9596 95.6281 62.1917 95.1583 62.1917H87.8456V62.2415H88.2861V63.2363H88.3742V64.2311H88.1539V65.2259H87.5812V65.972H89.7839V66.4694H87.9337V67.2155H86.9645V68.2104H88.6385V68.7078H88.3301V69.7026H88.0218V70.6974H87.4931V71.6922H87.0086V72.4383H88.6385V73.1845H87.9777V74.1793H88.242V74.428H88.5504V74.9254H90.753V75.6715H89.2552V76.6663H89.916V77.6611H88.0658V78.656H88.8147V79.1534H89.1231V79.8995H89.8279V80.8943H89.5636V81.6404H88.4182V82.3865H88.2861V82.8839H88.242V83.6301H88.7266V84.3762H88.3301V84.9731C88.3301 85.1389 88.3154 85.2715 88.2861 85.371H87.8456C87.7575 85.7026 87.5959 85.9513 87.361 86.1171H87.4491C87.3022 86.2497 87.0967 86.3161 86.8323 86.3161H78.0219C77.7869 86.3161 77.5667 86.2497 77.3611 86.1171H77.273C77.0674 85.9513 76.9059 85.7026 76.7884 85.371H77.1849C77.1555 85.2715 77.1408 85.1389 77.1408 84.9731V84.3762H77.5373V83.6301H77.0527V82.8839H77.0968V82.3865H77.2289V81.6404H78.3743V80.8943H78.6386V79.8995H77.9338V79.1534H77.6254V78.656H76.8765V77.6611H78.7267V76.6663H78.0659V75.6715H79.5637V74.9254H77.3611V74.428H77.0527V74.1793H76.7884V73.1845H77.4492V72.4383H75.8193V71.6922H76.3038V70.6974H76.8325V69.7026H77.1408V68.7078H77.4492V68.2104H75.7752V67.2155H76.7443V66.4694H78.5946V65.972H76.3919V65.2259H76.9646V64.2311H77.1849V63.2363H77.0968V62.2415H76.6562V62.1917H69.3435C68.903 62.1917 68.5506 61.9596 68.2863 61.4953H65.1586C65.1292 61.3959 65.0998 61.2964 65.0705 61.1969C65.0117 61.0974 64.9824 60.9813 64.9824 60.8487V60.5005H65.9075V60.2518H70.7092V59.257H69.4317V58.5109H69.5198V57.7648H66.1277V57.0187H63V56.0238H71.1937V55.2777H66.6123V54.2829H67.4933V53.2881H68.6387V53.0394H69.2995V52.8404C69.2995 52.5088 69.3876 52.2435 69.5638 52.0446H68.5947C68.8296 51.6798 69.1527 51.4974 69.5638 51.4974H95.3785C95.7897 51.4974 96.1127 51.6798 96.3477 52.0446H97.2728C97.4196 52.2767 97.493 52.542 97.493 52.8404V53.0394H96.8322V53.2881H95.6869V54.2829H94.8058V55.2777H99.3873V56.0238ZM136.384 74.6767V74.9254H139.82V75.4228H139.644V76.1689H130.525V76.4176H132.111V77.1637H136.957V77.6611H134.446V78.656H134.313V78.9047H131.406V79.6508H135.723V79.8995H135.899V80.6456H136.34V81.6404H127.838V82.3865H136.824V82.8839H133.829V83.6301H133.432V84.1275H134.446V84.6249H133.785V85.1223H135.327L135.195 85.6197H137.265C137.206 85.7192 137.133 85.8187 137.045 85.9181C136.986 85.9845 136.913 86.0508 136.824 86.1171H137.838C137.691 86.2497 137.485 86.3161 137.221 86.3161H128.587C128.322 86.3161 128.117 86.2497 127.97 86.1171H126.957C126.751 86.0176 126.604 85.8518 126.516 85.6197H124.446L124.314 85.1223H122.772V84.6249H123.433V84.1275H122.419V83.6301H122.816V82.8839H125.811V82.3865H117.838V82.8839H114.182V83.6301H116.693V84.1275H116.076V84.6249H118.367V85.1223H115.9L115.767 85.6197H116.737C116.619 85.8518 116.487 86.0176 116.34 86.1171H115.283C115.136 86.2497 114.93 86.3161 114.666 86.3161H106.032C105.738 86.3161 105.518 86.2497 105.371 86.1171H106.428C106.281 86.0176 106.149 85.8518 106.032 85.6197H105.018C104.93 85.4539 104.886 85.2881 104.886 85.1223H107.353V84.6249H105.062V84.1275H105.679V83.6301H103.168V82.8839H106.825V82.3865H108.939V81.6404H102.155V80.6456H104.666V79.8995H106.428V79.6508H105.195V78.9047H103.124V78.656H103.565V77.6611H104.974V77.1637H105.635V76.4176H102.463V76.1689H110.613V75.4228H100.657V74.9254H110.041V74.6767H105.459V73.9306H108.102V73.6819H108.631V73.4332H108.41V72.4383H104.049V71.6922H105.503V71.4435H105.107V70.6974H105.283V70.4487H105.327V69.9513H105.371V69.7026H104.798V69.4539H103.08V68.7078H103.653V67.9617H102.772V67.2155H104.974V66.2207H104.49V65.7233H101.274V65.4746H106.428V64.9772H107.662V64.7285H95.7674V64.4798H102.772V64.2311H105.283V63.485H100.789V62.4902H99.5559V61.744H104.842V60.7492H105.283V60.0031H108.102V59.7544H105.679V58.7596H107.662V58.2622H105.283V58.0135H104.446V57.5161H103.168V57.0187H101.626V56.0238H104.402V55.2777H106.076V54.5316H105.283V54.0342H104.181V53.7855H104.798V53.2881H104.666V52.8404C104.666 52.6083 104.71 52.4259 104.798 52.2933H107.618C107.647 52.1938 107.691 52.1109 107.75 52.0446C107.808 51.9451 107.867 51.8622 107.926 51.7959H114.71C114.886 51.5969 115.136 51.4974 115.459 51.4974H132.375C132.669 51.4974 132.919 51.5969 133.124 51.7959H139.908C139.967 51.8622 140.026 51.9451 140.084 52.0446C140.172 52.1109 140.231 52.1938 140.261 52.2933H134.578C134.637 52.4922 134.666 52.6746 134.666 52.8404V53.2881H134.886V53.7855H135.503V54.0342H134.313V54.5316H133.785V55.2777H135.503V56.0238H131.362V57.0187H136.12V57.5161H132.684V58.0135H134.093V58.2622H133.388V58.7596H136.692V59.7544H131.847V60.0031H135.591V60.7492H134.93V61.744H131.406V62.4902H129.952V63.485H134.446V64.2311H131.935V64.4798H124.93V64.7285H136.824V64.9772H135.591V65.4746H130.437V65.7233H133.653V66.2207H134.137V67.2155H131.935V67.9617H132.816V68.7078H132.243V69.4539H133.961V69.7026H134.534V69.9513H134.49V70.4487H134.446V70.6974H134.269V71.4435H134.666V71.6922H133.212V72.4383H137.573V73.4332H137.794V73.6819H137.265V73.9306H134.622V74.6767H136.384ZM110.569 61.744V62.4902H111.803V63.286H118.939V62.4902H120.393V61.744H123.917V60.7492H124.578V60.0031H120.833V59.7544H125.679V58.7596H122.375V58.2622H123.08V58.0135H121.67V57.5161H125.107V57.0187H120.349V56.0238H124.49V55.2777H122.772V54.5316H123.3V54.0342H124.49V53.7855H123.873V53.2881H123.653V52.8404C123.653 52.6746 123.682 52.4922 123.741 52.2933H129.424C129.482 52.1938 129.541 52.1109 129.6 52.0446C129.659 51.9451 129.717 51.8622 129.776 51.7959H118.058C118.205 51.9285 118.322 52.0943 118.411 52.2933H115.591C115.65 52.3927 115.679 52.5751 115.679 52.8404V53.2881H115.811V53.7855H115.195V54.0342H116.296V54.5316H117.089V55.2777H115.415V56.0238H112.64V57.0187H114.182V57.5161H115.459V58.0135H116.296V58.2622H118.675V58.7596H116.693V59.7544H119.115V60.0031H116.296V60.7492H115.856V61.744H110.569ZM128.807 75.4228V74.9254H125.371V74.6767H123.609V74.229H116.472V74.6767H121.054V74.9254H111.671V75.4228H121.626V76.1689H128.631V75.4228H128.807ZM125.944 77.1637H121.098V76.4176H119.512V76.1689H113.477V76.4176H116.648V77.1637H115.988V77.6611H114.578V78.656H114.137V78.9047H116.208V79.6508H117.441V79.8995H115.679V80.6456H113.168V81.6404H125.327V80.6456H124.886V79.8995H124.71V79.6508H120.393V78.9047H123.3V78.656H123.433V77.6611H125.944V77.1637ZM161.426 60.0031H154.245V60.9979H157.109V61.9927H160.897V62.7389H156.624V62.9876H157.153V63.9824H156.052V64.2311H155.963V64.4798H154.862V65.4746H156.933V65.7233H157.021V65.972H156.536V66.7181H156.228V66.9668H157.681V67.9617H154.157V68.9565H155.435V69.7026H156.14V70.6974H156.228V71.6922H155.875V72.9357H156.272V73.4332H156.007V74.1793H155.963V74.428H155.611V75.4228H156.007V75.9202H155.963V78.9047H156.007V79.8995H156.756V80.8943H156.14V81.3917H155.963V81.8891H156.492V82.8839H155.743V83.1327H156.844V83.6301H157.241V83.8788H156.889V84.6249H156.712V84.9731C156.712 85.0394 156.698 85.1057 156.668 85.172C156.668 85.2383 156.654 85.3047 156.624 85.371H155.523C155.494 85.5368 155.405 85.7026 155.259 85.8684H156.492C156.375 86.001 156.286 86.0839 156.228 86.1171H153.717C153.57 86.2497 153.364 86.3161 153.1 86.3161H144.113C143.849 86.3161 143.643 86.2497 143.497 86.1171H146.008C145.89 86.0839 145.802 86.001 145.743 85.8684H144.51C144.363 85.7026 144.275 85.5368 144.245 85.371H145.391C145.361 85.2715 145.347 85.1389 145.347 84.9731V84.6249H145.523V83.8788H145.875V83.6301H145.479V83.1327H144.378V82.8839H145.127V81.8891H144.598V81.3917H144.774V80.8943H145.391V79.8995H144.642V78.9047H144.598V75.9202H144.642V75.4228H144.245V74.428H144.598V74.1793H144.642V73.4332H144.906V72.9357H144.51V71.6922H144.862V70.6974H144.774V69.7026H144.069V68.9565H142.792V67.9617H146.316V66.9668H144.862V66.7181H145.171V65.972H145.655V65.7233H145.567V65.4746H143.497V64.4798H144.598V64.2311H144.686V63.9824H145.787V62.9876H145.259V62.7389H149.532V61.9927H145.743V60.9979H142.88V60.0031H150.06V59.7544H145.567V59.0083H145.523V58.2622H144.73V58.0135H147.417V57.5161H145.391V56.5212H145.567V55.7751H144.334V54.7803H144.554V54.2829H144.422V53.7855H144.774V53.5368H144.378V52.8404C144.378 52.6746 144.407 52.4922 144.466 52.2933H144.686C144.892 51.7627 145.259 51.4974 145.787 51.4974H154.774C155.303 51.4974 155.67 51.7627 155.875 52.2933H155.655C155.714 52.4922 155.743 52.6746 155.743 52.8404V53.5368H156.14V53.7855H155.787V54.2829H155.919V54.7803H155.699V55.7751H156.933V56.5212H156.756V57.5161H158.783V58.0135H156.096V58.2622H156.889V59.0083H156.933V59.7544H161.426V60.0031ZM193.283 81.3917H191.477L191.081 81.8891H197.821C197.791 81.9223 197.762 81.9554 197.732 81.9886C197.703 82.0218 197.659 82.0715 197.6 82.1378H187.204C187.057 82.3036 186.896 82.4694 186.719 82.6352C186.572 82.801 186.411 82.9668 186.234 83.1327H189.451L188.878 83.6301H194.869L194.517 83.8788H191.918C191.888 83.9119 191.829 83.9451 191.741 83.9782C191.683 84.0114 191.624 84.0611 191.565 84.1275H188.614L187.38 84.8736H189.098C188.716 85.0725 188.334 85.2549 187.952 85.4207C187.571 85.5534 187.175 85.7026 186.763 85.8684H185.178C184.179 86.2 183.092 86.4487 181.918 86.6145H182.138C181.668 86.6808 181.183 86.7306 180.684 86.7637C180.184 86.7969 179.685 86.8135 179.186 86.8135C178.628 86.8135 178.07 86.7969 177.512 86.7637C176.983 86.7306 176.469 86.6808 175.97 86.6145H175.794C174.531 86.4487 173.4 86.2 172.402 85.8684H173.988C173.547 85.7026 173.136 85.5534 172.754 85.4207C172.372 85.2549 171.991 85.0725 171.609 84.8736H169.891C169.685 84.7409 169.48 84.6249 169.274 84.5254C169.069 84.3928 168.863 84.2601 168.657 84.1275H171.653L171.301 83.8788H173.9C173.87 83.8124 173.826 83.7627 173.767 83.7295C173.709 83.6964 173.65 83.6632 173.591 83.6301H167.6C167.483 83.5637 167.38 83.4808 167.292 83.3813C167.204 83.2819 167.116 83.199 167.027 83.1327H163.768C163.621 82.9668 163.474 82.801 163.327 82.6352C163.151 82.4694 162.989 82.3036 162.842 82.1378H173.239C173.209 82.0715 173.18 82.0218 173.151 81.9886C173.121 81.9554 173.092 81.9223 173.063 81.8891H166.323C166.205 81.7565 166.088 81.5907 165.97 81.3917H167.776C167.747 81.3254 167.718 81.2756 167.688 81.2425C167.659 81.2093 167.63 81.1762 167.6 81.143H173.107L172.71 80.3969H169.979L169.847 80.1482H163.635C163.606 80.0155 163.562 79.8995 163.503 79.8C163.445 79.6674 163.386 79.5347 163.327 79.4021H166.279L166.014 78.656H164.957L164.869 78.4073H165.353C165.324 78.2746 165.295 78.1586 165.265 78.0591C165.236 77.9264 165.207 77.7938 165.177 77.6611H164.825C164.825 77.5285 164.81 77.4124 164.781 77.313C164.781 77.1803 164.766 77.0477 164.737 76.915H164.384C164.384 76.7824 164.37 76.6663 164.34 76.5668C164.34 76.4674 164.34 76.3513 164.34 76.2187V76.1689H164.296C164.296 76.1026 164.296 76.0529 164.296 76.0197C164.326 75.9865 164.34 75.9534 164.34 75.9202H165.353C165.5 75.3896 165.809 75.1243 166.279 75.1243H174.649C175.118 75.1243 175.471 75.1907 175.706 75.3233C175.941 75.456 176.205 75.6549 176.499 75.9202H175.486L175.53 75.9699C175.589 76.0031 175.632 76.0363 175.662 76.0694C175.72 76.1026 175.765 76.1357 175.794 76.1689H175.838C176.22 76.5005 176.69 76.7492 177.248 76.915H177.644C178.026 77.0477 178.54 77.114 179.186 77.114C179.568 77.114 179.92 77.0974 180.243 77.0642C180.566 77.0311 180.845 76.9813 181.08 76.915H180.948C181.623 76.7492 182.05 76.5005 182.226 76.1689H182.138C182.197 76.0363 182.226 75.9534 182.226 75.9202H182.666L182.71 75.7212C182.71 75.4228 182.607 75.1575 182.402 74.9254H182.05C181.785 74.6269 181.315 74.3782 180.64 74.1793H180.508C180.244 74.0798 179.935 73.9969 179.583 73.9306C179.23 73.8311 178.819 73.7482 178.349 73.6819H178.085L176.278 73.3834C176.073 73.3503 175.867 73.3171 175.662 73.2839C175.486 73.2508 175.295 73.2176 175.089 73.1845C173.885 72.9523 172.725 72.6207 171.609 72.1896H170.816C170.405 72.0238 170.023 71.858 169.671 71.6922H169.054C168.907 71.6259 168.76 71.5596 168.613 71.4933C168.467 71.3938 168.32 71.2943 168.173 71.1948H164.34C164.135 71.0622 163.944 70.9461 163.768 70.8466C163.591 70.714 163.415 70.5814 163.239 70.4487H171.433C171.286 70.3161 171.139 70.2 170.992 70.1005C170.875 69.9679 170.743 69.8352 170.596 69.7026H161.829C161.741 69.6363 161.668 69.5534 161.609 69.4539C161.521 69.3544 161.447 69.2715 161.389 69.2052H163.679C163.415 68.8736 163.166 68.542 162.931 68.2104H163.591L163.327 67.713H159.098C159.069 67.6466 159.039 67.5969 159.01 67.5637C158.981 67.5306 158.966 67.4974 158.966 67.4643H169.01C168.951 67.3316 168.892 67.2155 168.834 67.1161C168.775 66.9834 168.716 66.8508 168.657 66.7181H160.948L160.684 65.972H166.895L166.807 65.7233H164.957L164.869 65.4746H165.75C165.75 65.4083 165.735 65.3585 165.706 65.3254C165.706 65.2922 165.706 65.2591 165.706 65.2259H165.53L165.398 64.7285H165.133L165.089 64.2311H165.001V63.9824H163.591C163.562 63.9161 163.547 63.8332 163.547 63.7337C163.547 63.6342 163.547 63.5513 163.547 63.485H162.27L162.226 62.9876H167.248C167.218 62.9212 167.204 62.8383 167.204 62.7389C167.204 62.6394 167.204 62.5565 167.204 62.4902H167.909V62.4404C167.909 62.2746 167.909 62.1088 167.909 61.943C167.909 61.7772 167.923 61.628 167.953 61.4953H166.058C166.088 61.3627 166.102 61.2466 166.102 61.1472C166.102 61.0145 166.117 60.8819 166.146 60.7492H169.23C169.23 60.6829 169.23 60.6332 169.23 60.6C169.259 60.5668 169.274 60.5337 169.274 60.5005H166.146C166.205 60.3016 166.235 60.1358 166.235 60.0031H165.75L165.882 59.5057H165.133C165.221 59.1409 165.324 58.8093 165.442 58.5109H165.794L165.97 58.0135H166.455L166.851 57.2674H166.411C166.499 57.1347 166.572 57.0187 166.631 56.9192C166.719 56.7865 166.793 56.6539 166.851 56.5212H166.499L167.027 55.7751H167.953C167.982 55.7088 168.011 55.6591 168.041 55.6259C168.07 55.5927 168.099 55.5596 168.129 55.5264H166.895C167.013 55.3938 167.13 55.2777 167.248 55.1782C167.365 55.0456 167.483 54.913 167.6 54.7803H168.305C168.481 54.6145 168.657 54.4487 168.834 54.2829C169.01 54.0839 169.201 53.9181 169.406 53.7855H170.199C170.375 53.6529 170.552 53.5368 170.728 53.4373C170.904 53.3047 171.095 53.172 171.301 53.0394H171.168C171.227 52.9731 171.301 52.9233 171.389 52.8902C171.477 52.857 171.55 52.8238 171.609 52.7907H170.992C171.051 52.7244 171.124 52.6746 171.212 52.6415C171.301 52.6083 171.389 52.5751 171.477 52.542H171.036C171.447 52.343 171.873 52.1606 172.314 51.9948C172.784 51.829 173.254 51.6798 173.723 51.5472H174.384C175.06 51.3814 175.765 51.2487 176.499 51.1492C177.262 51.0497 178.055 51 178.878 51C180.435 51 181.903 51.1824 183.283 51.5472H182.666C183.606 51.7793 184.517 52.1109 185.398 52.542H185.794C185.882 52.5751 185.97 52.6083 186.058 52.6415C186.147 52.6746 186.234 52.7244 186.322 52.7907H186.939C186.998 52.8238 187.072 52.857 187.16 52.8902C187.248 52.9233 187.321 52.9731 187.38 53.0394H187.512C187.718 53.172 187.909 53.3047 188.085 53.4373C188.291 53.5368 188.481 53.6529 188.658 53.7855H187.908C188.143 53.9181 188.349 54.0839 188.525 54.2829C188.731 54.4487 188.922 54.6145 189.098 54.7803H188.437L189.142 55.5264H190.375L190.596 55.7751H189.671C189.788 55.9078 189.891 56.0404 189.979 56.1731C190.096 56.2725 190.199 56.3886 190.288 56.5212H190.64L191.168 57.2674H191.565L191.961 58.0135H191.477C191.565 58.1793 191.638 58.3451 191.697 58.5109H191.344C191.433 58.6767 191.506 58.8425 191.565 59.0083C191.624 59.1741 191.683 59.3399 191.741 59.5057H192.49C192.549 59.7047 192.578 59.8705 192.578 60.0031H193.107C193.136 60.0694 193.151 60.1523 193.151 60.2518C193.151 60.3513 193.165 60.4342 193.195 60.5005H196.323V60.7492H193.503C193.533 60.8819 193.547 61.0642 193.547 61.2964V61.4953H191.918C191.8 62.0922 191.506 62.3907 191.036 62.3907H182.226C181.814 62.3907 181.477 62.3244 181.213 62.1917C180.977 62.0591 180.728 61.8601 180.463 61.5948L180.331 61.4953H181.961C181.814 61.3627 181.609 61.2301 181.344 61.0974C181.08 60.9316 180.742 60.8155 180.331 60.7492H178.745C178.129 60.8487 177.703 61.0974 177.468 61.4953H179.362C179.274 61.6943 179.23 61.8933 179.23 62.0922C179.23 62.258 179.245 62.3907 179.274 62.4902H178.613C178.643 62.656 178.76 62.8218 178.966 62.9876H173.988C174.164 63.1534 174.472 63.3192 174.913 63.485H176.19C176.425 63.5845 176.704 63.6839 177.027 63.7834C177.38 63.8497 177.747 63.9161 178.129 63.9824H179.538C179.773 64.0155 180.023 64.0487 180.287 64.0819C180.552 64.115 180.831 64.1648 181.125 64.2311H181.168C181.668 64.2974 182.152 64.3803 182.622 64.4798C183.092 64.5461 183.532 64.629 183.944 64.7285H184.208C184.56 64.7948 184.883 64.8777 185.178 64.9772C185.5 65.0435 185.808 65.1264 186.102 65.2259H186.278C186.425 65.2591 186.557 65.2922 186.675 65.3254C186.792 65.3585 186.91 65.4083 187.028 65.4746H186.191C186.308 65.5078 186.411 65.5409 186.499 65.5741C186.616 65.6073 186.734 65.657 186.851 65.7233H188.701C188.79 65.7565 188.878 65.7896 188.966 65.8228C189.083 65.856 189.186 65.9057 189.274 65.972H183.063C183.65 66.2373 184.12 66.486 184.473 66.7181H192.181C192.358 66.8508 192.534 66.9834 192.71 67.1161C192.887 67.2155 193.048 67.3316 193.195 67.4643H183.151C183.21 67.4974 183.269 67.5306 183.327 67.5637C183.386 67.5969 183.43 67.6466 183.459 67.713H187.688C187.777 67.7793 187.864 67.8622 187.952 67.9617C188.04 68.0611 188.114 68.144 188.173 68.2104H187.512C187.806 68.5088 188.055 68.8404 188.261 69.2052H185.97C186.029 69.2715 186.088 69.3544 186.147 69.4539C186.205 69.5534 186.249 69.6363 186.278 69.7026H195.001L195.398 70.4487H187.204C187.262 70.5814 187.321 70.714 187.38 70.8466C187.439 70.9461 187.482 71.0622 187.512 71.1948H191.301L191.433 71.6922H192.05L192.181 72.1896H192.974C193.034 72.3223 193.063 72.4881 193.063 72.687C193.092 72.8528 193.122 73.0187 193.151 73.1845L193.195 73.6819H193.459C193.489 73.7482 193.503 73.8311 193.503 73.9306C193.503 74.03 193.503 74.113 193.503 74.1793H193.635V74.9254H194.032V75.0746C194.032 75.2073 194.017 75.3399 193.988 75.4725C193.988 75.6052 193.988 75.7544 193.988 75.9202H193.547V76.1689H193.635C193.635 76.3016 193.62 76.4342 193.591 76.5668C193.591 76.6663 193.576 76.7824 193.547 76.915H193.68L193.547 77.6611H193.9C193.871 77.7938 193.841 77.9264 193.811 78.0591C193.782 78.1586 193.738 78.2746 193.68 78.4073H193.195C193.195 78.4404 193.18 78.4736 193.151 78.5067C193.151 78.5399 193.151 78.5896 193.151 78.656H194.208L193.944 79.4021H190.992C190.963 79.5347 190.904 79.6674 190.816 79.8C190.757 79.8995 190.699 80.0155 190.64 80.1482H196.851L196.719 80.3969H199.406C199.348 80.5295 199.274 80.6622 199.186 80.7948C199.127 80.8943 199.054 81.0104 198.966 81.143H193.459C193.43 81.1762 193.4 81.2093 193.371 81.2425C193.342 81.2756 193.313 81.3254 193.283 81.3917ZM181.83 60.7492H183.151C183.063 60.7161 182.96 60.6995 182.843 60.6995C182.754 60.6995 182.651 60.6995 182.534 60.6995C182.417 60.6995 182.299 60.6995 182.181 60.6995C182.064 60.6995 181.947 60.7161 181.83 60.7492Z" fill="#E7438A"/>
<path d="M31.5856 19.7233L31.4534 20.4694H38.7221L38.634 20.9668H31.938L31.8939 21.2155H34.6692L34.5371 22.2104H35.4622L35.3741 22.9565H35.9027L35.7705 23.7026H35.8146L35.7265 24.4487H35.9027V24.6974H35.8146L35.6824 25.6922H35.5503L35.4181 26.687L35.33 27.6819H36.167L36.123 27.9306H35.6384V28.1793H36.5194V28.428H35.1098L35.0657 28.6767H34.5811L34.493 29.4228H35.9468L35.8146 30.4176H37.4886L37.4005 31.1637H36.0789L36.0349 31.4124H35.3741L35.2419 32.4073H35.5943L35.5503 32.9047H35.9468L35.8587 33.6508H35.1979L35.1098 34.3969H33.656L33.612 34.8943H35.1098L34.9776 35.8891H34.0085L33.9203 36.8839H34.8014L34.7133 37.6301H31.3213L31.2332 38.1275H32.5107L32.4666 38.4259V38.6249H33.656C33.6267 38.6912 33.5973 38.7741 33.5679 38.8736C33.5679 38.9731 33.5386 39.056 33.4798 39.1223H32.9953C32.8484 39.4207 32.6575 39.6694 32.4226 39.8684H32.819C32.6428 40.001 32.5107 40.0839 32.4226 40.1171H32.775C32.54 40.2497 32.2464 40.3161 31.8939 40.3161H25.5944C25.4182 40.3161 25.2567 40.2995 25.1099 40.2663C24.9924 40.2 24.8749 40.1503 24.7575 40.1171H24.405C24.3169 40.0839 24.2435 40.0508 24.1848 40.0176C24.126 39.9513 24.0673 39.9016 24.0086 39.8684H23.6561C23.5387 39.7358 23.4359 39.6031 23.3478 39.4705C23.2597 39.3378 23.1862 39.2218 23.1275 39.1223H23.6121C23.5827 39.0891 23.568 39.0394 23.568 38.9731L23.4359 38.6249H22.2465L22.0703 38.1275H20.7927L20.6165 37.6301H24.0086L23.7442 36.8839H22.8191L22.4667 35.8891H23.4359L23.0835 34.8943H21.5857L21.4095 34.3969H22.8191L22.5548 33.6508H23.2156L22.9513 32.9047H22.5548L22.3786 32.4073H22.0262L21.6738 31.4124H22.3346L22.2465 31.1637H23.568L23.3037 30.4176H21.6297L21.2773 29.4228H19.8236L19.6033 28.7762L19.3831 29.4228H19.2069L18.8544 30.4176H21.5857L21.3214 31.1637H19.1628L19.0747 31.4124H19.4712L19.1187 32.4073H19.9117L19.7355 32.9047H17.5329L17.2685 33.6508H18.458L18.1936 34.3969H16.7399L16.5637 34.8943H17.2685L16.9161 35.8891H16.9602L16.6078 36.8839H13.7003L13.436 37.6301H18.0615L17.8853 38.1275H16.9161L16.7399 38.6249H16.6518L16.5197 38.9731L16.4315 39.1223H15.0659C15.0072 39.2218 14.9338 39.3378 14.8457 39.4705C14.7869 39.6031 14.6841 39.7358 14.5373 39.8684H14.8016C14.7135 39.9679 14.596 40.0508 14.4492 40.1171H15.6386C15.5211 40.1503 15.389 40.2 15.2421 40.2663C15.0953 40.2995 14.9338 40.3161 14.7576 40.3161H8.45806C8.10564 40.3161 7.81196 40.2497 7.57701 40.1171H6.43165C6.34355 40.0839 6.21139 40.001 6.03518 39.8684H5.72681C5.4625 39.6363 5.2716 39.3876 5.15413 39.1223H6.56381C6.53444 39.056 6.50507 38.9731 6.4757 38.8736C6.44633 38.7741 6.41697 38.6912 6.3876 38.6249H6.51976L6.4757 38.4259L6.43165 38.1275H7.4008L7.3127 37.6301H2.73125L2.64314 36.8839H5.50655L5.41845 35.8891H5.37439L5.24224 34.8943H4.5374L4.49335 34.3969H5.90302L5.81492 33.6508H4.66955L4.58145 32.9047H6.78407L6.69596 32.4073H5.90302L5.77086 31.4124H5.37439L5.33034 31.1637H7.48891L7.4008 30.4176H4.66955L4.5374 29.4228H4.71361L4.58145 28.6767H5.06603V28.428H6.4757L6.43165 28.1793H5.50655L5.4625 27.9306H5.94707V27.6819H5.06603L5.02197 27.1845H4.97792L4.93387 26.687L4.80171 25.6922H4.93387L4.80171 24.6974H4.88982L4.84576 24.4487H4.66955L4.58145 23.7026H4.5374L4.44929 22.9565H3.92066L3.83256 22.2104H2.90746L2.7753 21.2155H0V20.9668H6.69596L6.65191 20.4694H4.00877L3.92066 19.7233H1.14536L1.10131 19.2259H5.11008L4.97792 18.2311H3.92066V17.9824H4.5374L4.49335 17.7337H5.41845L5.33034 16.9876H3.83256L3.78851 16.7389H0.352419L0.264314 15.744H4.09687L3.96472 14.7492H2.99556L2.95151 14.2518H3.34798L3.25988 13.5057H3.39204L3.34798 13.257H1.98236L1.93831 12.7596H2.86341L2.7753 12.0135H2.86341L2.7753 11.2674H3.52419L3.43609 10.7699H1.05726L1.01321 10.2725H2.90746L2.86341 9.77513H1.7621L1.71804 9.27772H3.08367L2.99556 8.5316H2.55504L2.42288 7.53679H2.90746L2.86341 7.28808L2.7753 6.74093V6.54197H2.11452C2.17325 5.8456 2.4963 5.49741 3.08367 5.49741H11.2774C12.1878 5.49741 12.7018 5.8456 12.8193 6.54197H13.48C13.5094 6.60829 13.5241 6.70777 13.5241 6.84042L13.5681 7.28808L13.6122 7.53679H13.1717L13.2598 8.5316H13.7003L13.7884 9.27772H12.3787L12.4668 9.77513H13.5241L13.5681 10.2725H11.6739L11.7179 10.7699H14.0968L14.1849 11.2674H13.436L13.48 12.0135H13.436L13.48 12.7596H12.5109L12.599 13.257H13.9206L13.9646 13.5057H13.8325L13.9206 14.2518H13.5241L13.5681 14.7492H14.5373L14.6695 15.744H10.7928L10.8809 16.7389H14.317L14.3611 16.9876H15.8589L15.947 17.7337H15.0219V17.9824H14.4051L14.4492 18.2311H15.3743L15.4624 17.9824H15.9029L15.991 17.7337H17.8412L18.0615 16.9876H16.0351L16.0791 16.7389H19.4712L19.7795 15.744H16.2113L16.4756 14.7492H16.0791V14.6497L16.2113 14.2518H17.0483C17.107 14.1192 17.1658 13.9865 17.2245 13.8539C17.3126 13.7212 17.4154 13.6052 17.5329 13.5057H17.2685C17.4154 13.3731 17.5769 13.2902 17.7531 13.257H18.1496C18.2377 13.2238 18.3699 13.2073 18.5461 13.2073H23.0394C23.2156 13.2073 23.3331 13.2238 23.3918 13.257H22.9954C23.1128 13.2902 23.2009 13.3233 23.2597 13.3565C23.3478 13.3896 23.4212 13.4394 23.4799 13.5057H23.7442C23.8911 13.6052 23.9939 13.7212 24.0526 13.8539C24.1407 13.9865 24.1995 14.1192 24.2288 14.2518H23.4359C23.524 14.3845 23.568 14.5171 23.568 14.6497L23.6121 14.7492H24.0526L24.3169 15.744H26.035L26.1671 14.7492H25.9028L25.9469 14.2518H28.0173L28.0614 13.5057H26.1231L26.1671 13.257H25.8147L25.9028 12.7596H26.6517L26.7398 12.0135H26.4755L26.5636 11.2674H27.1803L27.2244 10.7699H24.5372L24.5812 10.2725H25.3742L25.4182 9.77513H26.916L26.9601 9.27772H26.916L27.0041 8.5316L27.0922 7.53679H26.2112L26.2552 7.28808H27.3125L27.4006 6.84042V6.54197H28.2376C28.3551 5.8456 28.869 5.49741 29.7794 5.49741H37.9732C38.2081 5.49741 38.4137 5.59689 38.5899 5.79586C38.7955 5.99482 38.913 6.24353 38.9423 6.54197H38.1494V6.74093L38.0613 7.28808H36.96L36.9159 7.53679H37.841L37.7089 8.5316L37.6208 9.27772H37.6648L37.5767 9.77513H36.0789L36.0349 10.2725H35.2419L35.1538 10.7699H37.8851L37.841 11.2674H37.2243L37.1362 12.0135H37.3564L37.2683 12.7596H36.5194L36.4313 13.257H36.7838L36.7397 13.5057H38.678L38.5899 14.2518H36.5635L36.4754 14.7492H36.7397L36.6075 15.744H35.0217L34.8895 16.7389H36.8278L36.7838 16.9876H34.5371L34.449 17.7337H36.5194V17.9824H36.3873L36.3432 18.2311H36.4754L36.3432 19.2259H37.0481L36.96 19.7233H31.5856ZM26.2993 16.7389H24.8015L24.8456 16.9876H26.2552L26.2993 16.7389ZM25.242 17.7337L25.3301 17.9824H24.8896L24.9777 18.2311L25.2861 19.2259H20.5284L20.6606 19.7233H26.5195L26.5636 19.2259H25.8588L25.9909 18.2311H25.8588L25.9028 17.9824H25.9909L26.035 17.7337H25.242ZM17.2245 20.4694H17.0923L17.1364 20.8674L17.2245 20.4694ZM28.2376 20.8176L28.2816 20.4694H28.1054L28.2376 20.8176ZM109.986 10.0238H101.793V11.0187H104.92V11.7648H108.312V12.5109H108.224V13.257H109.502V14.2518H104.7V14.5005H103.775V14.8487C103.775 15.0808 103.731 15.2964 103.643 15.4953H106.771C106.565 15.9596 106.227 16.1917 105.757 16.1917H98.4447V16.2415H98.8853V17.2363H98.9734V18.2311H98.7531V19.2259H98.1804V19.972H100.383V20.4694H98.5328V21.2155H97.5637V22.2104H99.2377V22.7078H98.9293V23.7026H98.6209V24.6974H98.0923V25.6922H97.6077V26.4383H99.2377V27.1845H98.5769V28.1793H98.8412V28.428H99.1496V28.9254H101.352V29.6715H99.8544V30.6663H100.515V31.6611H98.665V32.656H99.4139V33.1534H99.7223V33.8995H100.427V34.8943H100.163V35.6404H99.0174V36.3865H98.8853V36.8839H98.8412V37.6301H99.3258V38.3762H98.9293V38.9731C98.9293 39.1389 98.9146 39.2715 98.8853 39.371H98.4447C98.3566 39.7026 98.1951 39.9513 97.9602 40.1171H98.0483C97.9014 40.2497 97.6958 40.3161 97.4315 40.3161H88.621C88.3861 40.3161 88.1658 40.2497 87.9603 40.1171H87.8722C87.6666 39.9513 87.5051 39.7026 87.3876 39.371H87.7841C87.7547 39.2715 87.74 39.1389 87.74 38.9731V38.3762H88.1365V37.6301H87.6519V36.8839H87.696V36.3865H87.8281V35.6404H88.9735V34.8943H89.2378V33.8995H88.5329V33.1534H88.2246V32.656H87.4757V31.6611H89.3259V30.6663H88.6651V29.6715H90.1629V28.9254H87.9603V28.428H87.6519V28.1793H87.3876V27.1845H88.0484V26.4383H86.4184V25.6922H86.903V24.6974H87.4316V23.7026H87.74V22.7078H88.0484V22.2104H86.3744V21.2155H87.3435V20.4694H89.1937V19.972H86.9911V19.2259H87.5638V18.2311H87.7841V17.2363H87.696V16.2415H87.2554V16.1917H79.9427C79.5022 16.1917 79.1498 15.9596 78.8855 15.4953H75.7577C75.7284 15.3959 75.699 15.2964 75.6696 15.1969C75.6109 15.0974 75.5815 14.9813 75.5815 14.8487V14.5005H76.5066V14.2518H81.3083V13.257H80.0308V12.5109H80.1189V11.7648H76.7269V11.0187H73.5992V10.0238H81.7929V9.27772H77.2115V8.2829H78.0925V7.28808H79.2379V7.03938H79.8987V6.84042C79.8987 6.50881 79.9868 6.24353 80.163 6.04456H79.1938C79.4288 5.67979 79.7518 5.49741 80.163 5.49741H105.978C106.389 5.49741 106.712 5.67979 106.947 6.04456H107.872C108.019 6.27669 108.092 6.54197 108.092 6.84042V7.03938H107.431V7.28808H106.286V8.2829H105.405V9.27772H109.986V10.0238ZM150.382 16.4902V16.7389H149.325C149.354 16.9047 149.369 17.0705 149.369 17.2363C149.369 17.4021 149.369 17.5679 149.369 17.7337H141.66C141.66 18.1648 141.469 18.4964 141.087 18.7285C140.911 18.7948 140.779 18.828 140.691 18.828H131.704C131.586 18.828 131.469 18.828 131.351 18.828C131.234 18.7948 131.116 18.7617 130.999 18.7285H123.818V18.9772H127.695C127.666 19.143 127.651 19.3088 127.651 19.4746C127.651 19.6404 127.651 19.8062 127.651 19.972H126.109C126.08 20.0383 126.065 20.1212 126.065 20.2207C126.065 20.3202 126.065 20.4031 126.065 20.4694H126.197V20.9668H125.536V21.9617H127.651V22.2104H120.515V22.7078H122.761V23.7026H127.299V23.9513H125.448V24.2H124.259V25.1948H127.651C127.68 25.3275 127.695 25.4601 127.695 25.5927C127.695 25.6922 127.695 25.8083 127.695 25.9409H128.929V26.1896H123.246V26.687H121.968V26.9358H127.695V26.9855H136.506C137.064 26.9855 137.387 27.3005 137.475 27.9306H143.994V28.6767H143.686L143.598 29.6715H143.113L143.069 30.1689H144.215C144.215 30.2684 144.2 30.3513 144.171 30.4176H143.906C143.877 30.4839 143.862 30.5668 143.862 30.6663H145.316L145.184 31.4124H143.818C143.818 31.4456 143.804 31.4788 143.774 31.5119C143.774 31.5451 143.774 31.5948 143.774 31.6611H143.422C143.392 31.7938 143.348 31.9264 143.29 32.0591C143.26 32.1586 143.231 32.2746 143.202 32.4073H143.73C143.73 32.4404 143.701 32.5233 143.642 32.656H142.761C142.702 32.8218 142.629 32.9876 142.541 33.1534C142.482 33.3192 142.409 33.485 142.32 33.6508H143.202L142.805 34.3969H143.202L142.761 35.143H142.497C142.379 35.3088 142.247 35.4746 142.1 35.6404C141.983 35.8062 141.851 35.972 141.704 36.1378H141.351C141.322 36.171 141.293 36.2041 141.263 36.2373C141.234 36.2705 141.19 36.3202 141.131 36.3865H139.237L139.017 36.6352H147.871C147.695 36.801 147.519 36.9668 147.342 37.1326C147.166 37.2984 146.975 37.4643 146.77 37.6301H146.285C145.991 37.8622 145.639 38.1109 145.228 38.3762H135.933C135.639 38.5751 135.331 38.7575 135.008 38.9233C134.685 39.056 134.362 39.2052 134.039 39.371H141.307C141.219 39.4041 141.116 39.4373 140.999 39.4705C140.911 39.5036 140.808 39.5534 140.691 39.6197H138.928C138.811 39.6529 138.693 39.686 138.576 39.7192C138.459 39.7523 138.341 39.8021 138.224 39.8684H135.052C133.995 40.2 132.908 40.4487 131.792 40.6145H132.497C132.027 40.6808 131.542 40.7306 131.043 40.7637C130.544 40.7969 130.045 40.8135 129.545 40.8135C128.987 40.8135 128.444 40.7969 127.915 40.7637C127.416 40.7306 126.917 40.6808 126.418 40.6145H125.713C124.538 40.4487 123.451 40.2 122.453 39.8684H125.625C125.507 39.8021 125.39 39.7523 125.272 39.7192C125.184 39.686 125.081 39.6529 124.964 39.6197H126.77L126.153 39.371H118.885C118.591 39.2052 118.283 39.056 117.959 38.9233C117.666 38.7575 117.372 38.5751 117.078 38.3762H126.418C126.241 38.2435 126.065 38.1275 125.889 38.028C125.713 37.8953 125.551 37.7627 125.404 37.6301H125.889C125.537 37.3316 125.199 37 124.876 36.6352H115.977C115.948 36.5689 115.918 36.5192 115.889 36.486C115.86 36.4529 115.816 36.4197 115.757 36.3865H117.695C117.666 36.3202 117.622 36.2705 117.563 36.2373C117.534 36.2041 117.504 36.171 117.475 36.1378H117.827C117.563 35.8062 117.313 35.4746 117.078 35.143H117.343L116.946 34.3969H116.55L116.153 33.6508H115.272L114.876 32.656H115.801L115.713 32.4073H115.14C115.111 32.2746 115.081 32.1586 115.052 32.0591C115.023 31.9264 114.979 31.7938 114.92 31.6611H115.272L115.184 31.4124H116.55C116.52 31.2798 116.491 31.1637 116.462 31.0643C116.432 30.9316 116.403 30.799 116.374 30.6663H115.669C115.639 30.6 115.625 30.5171 115.625 30.4176H114.876C114.846 30.3513 114.832 30.2684 114.832 30.1689H114.876C114.876 30.0363 114.846 29.8705 114.788 29.6715H112.277L112.145 28.6767H115.537C115.507 28.544 115.493 28.428 115.493 28.3285C115.493 28.1959 115.478 28.0632 115.449 27.9306H116.286C116.286 27.8311 116.286 27.7316 116.286 27.6321C116.286 27.5326 116.271 27.4332 116.241 27.3337V26.9358H110.515V26.687H111.792V26.1896H117.475V25.9409H116.241C116.241 25.8083 116.227 25.6922 116.197 25.5927C116.197 25.4601 116.197 25.3275 116.197 25.1948H112.805V24.2H113.995V23.9513H115.845V23.7026H111.308V22.7078H109.061V22.2104H116.197V21.9617H114.083V20.9668H114.744V20.4694H114.612V19.972H116.197V18.9772H112.365V18.7285H120.823V18.4798C120.852 18.3472 120.867 18.2311 120.867 18.1316C120.867 17.999 120.867 17.8663 120.867 17.7337H118.532C118.532 17.5679 118.532 17.4021 118.532 17.2363C118.562 17.0705 118.591 16.9047 118.62 16.7389H120.03C120.059 16.6725 120.074 16.5896 120.074 16.4902H110.955C110.985 16.4238 110.999 16.3409 110.999 16.2415C110.999 16.142 111.014 16.0591 111.043 15.9927H119.061L119.281 14.9979H117.475L117.607 14.5005H114.656L114.744 14.2518H115.713C115.742 14.1855 115.772 14.1026 115.801 14.0031C115.83 13.9036 115.86 13.8207 115.889 13.7544H115.404L115.581 13.257H115.801C115.86 13.1244 115.918 13.0083 115.977 12.9088C116.036 12.7762 116.08 12.6435 116.109 12.5109H116.153L116.55 11.7648H116.418C116.476 11.6321 116.535 11.5161 116.594 11.4166C116.682 11.2839 116.77 11.1513 116.858 11.0187H116.506C116.623 10.8529 116.741 10.687 116.858 10.5212C116.976 10.3223 117.093 10.1565 117.211 10.0238H116.814C116.843 9.95751 116.873 9.90777 116.902 9.87461C116.932 9.84145 116.961 9.80829 116.99 9.77513H116.55L116.77 9.52643H116.682C116.741 9.46011 116.785 9.41036 116.814 9.3772C116.843 9.34404 116.873 9.31088 116.902 9.27772H116.109C116.168 9.2114 116.241 9.1285 116.33 9.02902C116.418 8.92954 116.506 8.84663 116.594 8.78031H117.651C117.798 8.64767 117.945 8.53161 118.092 8.43213C118.238 8.29948 118.385 8.16684 118.532 8.0342H118.048L118.4 7.78549H117.651C117.71 7.71917 117.769 7.66943 117.827 7.63627C117.886 7.60311 117.945 7.56995 118.004 7.53679H120.294C120.5 7.40415 120.705 7.28809 120.911 7.1886C121.117 7.05596 121.322 6.92332 121.528 6.79068H121.396C121.572 6.69119 121.748 6.60829 121.924 6.54197C122.1 6.44249 122.277 6.35959 122.453 6.29327H123.29C123.378 6.22695 123.466 6.1772 123.554 6.14404C123.672 6.11088 123.789 6.07772 123.907 6.04456H122.585C123.466 5.67979 124.406 5.43109 125.404 5.29844H126.594C127.739 5.09948 128.943 5 130.206 5C131.44 5 132.629 5.09948 133.774 5.29844H132.629C133.598 5.43109 134.567 5.67979 135.536 6.04456H136.858C136.975 6.07772 137.078 6.11088 137.166 6.14404C137.284 6.1772 137.401 6.22695 137.519 6.29327H136.682C137.122 6.45907 137.489 6.62487 137.783 6.79068H137.915C138.15 6.92332 138.37 7.05596 138.576 7.1886C138.782 7.28809 138.987 7.40415 139.193 7.53679H136.946C137.005 7.56995 137.064 7.60311 137.122 7.63627C137.181 7.66943 137.24 7.71917 137.298 7.78549H138.047C138.106 7.81865 138.165 7.85182 138.224 7.88498C138.282 7.91814 138.326 7.96788 138.356 8.0342H138.84L139.721 8.78031H138.62L139.149 9.27772H139.942L140.206 9.52643H140.25L140.47 9.77513H140.911L141.131 10.0238H141.528C141.645 10.1565 141.762 10.3223 141.88 10.5212C141.997 10.687 142.115 10.8529 142.232 11.0187H142.541C142.629 11.1513 142.702 11.2839 142.761 11.4166C142.849 11.5161 142.923 11.6321 142.981 11.7648H143.113C143.172 11.8974 143.231 12.0301 143.29 12.1627C143.348 12.2622 143.407 12.3782 143.466 12.5109H143.378C143.436 12.6435 143.495 12.7762 143.554 12.9088C143.613 13.0083 143.657 13.1244 143.686 13.257H143.466L143.598 13.7544H144.083L144.215 14.2518H143.246C143.246 14.285 143.246 14.3181 143.246 14.3513C143.275 14.3845 143.29 14.4342 143.29 14.5005H146.241C146.241 14.6332 146.27 14.799 146.329 14.9979H142.32L142.453 15.9927H145.008L145.052 16.4902H150.382ZM130.162 14.9979H133.29C132.82 14.799 132.291 14.6995 131.704 14.6995C131.116 14.6995 130.603 14.799 130.162 14.9979ZM137.783 17.3855C137.754 17.2529 137.724 17.1368 137.695 17.0373C137.666 16.9378 137.622 16.8383 137.563 16.7389H138.62L138.488 16.4902H133.202C133.172 16.3907 133.128 16.3078 133.069 16.2415C133.011 16.142 132.952 16.0591 132.893 15.9927H122.893C122.864 16.0591 122.82 16.142 122.761 16.2415C122.732 16.3078 122.688 16.3907 122.629 16.4902H131.748L131.66 16.7389H130.25C130.191 16.8715 130.147 17.0373 130.118 17.2363C130.089 17.4021 130.059 17.5679 130.03 17.7337H137.915L137.783 17.3855ZM132.585 27.9306H126.946L127.078 28.6767H123.686C123.745 28.8756 123.804 29.058 123.863 29.2238C123.921 29.3565 123.995 29.5057 124.083 29.6715H126.594C126.652 29.771 126.711 29.8705 126.77 29.97C126.829 30.0363 126.887 30.1026 126.946 30.1689H126.858L127.078 30.4176H127.827C127.886 30.4508 127.945 30.5005 128.003 30.5668C128.062 30.6 128.121 30.6332 128.18 30.6663H128.884C129.384 30.9648 129.986 31.114 130.691 31.114C131.395 31.114 131.983 30.9648 132.453 30.6663H130.999L131.351 30.4176H131.616L131.88 30.1689H130.735C130.793 30.1026 130.852 30.0363 130.911 29.97C130.999 29.8705 131.058 29.771 131.087 29.6715H131.572C131.748 29.3731 131.895 29.0415 132.012 28.6767H132.321L132.409 28.428C132.467 28.229 132.526 28.0632 132.585 27.9306ZM184.276 28.6767V28.9254H187.712V29.4228H187.536V30.1689H178.417V30.4176H180.003V31.1637H184.849V31.6611H182.338V32.656H182.206V32.9047H179.298V33.6508H183.615V33.8995H183.792V34.6456H184.232V35.6404H175.73V36.3865H184.717V36.8839H181.721V37.6301H181.325V38.1275H182.338V38.6249H181.677V39.1223H183.219L183.087 39.6197H185.157C185.099 39.7192 185.025 39.8187 184.937 39.9181C184.878 39.9845 184.805 40.0508 184.717 40.1171H185.73C185.583 40.2497 185.378 40.3161 185.113 40.3161H176.479C176.215 40.3161 176.009 40.2497 175.862 40.1171H174.849C174.643 40.0176 174.497 39.8518 174.409 39.6197H172.338L172.206 39.1223H170.664V38.6249H171.325V38.1275H170.312V37.6301H170.708V36.8839H173.704V36.3865H165.73V36.8839H162.074V37.6301H164.585V38.1275H163.968V38.6249H166.259V39.1223H163.792L163.66 39.6197H164.629C164.511 39.8518 164.379 40.0176 164.232 40.1171H163.175C163.028 40.2497 162.823 40.3161 162.558 40.3161H153.924C153.63 40.3161 153.41 40.2497 153.263 40.1171H154.321C154.174 40.0176 154.042 39.8518 153.924 39.6197H152.911C152.823 39.4539 152.779 39.2881 152.779 39.1223H155.246V38.6249H152.955V38.1275H153.572V37.6301H151.061V36.8839H154.717V36.3865H156.832V35.6404H150.048V34.6456H152.559V33.8995H154.321V33.6508H153.087V32.9047H151.017V32.656H151.457V31.6611H152.867V31.1637H153.528V30.4176H150.356V30.1689H158.506V29.4228H148.55V28.9254H157.933V28.6767H153.351V27.9306H155.995V27.6819H156.523V27.4332H156.303V26.4383H151.942V25.6922H153.396V25.4435H152.999V24.6974H153.175V24.4487H153.219V23.9513H153.263V23.7026H152.691V23.4539H150.973V22.7078H151.545V21.9617H150.664V21.2155H152.867V20.2207H152.382V19.7233H149.166V19.4746H154.321V18.9772H155.554V18.7285H143.66V18.4798H150.664V18.2311H153.175V17.485H148.682V16.4902H147.448V15.744H152.735V14.7492H153.175V14.0031H155.995V13.7544H153.572V12.7596H155.554V12.2622H153.175V12.0135H152.338V11.5161H151.061V11.0187H149.519V10.0238H152.294V9.27772H153.968V8.5316H153.175V8.0342H152.074V7.78549H152.691V7.28808H152.559V6.84042C152.559 6.60829 152.603 6.42591 152.691 6.29327H155.51C155.539 6.19378 155.583 6.11088 155.642 6.04456C155.701 5.94508 155.76 5.86218 155.818 5.79586H162.602C162.779 5.59689 163.028 5.49741 163.351 5.49741H180.267C180.561 5.49741 180.811 5.59689 181.016 5.79586H187.8C187.859 5.86218 187.918 5.94508 187.977 6.04456C188.065 6.11088 188.123 6.19378 188.153 6.29327H182.47C182.529 6.49223 182.558 6.67461 182.558 6.84042V7.28808H182.778V7.78549H183.395V8.0342H182.206V8.5316H181.677V9.27772H183.395V10.0238H179.254V11.0187H184.012V11.5161H180.576V12.0135H181.986V12.2622H181.281V12.7596H184.585V13.7544H179.739V14.0031H183.483V14.7492H182.823V15.744H179.298V16.4902H177.845V17.485H182.338V18.2311H179.827V18.4798H172.823V18.7285H184.717V18.9772H183.483V19.4746H178.329V19.7233H181.545V20.2207H182.03V21.2155H179.827V21.9617H180.708V22.7078H180.135V23.4539H181.853V23.7026H182.426V23.9513H182.382V24.4487H182.338V24.6974H182.162V25.4435H182.558V25.6922H181.104V26.4383H185.466V27.4332H185.686V27.6819H185.157V27.9306H182.514V28.6767H184.276ZM158.462 15.744V16.4902H159.695V17.286H166.831V16.4902H168.285V15.744H171.809V14.7492H172.47V14.0031H168.726V13.7544H173.572V12.7596H170.268V12.2622H170.972V12.0135H169.563V11.5161H172.999V11.0187H168.241V10.0238H172.382V9.27772H170.664V8.5316H171.193V8.0342H172.382V7.78549H171.765V7.28808H171.545V6.84042C171.545 6.67461 171.574 6.49223 171.633 6.29327H177.316C177.375 6.19378 177.433 6.11088 177.492 6.04456C177.551 5.94508 177.61 5.86218 177.668 5.79586H165.95C166.097 5.9285 166.215 6.0943 166.303 6.29327H163.484C163.542 6.39275 163.572 6.57513 163.572 6.84042V7.28808H163.704V7.78549H163.087V8.0342H164.188V8.5316H164.981V9.27772H163.307V10.0238H160.532V11.0187H162.074V11.5161H163.351V12.0135H164.188V12.2622H166.567V12.7596H164.585V13.7544H167.008V14.0031H164.188V14.7492H163.748V15.744H158.462ZM176.699 29.4228V28.9254H173.263V28.6767H171.501V28.229H164.365V28.6767H168.946V28.9254H159.563V29.4228H169.519V30.1689H176.523V29.4228H176.699ZM173.836 31.1637H168.99V30.4176H167.404V30.1689H161.369V30.4176H164.541V31.1637H163.88V31.6611H162.47V32.656H162.03V32.9047H164.1V33.6508H165.334V33.8995H163.572V34.6456H161.061V35.6404H173.219V34.6456H172.779V33.8995H172.602V33.6508H168.285V32.9047H171.193V32.656H171.325V31.6611H173.836V31.1637ZM220.331 31.6611H223.811V32.4073H217.115V33.4021H221.433V34.3969H217.644V35.3917H218.129V36.1378H217.82V36.6352H216.895V37.1326H216.851V37.6301H217.776V38.6249H219.054V38.9731C219.054 39.0394 219.039 39.0891 219.01 39.1223H211.168C211.139 39.1886 211.124 39.2715 211.124 39.371H214.164C214.076 39.7026 213.914 39.9513 213.679 40.1171H212.842C212.696 40.2497 212.49 40.3161 212.226 40.3161H189.274C189.039 40.3161 188.819 40.2497 188.614 40.1171H189.451C189.245 39.9513 189.083 39.7026 188.966 39.371H185.882C185.853 39.3047 185.838 39.2218 185.838 39.1223H193.724V38.6249H192.446V37.6301H191.521V37.1326H191.565V36.6352H192.49V36.1378H192.799V35.3917H192.314V34.3969H196.102V33.4021H191.785V32.4073H198.481V31.6611H195.001V31.1637H196.014V30.6663H196.455V30.1689H191.565V29.6715H190.42V28.9254H194.517V28.6767H191.257V28.1793H192.226V27.6819H192.931V26.9358H192.843V25.9409H192.402V24.9461H191.741V24.4487H192.27V23.4539H191.785V22.9565H192.49V22.2104H192.666V21.4643H193.459V21.2155H192.71V20.2207H192.05V19.4746H192.226V18.7285H192.314V17.7337H192.975V16.7389H192.006V15.744H192.138V14.7492H193.371V14.0031H192.71V13.257H192.358V13.0083H194.208V12.2622H197.468V11.7648H196.147V11.2674H191.873V11.0187H192.358V10.2725H192.402V9.52643H192.534V8.5316H192.49V7.28808H192.402V6.84042C192.402 6.70777 192.417 6.60829 192.446 6.54197H192.006C192.123 5.8456 192.505 5.49741 193.151 5.49741H215.75C216.425 5.49741 216.807 5.8456 216.895 6.54197H217.336C217.365 6.60829 217.38 6.70777 217.38 6.84042V7.28808H217.468V8.5316H217.512V9.52643H217.38V10.2725H217.336V11.0187H216.851V11.2674H221.124V11.7648H222.446V12.2622H219.186V13.0083H217.336V13.257H217.688V14.0031H218.349C218.29 14.3347 218.187 14.5834 218.041 14.7492H216.807C216.602 15.0477 216.308 15.1969 215.926 15.1969H202.71V15.744H202.578V16.7389H203.547V17.7337H202.887V18.3306H215.133C215.456 18.3306 215.735 18.4632 215.97 18.7285H215.882C216.029 18.8943 216.132 19.143 216.19 19.4746H216.058V20.2207H216.719V21.2155H217.468V21.4643H216.675V22.2104H216.499V22.9565H215.794V23.4539H216.278V24.4487H215.75V24.9461H216.411V25.9409H216.851V26.1399C216.851 26.5047 216.778 26.7699 216.631 26.9358H216.719C216.484 27.3005 216.161 27.4829 215.75 27.4829H203.503V27.6819H202.798V28.1793H201.829V28.6767H205.089V28.9254H200.992V29.6715H202.138V30.1689H207.027V30.6166H220.596C220.742 30.6166 220.86 30.6332 220.948 30.6663H220.463C220.757 30.7658 220.977 30.9316 221.124 31.1637H220.111C220.229 31.3627 220.302 31.5285 220.331 31.6611ZM260.727 13.257C260.786 13.3896 260.844 13.5223 260.903 13.6549C260.962 13.7544 261.006 13.8705 261.035 14.0031H259.405C259.464 14.1358 259.523 14.3016 259.582 14.5005C259.64 14.6663 259.699 14.8321 259.758 14.9979H252.842L253.106 15.9927H256.674L256.806 16.7389H256.322C256.351 16.8052 256.366 16.8881 256.366 16.9876C256.366 17.087 256.38 17.17 256.41 17.2363H255.22L255.264 17.7337H256.19C256.19 17.8663 256.19 17.999 256.19 18.1316C256.219 18.2311 256.234 18.3472 256.234 18.4798H257.864C257.893 18.6124 257.908 18.7285 257.908 18.828C257.908 18.9275 257.908 19.0435 257.908 19.1762V19.2259H253.767C253.767 19.3917 253.767 19.5575 253.767 19.7233C253.796 19.8891 253.811 20.0549 253.811 20.2207H254.736C254.736 20.3865 254.736 20.5523 254.736 20.7181C254.765 20.8839 254.78 21.0497 254.78 21.2155H256.366V21.4643H255.749V22.4591H255.925V23.2052H258.524V24.2H256.057V24.6974H255.793C255.793 24.7637 255.793 24.8466 255.793 24.9461C255.793 25.0456 255.778 25.1285 255.749 25.1948H254.956V26.1896H255.044C255.015 26.2891 255 26.4218 255 26.5876V26.687H256.63C256.63 26.8197 256.615 26.9523 256.586 27.085C256.586 27.1845 256.586 27.3005 256.586 27.4332H257.247C257.247 27.599 257.232 27.7648 257.203 27.9306C257.203 28.0964 257.188 28.2622 257.159 28.428H256.19C256.16 28.4943 256.145 28.5772 256.145 28.6767C256.145 28.7762 256.131 28.8591 256.101 28.9254H250.815C250.815 29.058 250.786 29.2238 250.727 29.4228H255.353C255.294 29.6218 255.264 29.7876 255.264 29.9202H255.925C255.896 30.0529 255.866 30.1855 255.837 30.3181C255.837 30.4176 255.808 30.5337 255.749 30.6663L255.617 31.1637H254.339L254.251 31.4124H256.322C256.263 31.5451 256.234 31.628 256.234 31.6611H254.912L254.824 31.9098H254.78C254.721 32.0757 254.662 32.2415 254.604 32.4073C254.545 32.5731 254.471 32.7389 254.383 32.9047H253.723L253.238 33.8995H253.987L253.723 34.3969H253.767C253.708 34.4632 253.649 34.5461 253.59 34.6456C253.532 34.7451 253.473 34.828 253.414 34.8943H253.106C253.018 34.9938 252.959 35.0767 252.93 35.143C252.842 35.2756 252.753 35.4083 252.665 35.5409C252.577 35.6404 252.474 35.7565 252.357 35.8891H252.225C252.078 36.0549 251.916 36.2207 251.74 36.3865C251.593 36.5523 251.432 36.7181 251.256 36.8839H251.652L250.727 37.6301H250.771C250.536 37.7959 250.286 37.9617 250.022 38.1275C249.758 38.2933 249.479 38.4591 249.185 38.6249H249.141C248.847 38.7907 248.48 38.9565 248.04 39.1223H248.084C247.496 39.3544 246.88 39.5534 246.234 39.7192C245.588 39.885 244.927 40.0176 244.251 40.1171H245.176C244.707 40.1834 244.222 40.2332 243.723 40.2663C243.223 40.2995 242.709 40.3161 242.181 40.3161H229.273C229.009 40.3161 228.804 40.2497 228.657 40.1171H227.732C227.438 39.9181 227.262 39.5865 227.203 39.1223H227.159V38.6249H227.247V37.6301H227.159V36.8839H226.807V35.8891H226.939V35.143H226.895V34.8943H227.247V34.3969H227.203V33.8995H226.41V32.9047H227.115V31.9098H227.159V31.6611H228.481V31.4124H226.454V31.1637H227.732V29.9202H227.115V29.4228H227.071V28.9254H228.216V28.428H223.15V27.4332H222.974V26.687H223.547V26.1896H225.353V25.1948H226.498V24.6974H227.159V24.2H227.864V23.2052H228.877V22.4591H229.846V21.4643H226.895V21.2155H225.926V20.2207H223.987V19.2259H229.009V18.4798H225.133V17.7337H227.247V17.2363H227.159V16.7389H226.807V15.9927H224.912V14.9979H231.784V14.0031H233.414V13.257H225.485V12.2622H230.683V12.0135H226.586V11.7648H234.912V10.7699H233.855V10.5212H223.37V9.52643H224.648V8.78031H227.379V8.5316H228.833V8.0342H228.04V7.78549H227.115V7.28808H227.203V6.84042C227.203 6.7741 227.203 6.72435 227.203 6.69119C227.232 6.62487 227.247 6.57513 227.247 6.54197H227.423C227.57 5.8456 227.967 5.49741 228.613 5.49741H241.3C243.561 5.49741 245.617 5.8456 247.467 6.54197H247.291C247.82 6.74093 248.363 6.98964 248.921 7.28808H248.833C248.98 7.35441 249.126 7.4373 249.273 7.53679C249.449 7.60311 249.596 7.68601 249.714 7.78549H250.639L251.035 8.0342H251.784C251.931 8.10052 252.049 8.18342 252.137 8.2829C252.254 8.38239 252.372 8.46529 252.489 8.5316H251.035C251.094 8.56477 251.153 8.59793 251.212 8.63109C251.27 8.66425 251.314 8.71399 251.344 8.78031H248.612L249.449 9.52643H248.128C248.451 9.82487 248.745 10.1565 249.009 10.5212H259.493C259.523 10.5544 259.552 10.5876 259.582 10.6207C259.611 10.6539 259.64 10.7036 259.67 10.7699H260.771C260.888 10.9026 261.006 11.0684 261.123 11.2674C261.241 11.4332 261.344 11.599 261.432 11.7648H253.106C253.135 11.7979 253.165 11.8311 253.194 11.8643C253.223 11.8974 253.253 11.9472 253.282 12.0135H257.379L257.511 12.2622H252.313C252.518 12.5938 252.68 12.9254 252.797 13.257H260.727ZM245.176 16.7389C245 16.4404 244.78 16.1917 244.516 15.9927H240.947C240.301 15.4622 239.508 15.1969 238.569 15.1969H235.925V15.9927H237.82V16.7389H238.172V17.2363H238.26V17.7337H236.146V18.4798H240.022V19.2259H235V20.2207H236.939V21.2155H237.908V21.4643H240.859V22.4591H239.89V23.2052H238.877V24.2H238.172V24.6974H237.511V25.1948H236.366V26.1896H234.56V26.687H233.987V27.4332H234.163V28.428H239.229V28.9254H238.084V29.4228H238.128V29.9202H238.745V30.6166H241.608C242.46 30.6166 243.179 30.3845 243.767 29.9202H243.062C243.15 29.8539 243.238 29.7876 243.326 29.7212C243.414 29.6218 243.488 29.5223 243.546 29.4228H238.965C239.024 29.3565 239.082 29.2902 239.141 29.2238C239.2 29.1244 239.244 29.0249 239.273 28.9254H244.56C244.618 28.8591 244.662 28.7927 244.692 28.7264C244.721 28.6269 244.751 28.5275 244.78 28.428H245.793C245.852 28.2622 245.896 28.0964 245.925 27.9306C245.955 27.7648 245.984 27.599 246.013 27.4332H245.353C245.382 27.3005 245.397 27.1845 245.397 27.085C245.397 26.9523 245.411 26.8197 245.441 26.687H243.811V26.5876C243.811 26.5212 243.811 26.4549 243.811 26.3886C243.84 26.3223 243.855 26.256 243.855 26.1896H243.767C243.767 26.0238 243.767 25.858 243.767 25.6922C243.767 25.4933 243.781 25.3275 243.811 25.1948H244.604V24.6974H244.868L244.912 24.2H247.379V23.2052H244.78V22.4591H244.604V21.4643H245.22V21.2155H243.591V20.2207H242.621C242.621 20.0549 242.621 19.8891 242.621 19.7233C242.621 19.5575 242.607 19.3917 242.577 19.2259H246.718V19.1762C246.718 19.0435 246.704 18.9275 246.674 18.828C246.674 18.6953 246.674 18.5793 246.674 18.4798H245.044C245.015 18.3472 244.986 18.2311 244.956 18.1316C244.927 17.999 244.897 17.8663 244.868 17.7337H243.943C243.914 17.6342 243.884 17.5513 243.855 17.485C243.825 17.3855 243.796 17.3026 243.767 17.2363H244.956C244.927 17.1368 244.883 17.0539 244.824 16.9876C244.795 16.8881 244.751 16.8052 244.692 16.7389H245.176Z" fill="#E7438A"/>
<path d="M76.8291 62L82 49.989C75.1902 42.1735 69.6257 35.7419 65.1461 30.3287C63.1511 33.165 60.7338 36.2369 58.0042 39.5322C64.1052 46.5021 71.1642 54.1287 76.8291 62Z" fill="#FE68A8"/>
<path d="M50.7286 9.28527C56.2324 7.92702 59.2535 7.91262 64.7638 9.28527C68.3083 10.6098 70.2648 12.4742 70.9278 14.8459C68.4573 -3.61531 46.2965 -3.61529 44.5929 14.8459C45.3543 12.6349 47.2887 10.7619 50.7286 9.28527Z" fill="#FE68A8"/>
<path d="M50.7286 9.28527C47.2887 10.7619 45.3543 12.6349 44.5929 14.8459C43.121 19.1206 46.034 24.6589 50.9308 31.0405C53.6209 27.8039 55.9543 24.6709 58.0738 21.4102C54.4276 16.5208 52.0579 12.6583 50.7286 9.28527Z" fill="#FE68A8"/>
<path d="M33 49.989L38.6633 62C45.7757 53.675 52.5202 46.1528 58.0042 39.5322C60.7338 36.2369 63.1511 33.165 65.1461 30.3287C69.6562 23.9164 72.0074 18.7085 70.9278 14.8459C70.2648 12.4742 68.3083 10.6098 64.7638 9.28527C62.6716 13.7315 60.5145 17.6555 58.0738 21.4102C55.9543 24.6709 53.6209 27.8039 50.9308 31.0405C46.2719 36.6457 40.5426 42.5616 33 49.989Z" fill="#FE68A8"/>
<path d="M64.7638 9.28527C59.2535 7.91262 56.2324 7.92702 50.7286 9.28527M64.7638 9.28527C68.3083 10.6098 70.2648 12.4742 70.9278 14.8459M64.7638 9.28527C62.6716 13.7315 60.5145 17.6555 58.0738 21.4102M50.7286 9.28527C47.2887 10.7619 45.3543 12.6349 44.5929 14.8459M50.7286 9.28527C52.0579 12.6583 54.4276 16.5208 58.0738 21.4102M44.5929 14.8459C46.2965 -3.61529 68.4573 -3.61531 70.9278 14.8459M44.5929 14.8459C43.121 19.1206 46.034 24.6589 50.9308 31.0405M70.9278 14.8459C72.0074 18.7085 69.6562 23.9164 65.1461 30.3287M50.9308 31.0405C53.6209 27.8039 55.9543 24.6709 58.0738 21.4102M50.9308 31.0405C46.2719 36.6457 40.5426 42.5616 33 49.989L38.6633 62C45.7757 53.675 52.5202 46.1528 58.0042 39.5322M65.1461 30.3287C69.6257 35.7419 75.1902 42.1735 82 49.989L76.8291 62C71.1642 54.1287 64.1052 46.5021 58.0042 39.5322M65.1461 30.3287C63.1511 33.165 60.7338 36.2369 58.0042 39.5322" stroke="#E7438A"/>
</svg>
